<?xml version="1.0" encoding="utf-8"?>
<!-- Generator: Adobe Illustrator 23.0.3, SVG Export Plug-In . SVG Version: 6.00 Build 0)  -->
<svg version="1.1" id="BG" xmlns="http://www.w3.org/2000/svg" xmlns:xlink="http://www.w3.org/1999/xlink" x="0px" y="0px"
	 viewBox="0 0 1214 941" style="enable-background:new 0 0 1214 941;" xml:space="preserve">
<style type="text/css">
	.st0{opacity:0.2;fill:#4E768D;enable-background:new    ;}
	.st1{fill:#000000;}
	.st2{fill:#000000;}
	.st3{fill:none;stroke:#4E768D;stroke-miterlimit:10;}
	.st4{fill:#000000;}
</style>
<rect x="151" y="285.4" class="st0" width="903.8" height="436"/>
<rect x="380.8" y="315.2" class="st0" width="444.5" height="202.9"/>
<path class="st1" d="M1059.1,281.2h-24.7v4.1h24.7V281.2L1059.1,281.2z M1009.7,281.2H985v4.1h24.7L1009.7,281.2L1009.7,281.2
	L1009.7,281.2z M960.3,281.2h-24.7v4.1h24.7V281.2L960.3,281.2z M910.9,281.2h-24.7v4.1h24.7V281.2L910.9,281.2z M861.6,281.2h-24.7
	v4.1h24.7V281.2L861.6,281.2z M812.2,281.2h-24.7v4.1h24.7V281.2L812.2,281.2z M762.8,281.2h-24.7v4.1h24.7V281.2L762.8,281.2z
	 M713.4,281.2h-24.7v4.1h24.7V281.2L713.4,281.2z M664,281.2h-24.7v4.1H664L664,281.2L664,281.2L664,281.2z M614.6,281.2h-24.7v4.1
	h24.7V281.2L614.6,281.2z M565.2,281.2h-24.7v4.1h24.7V281.2L565.2,281.2z M515.8,281.2h-24.7v4.1h24.7L515.8,281.2L515.8,281.2
	L515.8,281.2z M466.4,281.2h-24.7v4.1h24.7L466.4,281.2L466.4,281.2L466.4,281.2z M417,281.2h-24.7v4.1H417L417,281.2L417,281.2
	L417,281.2z M367.7,281.2H343v4.1h24.7V281.2L367.7,281.2z M318.3,281.2h-24.7v4.1h24.7V281.2L318.3,281.2z M268.9,281.2h-24.7v4.1
	h24.7V281.2L268.9,281.2z M219.5,281.2h-24.7v4.1h24.7V281.2L219.5,281.2z M170.1,281.2H147v4.1h23L170.1,281.2L170.1,281.2
	L170.1,281.2z M151.2,307.6H147v24.7h4.1L151.2,307.6L151.2,307.6L151.2,307.6z M151.2,357H147v24.7h4.1L151.2,357L151.2,357
	L151.2,357z M151.2,406.4H147v24.7h4.1L151.2,406.4L151.2,406.4L151.2,406.4z M151.2,455.7H147v24.7h4.1L151.2,455.7L151.2,455.7
	L151.2,455.7z M151.2,505.1H147v24.7h4.1L151.2,505.1L151.2,505.1L151.2,505.1z M151.2,554.5H147v24.7h4.1L151.2,554.5L151.2,554.5
	L151.2,554.5z M151.2,603.9H147v24.7h4.1L151.2,603.9L151.2,603.9L151.2,603.9z M151.2,653.3H147V678h4.1L151.2,653.3L151.2,653.3
	L151.2,653.3z M151.2,702.7H147v23h4.1L151.2,702.7L151.2,702.7L151.2,702.7z M198,721.7h-24.7v4.1H198V721.7L198,721.7z
	 M247.4,721.7h-24.7v4.1h24.7V721.7L247.4,721.7z M296.8,721.7h-24.7v4.1h24.7V721.7L296.8,721.7z M346.2,721.7h-24.7v4.1h24.7
	V721.7L346.2,721.7z M395.6,721.7h-24.7v4.1h24.7V721.7L395.6,721.7z M445,721.7h-24.7v4.1H445L445,721.7L445,721.7L445,721.7z
	 M494.3,721.7h-24.7v4.1h24.7V721.7L494.3,721.7z M543.7,721.7H519v4.1h24.7V721.7L543.7,721.7z M593.1,721.7h-24.7v4.1h24.7V721.7
	L593.1,721.7z M642.5,721.7h-24.7v4.1h24.7V721.7L642.5,721.7z M691.9,721.7h-24.7v4.1H692L691.9,721.7L691.9,721.7L691.9,721.7z
	 M741.3,721.7h-24.7v4.1h24.7V721.7L741.3,721.7z M790.7,721.7H766v4.1h24.7V721.7L790.7,721.7z M840.1,721.7h-24.7v4.1h24.7V721.7
	L840.1,721.7z M889.5,721.7h-24.7v4.1h24.7V721.7L889.5,721.7z M938.9,721.7h-24.7v4.1h24.7V721.7L938.9,721.7z M988.2,721.7h-24.7
	v4.1h24.7V721.7L988.2,721.7z M1037.6,721.7H1013v4.1h24.7L1037.6,721.7L1037.6,721.7L1037.6,721.7z M1059,697.8h-4v24.7h4.1
	L1059,697.8L1059,697.8L1059,697.8z M1059,648.4h-4v24.7h4.1L1059,648.4L1059,648.4L1059,648.4z M1059,599h-4v24.7h4.1L1059,599
	L1059,599L1059,599z M1059,549.6h-4v24.7h4.1L1059,549.6L1059,549.6L1059,549.6z M1059,500.2h-4v24.7h4.1L1059,500.2L1059,500.2
	L1059,500.2z M1059,450.8h-4v24.7h4.1L1059,450.8L1059,450.8L1059,450.8z M1059,401.4h-4v24.7h4.1L1059,401.4L1059,401.4L1059,401.4
	z M1059,352.1h-4v24.7h4.1L1059,352.1L1059,352.1L1059,352.1z M1059,302.7h-4v24.7h4.1L1059,302.7L1059,302.7L1059,302.7z"/>
<g>
	<g>
		<path class="st2" d="M546.8,410.4c-1,0-1.9-0.2-2.7-0.8c-0.7-0.5-1.3-1.2-1.7-2c-0.4-0.9-0.6-1.8-0.6-2.7c0-0.7,0.1-1.5,0.3-2.2
			c0.2-0.7,0.5-1.3,0.9-1.8c0.4-0.5,1-1,1.6-1.2c0.7-0.3,1.4-0.5,2.1-0.5c0.5,0,1,0.1,1.5,0.2c0.4,0.1,0.8,0.3,1.1,0.5l-0.4,0.9
			c-0.7-0.4-1.6-0.6-2.4-0.6c-1,0-2,0.4-2.7,1.3c-0.7,1-1.1,2.2-1,3.4c0,1.2,0.3,2.3,1,3.2c0.6,0.8,1.6,1.3,2.7,1.2
			c0.9,0,1.7-0.2,2.5-0.6l0.2,0.9c-0.4,0.3-0.8,0.4-1.2,0.5C547.7,410.3,547.3,410.4,546.8,410.4z"/>
		<path class="st2" d="M556,410.4c-0.9,0-1.8-0.2-2.6-0.7c-0.7-0.5-1.3-1.2-1.7-2c-0.4-0.9-0.6-1.9-0.6-2.8c0-0.8,0.1-1.5,0.3-2.2
			c0.2-0.6,0.6-1.2,1-1.8c0.4-0.5,1-0.9,1.5-1.2c0.6-0.3,1.4-0.4,2.1-0.4c1.8-0.1,3.5,1,4.3,2.7c0.4,0.9,0.6,1.9,0.5,2.8
			c0,1-0.2,2-0.6,2.9c-0.4,0.8-0.9,1.5-1.7,2C557.9,410.1,556.9,410.4,556,410.4z M556.1,409.4c0.7,0,1.4-0.2,2-0.6
			c0.5-0.4,0.9-1,1.2-1.6c0.3-0.7,0.4-1.5,0.4-2.3c0.1-1.2-0.3-2.3-0.9-3.3c-0.6-0.9-1.6-1.3-2.7-1.3c-0.7,0-1.4,0.2-2,0.6
			c-0.6,0.4-1,1-1.2,1.6c-0.3,0.8-0.4,1.5-0.4,2.3c-0.1,1.2,0.3,2.3,0.9,3.3C554,409,555.1,409.4,556.1,409.4L556.1,409.4z"/>
		<path class="st2" d="M563.3,410.1v-10.7h1l0.2,1.6c0.4-0.6,0.9-1,1.5-1.4c0.6-0.3,1.4-0.5,2.1-0.5c1-0.1,2,0.3,2.7,1
			c0.7,0.9,1,2.1,0.9,3.2v6.6h-1.2v-7.2c0-0.7-0.2-1.5-0.6-2c-0.5-0.5-1.2-0.7-1.8-0.6c-0.9,0-1.7,0.2-2.4,0.7
			c-0.6,0.5-1,1.1-1.2,1.9c0,0.3,0,0.6,0,1v6.3L563.3,410.1L563.3,410.1z"/>
		<path class="st2" d="M577.6,410.4c-0.7,0.1-1.4-0.2-2-0.6c-0.5-0.6-0.7-1.3-0.6-2v-7.4h-1.5l0.1-0.7l1.5-0.1l0.3-2.5l0.8-0.1v2.5
			h3.1v0.9h-3.1v7.2c-0.1,0.5,0.1,1.1,0.4,1.5c0.4,0.3,0.8,0.4,1.3,0.4c0.5,0,1-0.1,1.5-0.2v0.9
			C578.8,410.2,578.2,410.3,577.6,410.4z"/>
		<path class="st2" d="M585.5,410.4c-1.3,0.1-2.6-0.5-3.5-1.5c-0.9-1.1-1.4-2.6-1.3-4c-0.1-1.4,0.4-2.9,1.3-4c0.8-1,2-1.6,3.3-1.6
			c1.2,0,2.3,0.5,3,1.4c0.8,1,1.2,2.3,1.1,3.6c0,0.1,0,0.2,0,0.4s0,0.3,0,0.4h-7.5c-0.1,1.2,0.3,2.3,1,3.3c0.6,0.8,1.6,1.2,2.6,1.2
			c0.6,0,1.2-0.1,1.8-0.2c0.6-0.2,1.1-0.4,1.6-0.7l0.2,0.9C588,410.1,586.8,410.4,585.5,410.4z M582,403.9h6.1
			c0.1-1-0.2-1.9-0.8-2.7c-0.5-0.7-1.3-1-2.1-1c-0.9,0-1.7,0.3-2.2,1C582.4,402,582,402.9,582,403.9L582,403.9z"/>
		<path class="st2" d="M591.8,410.1v-10.7h1l0.2,1.6c0.4-0.6,0.9-1,1.5-1.4c0.6-0.3,1.4-0.5,2.1-0.5c1-0.1,2,0.3,2.7,1
			c0.7,0.9,1,2.1,0.9,3.2v6.6h-1.2v-7.2c0-0.7-0.2-1.5-0.6-2c-0.5-0.5-1.2-0.7-1.8-0.6c-0.9,0-1.7,0.2-2.4,0.7
			c-0.6,0.5-1,1.1-1.2,1.9c0,0.3,0,0.6,0,1v6.3L591.8,410.1L591.8,410.1z"/>
		<path class="st2" d="M606.1,410.4c-0.7,0.1-1.4-0.2-2-0.6c-0.5-0.6-0.7-1.3-0.6-2v-7.4H602l0.1-0.7l1.5-0.1l0.3-2.5l0.8-0.1v2.5
			h3.1v0.9h-3.1v7.2c-0.1,0.5,0.1,1.1,0.4,1.5c0.4,0.3,0.8,0.4,1.3,0.4c0.5,0,1-0.1,1.5-0.2v0.9
			C607.3,410.3,606.7,410.3,606.1,410.4z"/>
		<path class="st2" d="M616,410.1l-3-10.7h1.3l2.5,9.6c1.8-5.7,2.8-8.9,3-9.6h1.5c1.9,6.4,2.9,9.5,3,9.5l2.4-9.5h1.3l-2.9,10.7h-1.4
			c0,0-0.5-1.5-1.4-4.5s-1.4-4.8-1.6-5.3c-0.1,0.4-0.4,1.4-0.9,3s-1,3.2-1.5,4.6c-0.5,1.5-0.7,2.2-0.7,2.2L616,410.1L616,410.1z"/>
		<path class="st2" d="M629.5,397.2v-1.6h1.2v1.6H629.5z M629.5,410.1v-10.7h1.2v10.7H629.5z"/>
		<path class="st2" d="M637.8,410.4c-1.3,0.1-2.5-0.5-3.3-1.5c-0.9-1.2-1.3-2.6-1.2-4.1c-0.1-1.4,0.4-2.9,1.2-4c0.8-1,2-1.6,3.3-1.5
			c0.7,0,1.4,0.2,2,0.4c0.6,0.3,1.2,0.7,1.5,1.3v-5.7l1.2-0.1v15h-1l-0.2-1.6c-0.4,0.6-0.9,1.1-1.5,1.4
			C639.1,410.2,638.5,410.4,637.8,410.4z M637.8,409.4c0.5,0,1.1-0.1,1.6-0.3c0.4-0.2,0.8-0.5,1.1-0.9c0.3-0.4,0.5-0.9,0.6-1.4
			c0.1-0.6,0.2-1.2,0.2-1.7c0-3.2-1.2-4.8-3.5-4.8c-0.5,0-1,0.1-1.5,0.4c-0.4,0.3-0.8,0.6-1,1.1c-0.2,0.5-0.4,1-0.5,1.5
			c-0.1,0.5-0.2,1.1-0.2,1.7c0,0.5,0,0.9,0.1,1.4c0.1,0.4,0.2,0.8,0.3,1.2c0.1,0.4,0.4,0.7,0.6,1c0.3,0.3,0.6,0.5,0.9,0.7
			C636.9,409.3,637.4,409.4,637.8,409.4L637.8,409.4z"/>
		<path class="st2" d="M648.3,410.4c-0.7,0.1-1.4-0.2-2-0.6c-0.5-0.6-0.7-1.3-0.6-2v-7.4h-1.5l0.1-0.7l1.5-0.1l0.3-2.5l0.8-0.1v2.5
			h3.1v0.9h-3.1v7.2c-0.1,0.5,0.1,1.1,0.4,1.5c0.4,0.3,0.8,0.4,1.3,0.4c0.5,0,1-0.1,1.5-0.2v0.9
			C649.5,410.2,648.9,410.3,648.3,410.4z"/>
		<path class="st2" d="M651.9,410.1v-14.9l1.2-0.1v5.4c0,0,0,0.1,0,0.1c0,0,0,0.1,0,0.1v0.2c0.9-1.2,2.3-1.9,3.8-1.8
			c2.3,0,3.5,1.4,3.5,4.2v6.7h-1.2v-6.5c0.1-0.9-0.1-1.8-0.6-2.6c-0.5-0.6-1.2-0.9-2-0.8c-0.8,0-1.7,0.2-2.3,0.7
			c-0.6,0.5-1,1.1-1.1,1.9c0,0.3,0,0.6,0,1.2v6.1L651.9,410.1L651.9,410.1z"/>
	</g>
	<g>
		<path class="st2" d="M578.8,434.8v-11.9c-0.1,0.1-0.5,0.2-1.3,0.6c-0.7,0.3-1.2,0.5-1.3,0.5v-2l1.5-0.7c0.8-0.4,1.3-0.7,1.4-0.7
			h2.2v14.2L578.8,434.8L578.8,434.8z"/>
		<path class="st2" d="M587.8,435c-0.7,0-1.4-0.1-2-0.3c-0.5-0.2-1.1-0.4-1.6-0.6c-0.3-0.1-0.5-0.3-0.7-0.4l0.8-1.8
			c0.2,0.1,0.4,0.3,0.5,0.4c0.4,0.2,0.8,0.4,1.2,0.5c0.5,0.2,1,0.3,1.5,0.3c0.8,0.1,1.5-0.2,2.1-0.8c0.5-0.6,0.7-1.3,0.7-2
			c0-0.7-0.2-1.4-0.6-1.9c-0.4-0.5-1-0.7-1.7-0.7c-0.8,0-1.6,0.4-2.2,1l-1.7-0.3l0.4-7.8h7.8l-0.2,2h-5.4c0,0.1,0,0.7-0.1,1.8
			c0,1.1-0.1,1.6-0.1,1.8c0.6-0.3,1.2-0.5,1.8-0.5c1.2-0.1,2.3,0.4,3.2,1.3c1.7,2,1.6,4.9-0.1,6.8
			C590.5,434.6,589.2,435.1,587.8,435z"/>
		<path class="st2" d="M599.3,435c-0.9,0-1.7-0.1-2.5-0.4c-0.7-0.3-1.3-0.8-1.8-1.4c-0.5-0.6-0.7-1.4-0.7-2.2c0-1.6,1-3.1,2.5-3.7
			c-1.4-0.5-2.3-1.9-2.3-3.4c0-0.6,0.1-1.1,0.4-1.6c0.2-0.5,0.6-0.9,1-1.2c0.5-0.3,1-0.5,1.5-0.7c0.6-0.2,1.2-0.2,1.8-0.2
			c1.2,0,2.4,0.3,3.4,1c0.9,0.6,1.4,1.7,1.3,2.8c0,1.4-0.8,2.8-2.1,3.4c1.5,0.6,2.4,2.1,2.3,3.7c0,0.8-0.2,1.6-0.7,2.2
			c-0.5,0.6-1.1,1.1-1.8,1.4C601,434.9,600.1,435,599.3,435z M597.4,432.6c0.6,0.4,1.2,0.6,1.9,0.6c0.7,0,1.4-0.2,1.9-0.6
			c0.5-0.4,0.7-1,0.7-1.7c0-0.7-0.2-1.3-0.7-1.8c-0.7-1.1-2.2-1.3-3.2-0.6c-0.2,0.2-0.4,0.4-0.6,0.6c-0.5,0.5-0.7,1.1-0.7,1.8
			C596.6,431.6,596.9,432.2,597.4,432.6L597.4,432.6z M599.3,426.6c0.7-0.1,1.3-0.5,1.8-1c0.4-0.5,0.7-1.1,0.6-1.7
			c0-0.6-0.2-1.1-0.7-1.4c-1.1-0.7-2.5-0.7-3.6,0c-0.5,0.3-0.7,0.9-0.7,1.4c0,0.6,0.2,1.3,0.7,1.7
			C598,426.2,598.6,426.5,599.3,426.6L599.3,426.6z"/>
		<path class="st2" d="M606.2,439.3v-15.2h2.2l0.3,1.5c0.3-0.6,0.8-1,1.4-1.3c0.6-0.3,1.3-0.5,2-0.5c0.8,0,1.6,0.2,2.3,0.7
			c0.7,0.5,1.2,1.2,1.5,2c0.4,0.9,0.5,1.9,0.5,2.9c0.1,1.5-0.4,2.9-1.2,4.1c-0.8,1-2,1.6-3.3,1.6c-0.6,0-1.3-0.1-1.8-0.4
			c-0.5-0.3-1-0.6-1.4-1.1c0.1,0.9,0.1,1.5,0.1,1.6v4L606.2,439.3z M611.4,433.1c0.7,0,1.4-0.4,1.8-1c0.5-0.8,0.7-1.8,0.7-2.7
			c0.1-0.9-0.2-1.9-0.7-2.7c-0.4-0.6-1.1-0.9-1.8-0.9c-1.7,0-2.5,1.2-2.6,3.5c-0.1,1,0.2,2,0.7,2.9
			C609.8,432.7,610.6,433.1,611.4,433.1L611.4,433.1z"/>
		<path class="st2" d="M617.1,434.8l3.8-5.5l-3.6-5.2h2.9l2.4,3.6l2.5-3.6h2.8l-3.7,5.2l3.8,5.5h-3l-2.5-3.9l-2.6,3.9H617.1
			L617.1,434.8z"/>
	</g>
</g>
<g>
	<g>
		<path class="st2" d="M242.7,484.6c-0.7,0.1-1.4-0.2-2-0.6c-0.5-0.6-0.7-1.3-0.6-2v-12.5l1.2-0.1v12.5c0,0.5,0.1,1,0.4,1.4
			c0.3,0.3,0.7,0.4,1.1,0.4c0.5,0,1-0.1,1.5-0.2v0.9C243.7,484.5,243.2,484.6,242.7,484.6z"/>
		<path class="st2" d="M250,484.6c-1.3,0.1-2.6-0.5-3.5-1.5c-0.9-1.1-1.4-2.6-1.3-4c-0.1-1.4,0.4-2.9,1.3-4c0.8-1,2-1.6,3.3-1.6
			c1.2,0,2.3,0.5,3,1.4c0.8,1,1.2,2.3,1.1,3.6c0,0.1,0,0.2,0,0.4s0,0.3,0,0.4h-7.4c-0.1,1.2,0.3,2.3,1,3.3c0.6,0.8,1.6,1.2,2.6,1.2
			c0.6,0,1.2-0.1,1.8-0.2c0.6-0.2,1.1-0.4,1.6-0.7l0.2,0.9C252.6,484.3,251.3,484.7,250,484.6z M246.5,478.2h6.1
			c0.1-1-0.2-1.9-0.8-2.7c-0.5-0.7-1.3-1-2.1-1c-0.9,0-1.7,0.3-2.2,1C246.9,476.3,246.6,477.2,246.5,478.2L246.5,478.2z"/>
		<path class="st2" d="M257,484.4v-9.8h-1.8l0.1-0.8l1.7-0.1v-0.4c-0.1-1.1,0.2-2.2,0.7-3.1c0.5-0.7,1.4-1.1,2.3-1
			c0.5,0,1,0.1,1.5,0.1l-0.1,0.8c-0.6-0.1-1-0.1-1.3-0.1c-0.6-0.1-1.2,0.2-1.5,0.7c-0.3,0.8-0.5,1.7-0.4,2.5v0.3h2.6v0.9h-2.6v9.8
			L257,484.4L257,484.4z"/>
		<path class="st2" d="M265.6,484.6c-0.7,0.1-1.4-0.2-2-0.6c-0.5-0.6-0.7-1.3-0.6-2v-7.4h-1.5l0.1-0.7l1.5-0.1l0.3-2.5l0.9-0.1v2.5
			h3.1v0.9h-3.1v7.2c-0.1,0.5,0.1,1.1,0.4,1.5c0.4,0.3,0.8,0.4,1.3,0.4c0.5,0,1-0.1,1.5-0.2v0.9
			C266.8,484.5,266.2,484.6,265.6,484.6z"/>
	</g>
	<g>
		<path class="st2" d="M220.3,513.8v-15.5h1.1l0.1,1.5c0.4-0.5,0.9-1,1.5-1.3c0.6-0.3,1.2-0.4,1.8-0.4c1.3-0.1,2.6,0.5,3.4,1.5
			c0.8,1.2,1.2,2.7,1.1,4.2c0.1,1.4-0.4,2.8-1.2,3.9c-0.8,1-2,1.6-3.2,1.5c-0.7,0-1.4-0.2-2-0.5c-0.6-0.3-1.1-0.8-1.5-1.3
			c0,0.8,0,1.6,0,2.4v3.9L220.3,513.8z M224.8,508.3c0.5,0,1-0.1,1.5-0.4c0.4-0.3,0.8-0.6,1-1.1c0.3-0.5,0.4-0.9,0.6-1.5
			c0.1-0.5,0.2-1.1,0.2-1.6c0-0.6-0.1-1.1-0.2-1.6c-0.1-0.5-0.3-1-0.6-1.5c-0.2-0.4-0.6-0.8-1-1.1c-0.4-0.3-1-0.4-1.5-0.4
			c-0.5,0-1.1,0.1-1.6,0.3c-0.4,0.2-0.8,0.5-1,0.9c-0.3,0.4-0.5,0.9-0.6,1.4c-0.1,0.6-0.2,1.2-0.2,1.7c0,0.7,0.1,1.3,0.2,1.9
			c0.1,0.5,0.3,1,0.5,1.5c0.2,0.4,0.6,0.8,1,1C223.7,508.2,224.3,508.3,224.8,508.3L224.8,508.3z"/>
		<path class="st2" d="M234.5,509.3c-0.9,0-1.7-0.2-2.4-0.8c-0.6-0.5-1-1.4-0.9-2.2c0-0.5,0.1-1,0.4-1.5c0.2-0.4,0.6-0.8,1-1
			c0.5-0.3,1-0.5,1.6-0.6c0.7-0.2,1.4-0.3,2.1-0.3l1.9-0.1v-1.2c0-0.7-0.1-1.3-0.6-1.9c-0.5-0.5-1.1-0.7-1.8-0.6
			c-1.1,0-2.2,0.3-3.2,0.8l-0.2-0.4c-0.1-0.2-0.2-0.4-0.2-0.5c0.5-0.3,1-0.5,1.6-0.6c0.6-0.2,1.3-0.3,1.9-0.3c1-0.1,2,0.2,2.8,0.8
			c0.7,0.8,1,1.9,0.8,2.9v7.1h-0.9c0-0.1-0.1-0.5-0.1-0.9s-0.1-0.7-0.1-0.7C237.3,508.7,235.9,509.4,234.5,509.3z M234.5,508.3
			c0.8,0,1.6-0.3,2.2-0.7c0.6-0.5,1.1-1.2,1.3-2v-1.8l-1.4,0.1c-1.1,0-2.3,0.3-3.3,0.8c-0.6,0.4-1,1-0.9,1.8c0,0.6,0.2,1.1,0.6,1.5
			C233.4,508.2,234,508.4,234.5,508.3L234.5,508.3z"/>
		<path class="st2" d="M246.2,509.3c-1.3,0.1-2.5-0.5-3.3-1.5c-0.9-1.2-1.3-2.6-1.2-4.1c-0.1-1.4,0.4-2.9,1.2-4c0.8-1,2-1.6,3.3-1.5
			c0.7,0,1.4,0.2,2,0.4c0.6,0.3,1.2,0.7,1.5,1.3v-5.7l1.2-0.1v15h-1l-0.2-1.6c-0.4,0.6-0.9,1.1-1.5,1.4
			C247.5,509.2,246.9,509.3,246.2,509.3z M246.2,508.3c0.5,0,1.1-0.1,1.6-0.3c0.4-0.2,0.8-0.5,1.1-0.9c0.3-0.4,0.5-0.9,0.6-1.4
			c0.1-0.6,0.2-1.2,0.2-1.7c0-3.2-1.2-4.8-3.5-4.8c-0.5,0-1,0.1-1.5,0.4c-0.4,0.3-0.8,0.6-1,1.1c-0.2,0.5-0.4,1-0.5,1.5
			c-0.1,0.5-0.2,1.1-0.2,1.7c0,0.5,0,0.9,0.1,1.4c0.1,0.4,0.2,0.8,0.4,1.2c0.1,0.4,0.4,0.7,0.6,1c0.3,0.3,0.6,0.5,0.9,0.7
			C245.3,508.2,245.8,508.3,246.2,508.3L246.2,508.3z"/>
		<path class="st2" d="M257.5,509.3c-1.3,0.1-2.5-0.5-3.3-1.5c-0.9-1.2-1.3-2.6-1.2-4.1c-0.1-1.4,0.4-2.9,1.2-4c0.8-1,2-1.6,3.3-1.5
			c0.7,0,1.4,0.2,2,0.4c0.7,0.3,1.2,0.8,1.5,1.4v-5.7l1.2-0.1v15h-1l-0.2-1.7c-0.4,0.6-0.9,1.1-1.5,1.4
			C258.9,509.2,258.2,509.3,257.5,509.3z M257.5,508.3c0.5,0,1.1-0.1,1.6-0.3c0.4-0.2,0.8-0.5,1.1-0.9c0.3-0.4,0.5-0.9,0.6-1.4
			c0.1-0.6,0.2-1.2,0.2-1.7c0-3.2-1.2-4.8-3.5-4.8c-0.5,0-1,0.1-1.5,0.4c-0.4,0.3-0.8,0.6-1,1.1c-0.2,0.5-0.4,1-0.5,1.5
			c-0.1,0.5-0.2,1.1-0.2,1.7c0,0.5,0,0.9,0.1,1.4c0.1,0.4,0.2,0.8,0.4,1.2c0.1,0.4,0.4,0.7,0.6,1c0.3,0.3,0.6,0.5,0.9,0.7
			C256.6,508.2,257.1,508.3,257.5,508.3L257.5,508.3z"/>
		<path class="st2" d="M265.1,496.2v-1.6h1.2v1.6H265.1z M265.1,509.1v-10.7h1.2v10.7H265.1z"/>
		<path class="st2" d="M269.4,509.1v-10.7h1l0.2,1.6c0.4-0.6,0.9-1,1.5-1.4c0.6-0.3,1.4-0.5,2.1-0.5c1-0.1,2,0.3,2.7,1
			c0.7,0.9,1,2.1,0.9,3.2v6.6h-1.2v-7.2c0-0.7-0.2-1.5-0.6-2c-0.5-0.5-1.2-0.7-1.8-0.6c-0.9,0-1.7,0.2-2.4,0.7
			c-0.6,0.5-1,1.1-1.2,1.9c0,0.3,0,0.6,0,1v6.3L269.4,509.1L269.4,509.1z"/>
		<path class="st2" d="M282.2,514l-0.1-1h2.3c0.4,0,0.9,0,1.3-0.1c0.3-0.1,0.7-0.2,1-0.3c0.3-0.1,0.5-0.3,0.7-0.6
			c0.2-0.2,0.3-0.5,0.4-0.8c0.1-0.3,0.2-0.7,0.2-1c0.1-0.4,0.1-0.7,0.1-1.1c0-0.3,0-0.7,0-1.2c0,0.1,0,0.1,0,0v-0.7
			c-0.4,0.6-0.9,1.1-1.5,1.4c-0.6,0.4-1.3,0.5-2,0.5c-0.6,0-1.2-0.1-1.7-0.3c-0.5-0.2-0.9-0.5-1.3-0.9c-0.3-0.4-0.6-0.8-0.8-1.2
			c-0.2-0.4-0.4-0.9-0.5-1.4c-0.1-0.5-0.1-0.9-0.1-1.4c0-0.5,0-1.1,0.1-1.6c0.1-0.5,0.3-1,0.5-1.5c0.2-0.5,0.5-0.9,0.9-1.3
			c0.4-0.4,0.8-0.7,1.4-0.9c0.6-0.2,1.2-0.3,1.9-0.3c0.6,0,1.2,0.1,1.8,0.4c0.6,0.3,1.1,0.8,1.5,1.3l0.1-1.5h1.1v9.9
			c0,0.4,0,0.8,0,1c0,0.4-0.1,0.7-0.1,1.1c0,0.4-0.1,0.8-0.3,1.1c-0.1,0.4-0.3,0.7-0.5,1c-0.2,0.3-0.5,0.6-0.9,0.8
			c-0.4,0.2-0.9,0.4-1.3,0.5c-0.6,0.1-1.2,0.2-1.9,0.2L282.2,514L282.2,514z M284.7,508c0.4,0,0.9-0.1,1.3-0.2
			c0.4-0.1,0.7-0.3,1-0.6c0.3-0.3,0.5-0.6,0.6-0.9c0.2-0.3,0.3-0.7,0.4-1c0.1-0.4,0.1-0.7,0.1-1.1v-1.1c0-0.5-0.1-1-0.2-1.4
			c-0.1-0.4-0.3-0.9-0.6-1.2c-0.3-0.4-0.6-0.7-1.1-0.9c-0.5-0.2-1-0.3-1.6-0.3c-0.4,0-0.9,0.1-1.3,0.3c-0.4,0.2-0.7,0.4-1,0.7
			c-0.3,0.3-0.5,0.7-0.6,1.1c-0.2,0.4-0.3,0.8-0.4,1.2c-0.1,0.4-0.1,0.9-0.1,1.3c0,0.4,0,0.8,0.1,1.2c0.1,0.4,0.2,0.8,0.3,1.1
			c0.1,0.4,0.4,0.7,0.6,1c0.3,0.3,0.6,0.5,1,0.7C283.8,508,284.3,508.1,284.7,508L284.7,508z"/>
	</g>
	<g>
		<path class="st2" d="M232.8,533.8l-0.1-2.1l4.5-5.1c0.5-0.5,0.9-1.1,1.2-1.7c0.3-0.5,0.4-1,0.4-1.6c0-0.6-0.2-1.1-0.6-1.5
			c-0.4-0.4-1-0.6-1.6-0.5c-0.6,0-1.2,0.1-1.8,0.3c-0.5,0.2-1,0.5-1.4,0.8l-0.7-1.9c1.2-0.9,2.6-1.4,4.1-1.3
			c1.2-0.1,2.4,0.3,3.4,1.1c0.9,0.7,1.3,1.9,1.3,3c0,0.9-0.3,1.8-0.7,2.6c-0.6,0.9-1.2,1.8-2,2.5l-3.2,3.4h5.8l-0.2,1.9L232.8,533.8
			L232.8,533.8z"/>
		<path class="st2" d="M250.7,533.6c-1.3,0.5-2.8,0.5-4.2,0c-0.6-0.2-1.1-0.6-1.5-1.1c-0.4-0.5-0.8-1-1-1.6c-0.3-0.6-0.5-1.3-0.6-2
			c-0.2-1.5-0.2-3,0-4.5c0.1-0.7,0.3-1.4,0.6-2c0.2-0.6,0.6-1.1,1-1.6c0.4-0.5,0.9-0.8,1.5-1.1c1.3-0.5,2.8-0.5,4.1,0
			c0.6,0.2,1.1,0.6,1.5,1.1c0.4,0.5,0.8,1,1,1.6c0.3,0.6,0.5,1.3,0.6,2c0.2,1.5,0.2,3,0,4.5c-0.1,0.7-0.3,1.4-0.6,2
			c-0.2,0.6-0.6,1.1-1,1.6C251.8,533,251.3,533.3,250.7,533.6z M247.3,531.5c0.8,0.6,1.9,0.6,2.7,0c0.4-0.3,0.7-0.8,0.8-1.2
			c0.2-0.6,0.3-1.1,0.4-1.7c0.1-0.7,0.1-1.3,0.1-2c0-3.5-0.9-5.3-2.7-5.3s-2.7,1.8-2.7,5.2c0,0.7,0,1.3,0.1,2
			c0.1,0.6,0.2,1.2,0.4,1.7C246.6,530.7,246.9,531.2,247.3,531.5L247.3,531.5z"/>
		<path class="st2" d="M256.2,538.2V523h2.2l0.3,1.5c0.3-0.6,0.8-1,1.4-1.3c0.6-0.3,1.3-0.5,2-0.5c0.8,0,1.6,0.2,2.3,0.7
			c0.7,0.5,1.2,1.2,1.5,2c0.4,0.9,0.5,1.9,0.5,2.9c0.1,1.5-0.4,2.9-1.2,4.1c-0.7,1-1.9,1.6-3.2,1.6c-0.6,0-1.3-0.1-1.8-0.4
			c-0.5-0.3-1-0.6-1.4-1.1c0.1,0.9,0.1,1.5,0.1,1.6v4L256.2,538.2z M261.4,532c0.7,0,1.4-0.4,1.8-1c0.5-0.8,0.7-1.8,0.7-2.7
			c0.1-0.9-0.2-1.9-0.7-2.7c-0.4-0.6-1.1-0.9-1.9-0.9c-1.7,0-2.6,1.2-2.6,3.5c-0.1,1,0.2,2,0.7,2.9C259.9,531.7,260.6,532,261.4,532
			L261.4,532z"/>
		<path class="st2" d="M267.1,533.8l3.8-5.5l-3.6-5.3h2.9l2.4,3.7l2.4-3.7h2.9l-3.7,5.2l3.8,5.5h-2.9l-2.5-3.9l-2.6,3.9L267.1,533.8
			L267.1,533.8z"/>
	</g>
</g>
<g>
	<g>
		<path class="st2" d="M58.9,484.6c-0.7,0.1-1.4-0.2-2-0.6c-0.5-0.6-0.7-1.3-0.6-2v-12.5l1.2-0.1v12.5c0,0.5,0.1,1,0.4,1.4
			c0.3,0.3,0.7,0.4,1.1,0.4c0.5,0,1-0.1,1.5-0.2v0.9C59.9,484.5,59.4,484.6,58.9,484.6z"/>
		<path class="st2" d="M66.2,484.6c-1.3,0.1-2.6-0.5-3.5-1.5c-0.9-1.1-1.4-2.6-1.3-4c-0.1-1.4,0.4-2.9,1.3-4c0.8-1,2-1.6,3.3-1.6
			c1.2,0,2.3,0.5,3,1.4c0.8,1,1.2,2.3,1.1,3.6c0,0.1,0,0.2,0,0.4s0,0.3,0,0.4h-7.4c-0.1,1.2,0.3,2.3,1,3.3c0.6,0.8,1.6,1.2,2.6,1.2
			c0.6,0,1.2-0.1,1.8-0.2c0.6-0.2,1.1-0.4,1.6-0.7l0.2,0.9C68.7,484.3,67.5,484.7,66.2,484.6z M62.7,478.2h6.1
			c0.1-1-0.2-1.9-0.8-2.7c-0.5-0.7-1.3-1-2.1-1c-0.9,0-1.7,0.3-2.2,1C63.1,476.3,62.7,477.2,62.7,478.2L62.7,478.2z"/>
		<path class="st2" d="M73.2,484.4v-9.8h-1.8l0.1-0.8l1.7-0.1v-0.4c-0.1-1.1,0.2-2.2,0.7-3.1c0.5-0.7,1.4-1.1,2.3-1
			c0.5,0,1,0.1,1.5,0.1l-0.1,0.8c-0.6-0.1-1-0.1-1.3-0.1c-0.6-0.1-1.2,0.2-1.5,0.7c-0.3,0.8-0.5,1.7-0.4,2.5v0.3H77v0.9h-2.6v9.8
			L73.2,484.4L73.2,484.4z"/>
		<path class="st2" d="M81.8,484.6c-0.7,0.1-1.4-0.2-2-0.6c-0.5-0.6-0.7-1.3-0.6-2v-7.4h-1.5l0.1-0.7l1.4-0.1l0.3-2.5l0.8-0.1v2.5
			h3.1v0.9h-3.1v7.2c-0.1,0.5,0.1,1.1,0.4,1.5c0.4,0.3,0.8,0.4,1.3,0.4c0.5,0,1-0.1,1.5-0.2v0.9C83,484.5,82.4,484.6,81.8,484.6z"/>
	</g>
	<g>
		<path class="st2" d="M47.6,509.3c-1.4,0-2.7-0.6-3.5-1.8l-0.1,1.5h-1v-14.8l1.2-0.1v3.6c0,1.1,0,1.9,0,2.3
			c0.4-0.6,0.9-1.1,1.5-1.4c0.6-0.3,1.3-0.4,1.9-0.5c1.3-0.1,2.6,0.5,3.4,1.5c0.9,1.2,1.3,2.6,1.2,4c0,1-0.1,2-0.5,2.9
			C51.1,508.3,49.4,509.4,47.6,509.3z M47.7,508.3c0.5,0,1.1-0.1,1.6-0.4c0.4-0.2,0.8-0.6,1-1c0.2-0.5,0.4-0.9,0.5-1.5
			c0.1-0.6,0.2-1.1,0.2-1.7c0-0.5,0-0.9-0.1-1.4c-0.1-0.4-0.2-0.8-0.3-1.2c-0.1-0.4-0.3-0.7-0.6-1c-0.3-0.3-0.6-0.5-0.9-0.7
			c-0.4-0.2-0.9-0.3-1.3-0.3c-1-0.1-2,0.4-2.6,1.2c-0.7,1-1,2.2-0.9,3.5c0,0.6,0.1,1.2,0.2,1.8c0.1,0.5,0.3,1,0.6,1.4
			c0.3,0.4,0.6,0.7,1.1,0.9C46.6,508.3,47.1,508.4,47.7,508.3L47.7,508.3z"/>
		<path class="st2" d="M58.9,509.3c-0.9,0-1.8-0.2-2.6-0.7c-0.7-0.5-1.3-1.2-1.7-2c-0.4-0.9-0.6-1.9-0.6-2.8c0-0.8,0.1-1.5,0.3-2.2
			c0.2-0.6,0.6-1.2,1-1.8c0.4-0.5,1-0.9,1.6-1.2c0.6-0.3,1.4-0.4,2.1-0.4c1.8-0.1,3.5,1,4.3,2.7c0.4,0.9,0.6,1.9,0.5,2.8
			c0,1-0.2,2-0.6,2.9c-0.4,0.8-0.9,1.5-1.7,2C60.8,509.1,59.9,509.4,58.9,509.3z M59,508.3c0.7,0,1.4-0.2,2-0.6
			c0.5-0.4,0.9-1,1.2-1.6c0.3-0.7,0.4-1.5,0.4-2.3c0.1-1.2-0.3-2.3-0.9-3.3c-0.6-0.9-1.6-1.3-2.7-1.2c-0.7,0-1.4,0.2-2,0.6
			c-0.6,0.4-1,1-1.2,1.6c-0.3,0.8-0.4,1.5-0.4,2.3c-0.1,1.2,0.3,2.3,0.9,3.3C57,507.9,58,508.4,59,508.3L59,508.3z"/>
		<path class="st2" d="M66.2,509.1c0-6.3,0-9.8,0-10.7h1l0.1,2.1c0.4-0.6,0.9-1.2,1.5-1.6c0.5-0.4,1.2-0.6,1.9-0.6
			c0.3,0,0.6,0,0.9,0.1l-0.1,1c-0.2,0-0.5-0.1-0.7-0.1c-0.9,0-1.7,0.4-2.3,1.1c-0.6,0.7-0.9,1.6-0.9,2.5v6.1L66.2,509.1L66.2,509.1z
			"/>
		<path class="st2" d="M77.1,509.3c-1.3,0.1-2.5-0.5-3.3-1.5c-0.9-1.2-1.3-2.6-1.2-4.1c-0.1-1.4,0.4-2.9,1.2-4c0.8-1,2-1.6,3.2-1.5
			c0.7,0,1.4,0.2,2,0.4c0.7,0.3,1.2,0.8,1.5,1.4v-5.7l1.2-0.1v15h-1l-0.2-1.6c-0.4,0.6-0.9,1-1.5,1.3
			C78.4,509.1,77.7,509.3,77.1,509.3z M77.1,508.3c0.5,0,1.1-0.1,1.6-0.3c0.4-0.2,0.8-0.5,1.1-0.9c0.3-0.4,0.5-0.9,0.6-1.4
			c0.1-0.6,0.2-1.2,0.2-1.7c0-3.2-1.2-4.8-3.5-4.8c-0.5,0-1,0.1-1.5,0.4c-0.4,0.3-0.8,0.6-1,1.1c-0.2,0.5-0.4,1-0.5,1.5
			c-0.1,0.5-0.2,1.1-0.2,1.7c0,0.5,0,0.9,0.1,1.4c0.1,0.4,0.2,0.8,0.3,1.2c0.1,0.4,0.4,0.7,0.6,1c0.3,0.3,0.6,0.5,0.9,0.7
			C76.2,508.2,76.6,508.3,77.1,508.3L77.1,508.3z"/>
		<path class="st2" d="M88.9,509.3c-1.3,0.1-2.6-0.5-3.5-1.5c-0.9-1.1-1.4-2.6-1.3-4c-0.1-1.4,0.4-2.9,1.3-4c0.8-1,2-1.6,3.3-1.6
			c1.2,0,2.3,0.5,3,1.4c0.8,1,1.2,2.3,1.1,3.6c0,0.1,0,0.2,0,0.4s0,0.3,0,0.4h-7.4c-0.1,1.2,0.3,2.3,1,3.3c0.6,0.8,1.6,1.2,2.6,1.2
			c0.6,0,1.2-0.1,1.8-0.2c0.6-0.2,1.1-0.4,1.6-0.7l0.2,0.9C91.5,509,90.2,509.4,88.9,509.3z M85.4,502.9h6.1c0.1-1-0.2-1.9-0.8-2.7
			c-0.5-0.7-1.3-1-2.1-1c-0.9,0-1.7,0.3-2.2,1C85.8,500.9,85.4,501.9,85.4,502.9L85.4,502.9z"/>
		<path class="st2" d="M95.3,509.1c0-6.3,0-9.8,0-10.7h1l0.1,2.1c0.4-0.6,0.9-1.2,1.5-1.6c0.5-0.4,1.2-0.6,1.9-0.6
			c0.3,0,0.6,0,0.9,0.1l-0.1,1c-0.2,0-0.5-0.1-0.7-0.1c-0.9,0-1.7,0.4-2.3,1.1c-0.6,0.7-0.9,1.6-0.9,2.5v6.1L95.3,509.1L95.3,509.1z
			"/>
	</g>
	<g>
		<path class="st2" d="M59.3,533.8v-11.9c-0.1,0.1-0.5,0.2-1.3,0.6c-0.7,0.3-1.2,0.5-1.3,0.5v-2l1.5-0.7c0.8-0.4,1.3-0.7,1.4-0.7
			h2.2v14.2L59.3,533.8L59.3,533.8z"/>
		<path class="st2" d="M64.4,538.2V523h2.2l0.3,1.5c0.3-0.6,0.8-1,1.4-1.3c0.6-0.3,1.3-0.5,1.9-0.5c0.8,0,1.6,0.2,2.3,0.7
			c0.7,0.5,1.2,1.2,1.5,2c0.4,0.9,0.5,1.9,0.5,2.9c0.1,1.5-0.4,2.9-1.2,4.1c-0.8,1-2,1.7-3.3,1.6c-0.6,0-1.3-0.1-1.8-0.4
			c-0.5-0.3-1-0.6-1.4-1.1c0.1,0.9,0.1,1.5,0.1,1.6v4L64.4,538.2z M69.5,532c0.7,0,1.4-0.4,1.8-1c0.5-0.8,0.7-1.8,0.7-2.7
			c0.1-0.9-0.2-1.9-0.7-2.7c-0.4-0.6-1.1-0.9-1.8-0.9c-1.7,0-2.6,1.2-2.6,3.5c-0.1,1,0.2,2,0.7,2.9C68,531.7,68.8,532,69.5,532z"/>
		<path class="st2" d="M75.2,533.8l3.8-5.5l-3.6-5.3h2.9l2.4,3.7l2.4-3.7H86l-3.7,5.2l3.8,5.5h-2.9l-2.5-3.9l-2.6,3.9L75.2,533.8
			L75.2,533.8z"/>
	</g>
</g>
<g>
	<g>
		<path class="st2" d="M1103.6,484.4c0-6.3,0-9.8,0-10.7h1l0.1,2.1c0.4-0.6,0.9-1.2,1.5-1.6c0.5-0.4,1.2-0.6,1.9-0.6
			c0.3,0,0.6,0,0.9,0.1l-0.1,1c-0.2,0-0.5-0.1-0.7-0.1c-0.9,0-1.7,0.4-2.3,1.1c-0.6,0.7-0.9,1.6-0.9,2.5v6.1L1103.6,484.4
			L1103.6,484.4z"/>
		<path class="st2" d="M1110.7,471.5v-1.6h1.2v1.6H1110.7z M1110.7,484.4v-10.7h1.2v10.7H1110.7z"/>
		<path class="st2" d="M1116.6,489.4l-0.2-1.1h2.3c0.4,0,0.9,0,1.3-0.1c0.3-0.1,0.7-0.2,1-0.3c0.3-0.1,0.5-0.3,0.7-0.6
			c0.2-0.2,0.3-0.5,0.4-0.8c0.1-0.3,0.2-0.7,0.2-1c0.1-0.4,0.1-0.7,0.1-1.1c0-0.3,0-0.7,0-1.2c0,0.1,0,0.1,0,0v-0.7
			c-0.4,0.6-0.9,1.1-1.5,1.4c-0.6,0.4-1.3,0.5-2.1,0.5c-0.6,0-1.2-0.1-1.7-0.3c-0.5-0.2-0.9-0.5-1.3-0.9c-0.3-0.4-0.6-0.8-0.8-1.2
			c-0.2-0.4-0.4-0.9-0.5-1.4c-0.1-0.5-0.1-0.9-0.2-1.4c0-0.5,0-1.1,0.1-1.6c0.1-0.5,0.2-1,0.4-1.5c0.2-0.5,0.5-0.9,0.9-1.3
			c0.4-0.4,0.8-0.7,1.4-0.9c0.6-0.2,1.2-0.3,1.9-0.3c0.6,0,1.2,0.1,1.8,0.4c0.6,0.3,1.1,0.8,1.5,1.3l0.1-1.5h1.1v9.9
			c0,0.4,0,0.8,0,1c0,0.4-0.1,0.7-0.1,1.1c0,0.4-0.1,0.8-0.3,1.1c-0.1,0.4-0.3,0.7-0.6,1c-0.2,0.3-0.5,0.6-0.9,0.8
			c-0.4,0.2-0.9,0.4-1.3,0.5c-0.6,0.1-1.2,0.2-1.8,0.2L1116.6,489.4L1116.6,489.4z M1119,483.4c0.4,0,0.9-0.1,1.3-0.2
			c0.4-0.1,0.7-0.3,1-0.6c0.3-0.3,0.5-0.6,0.6-0.9c0.2-0.3,0.3-0.7,0.4-1c0.1-0.4,0.1-0.7,0.1-1.1v-1.1c0-0.5-0.1-1-0.2-1.4
			c-0.1-0.4-0.3-0.9-0.6-1.2c-0.3-0.4-0.6-0.7-1.1-0.9c-0.5-0.2-1-0.3-1.6-0.3c-0.4,0-0.9,0.1-1.3,0.3c-0.4,0.2-0.7,0.4-1,0.7
			c-0.3,0.3-0.5,0.7-0.6,1.1c-0.2,0.4-0.3,0.8-0.4,1.2c-0.1,0.4-0.1,0.9-0.1,1.3c0,0.4,0,0.8,0.1,1.2c0.1,0.4,0.2,0.8,0.3,1.1
			c0.1,0.4,0.4,0.7,0.6,1c0.3,0.3,0.6,0.5,1,0.7C1118.1,483.3,1118.6,483.4,1119,483.4L1119,483.4z"/>
		<path class="st2" d="M1126.4,484.4v-14.9l1.2-0.1v5.4c0,0,0,0.1,0,0.1c0,0,0,0.1,0,0.1v0.3c0.9-1.2,2.3-1.9,3.8-1.8
			c2.3,0,3.5,1.4,3.5,4.2v6.7h-1.2v-6.5c0.1-0.9-0.1-1.8-0.6-2.6c-0.5-0.6-1.2-0.9-2-0.8c-0.8,0-1.7,0.2-2.3,0.7
			c-0.6,0.5-1,1.1-1.1,1.9c0,0.3,0,0.6,0,1.2v6.1L1126.4,484.4L1126.4,484.4z"/>
		<path class="st2" d="M1140.6,484.6c-0.7,0.1-1.4-0.2-2-0.6c-0.5-0.6-0.7-1.3-0.6-2v-7.4h-1.5l0.1-0.7l1.4-0.1l0.3-2.5l0.8-0.1v2.5
			h3.1v0.9h-3.1v7.2c-0.1,0.5,0.1,1.1,0.4,1.5c0.4,0.3,0.8,0.4,1.3,0.4c0.5,0,1-0.1,1.5-0.2v0.9
			C1141.8,484.5,1141.2,484.6,1140.6,484.6z"/>
	</g>
	<g>
		<path class="st2" d="M1098.7,509.3c-1.4,0-2.7-0.6-3.5-1.8l-0.1,1.5h-1v-14.8l1.2-0.1v3.6c0,1.1,0,1.9,0,2.3
			c0.4-0.6,0.9-1.1,1.5-1.4c0.6-0.3,1.3-0.4,1.9-0.5c1.3-0.1,2.6,0.5,3.4,1.5c0.9,1.2,1.3,2.6,1.2,4c0,1-0.1,2-0.5,2.9
			C1102.2,508.3,1100.6,509.4,1098.7,509.3z M1098.8,508.3c0.5,0,1.1-0.1,1.6-0.4c0.4-0.2,0.8-0.6,1-1c0.2-0.5,0.4-0.9,0.5-1.5
			c0.1-0.6,0.2-1.1,0.2-1.7c0-0.5,0-0.9-0.1-1.4c-0.1-0.4-0.2-0.8-0.3-1.2c-0.1-0.4-0.3-0.7-0.6-1c-0.3-0.3-0.6-0.5-0.9-0.7
			c-0.4-0.2-0.9-0.3-1.3-0.3c-1-0.1-2,0.4-2.6,1.2c-0.7,1-1,2.2-0.9,3.5c0,0.6,0.1,1.2,0.2,1.8c0.1,0.5,0.3,1,0.6,1.4
			c0.3,0.4,0.6,0.7,1.1,0.9C1097.7,508.3,1098.3,508.4,1098.8,508.3L1098.8,508.3z"/>
		<path class="st2" d="M1110.1,509.3c-0.9,0-1.8-0.2-2.6-0.7c-0.7-0.5-1.3-1.2-1.7-2c-0.4-0.9-0.6-1.9-0.6-2.8
			c0-0.8,0.1-1.5,0.3-2.2c0.2-0.6,0.6-1.2,1-1.8c0.4-0.5,1-0.9,1.6-1.2c0.6-0.3,1.4-0.4,2.1-0.4c1.8-0.1,3.5,1,4.3,2.7
			c0.4,0.9,0.6,1.9,0.6,2.8c0,1-0.2,2-0.6,2.9c-0.4,0.8-0.9,1.5-1.7,2C1111.9,509.1,1111,509.4,1110.1,509.3z M1110.2,508.3
			c0.7,0,1.4-0.2,2-0.6c0.5-0.4,0.9-1,1.2-1.6c0.3-0.7,0.4-1.5,0.4-2.3c0.1-1.2-0.3-2.3-0.9-3.3c-0.6-0.9-1.6-1.3-2.7-1.3
			c-0.7,0-1.4,0.2-2,0.6c-0.6,0.4-1,1-1.2,1.6c-0.3,0.8-0.4,1.5-0.4,2.3c-0.1,1.2,0.3,2.3,0.9,3.3
			C1108.1,507.9,1109.1,508.4,1110.2,508.3L1110.2,508.3z"/>
		<path class="st2" d="M1117.4,509.1c0-6.3,0-9.8,0-10.7h1l0.1,2.1c0.4-0.6,0.9-1.2,1.5-1.6c0.5-0.4,1.2-0.6,1.9-0.6
			c0.3,0,0.6,0,0.9,0.1l-0.1,1c-0.2,0-0.5-0.1-0.7-0.1c-0.9,0-1.7,0.4-2.3,1.1c-0.6,0.7-0.9,1.6-0.9,2.5v6.1L1117.4,509.1
			L1117.4,509.1z"/>
		<path class="st2" d="M1128.2,509.3c-1.3,0.1-2.5-0.5-3.3-1.5c-0.9-1.2-1.3-2.6-1.2-4.1c-0.1-1.4,0.4-2.9,1.2-4
			c0.8-1,2-1.6,3.3-1.5c0.7,0,1.4,0.2,2,0.4c0.6,0.3,1.2,0.7,1.5,1.3v-5.7l1.2-0.1v15h-1l-0.2-1.6c-0.4,0.6-0.9,1.1-1.5,1.4
			C1129.5,509.2,1128.9,509.3,1128.2,509.3z M1128.2,508.3c0.5,0,1.1-0.1,1.6-0.3c0.4-0.2,0.8-0.5,1.1-0.9c0.3-0.4,0.5-0.9,0.6-1.4
			c0.1-0.6,0.2-1.2,0.2-1.7c0-3.2-1.2-4.8-3.5-4.8c-0.5,0-1,0.1-1.5,0.4c-0.4,0.3-0.8,0.6-1,1.1c-0.2,0.5-0.4,1-0.5,1.5
			c-0.1,0.5-0.2,1.1-0.2,1.7c0,0.5,0,0.9,0.1,1.4c0.1,0.4,0.2,0.8,0.3,1.2c0.1,0.4,0.4,0.7,0.6,1c0.3,0.3,0.6,0.5,0.9,0.7
			C1127.3,508.2,1127.7,508.3,1128.2,508.3L1128.2,508.3z"/>
		<path class="st2" d="M1140,509.3c-1.3,0.1-2.6-0.5-3.5-1.5c-0.9-1.1-1.4-2.6-1.3-4c-0.1-1.4,0.4-2.9,1.3-4c0.8-1,2-1.6,3.3-1.6
			c1.2,0,2.3,0.5,3,1.4c0.8,1,1.2,2.3,1.1,3.6c0,0.1,0,0.2,0,0.4s0,0.3,0,0.4h-7.4c-0.1,1.2,0.3,2.3,1,3.3c0.6,0.8,1.6,1.2,2.6,1.2
			c0.6,0,1.2-0.1,1.8-0.2c0.6-0.2,1.1-0.4,1.6-0.7l0.2,0.9C1142.6,509,1141.3,509.4,1140,509.3z M1136.5,502.9h6.1
			c0.1-1-0.2-1.9-0.8-2.7c-0.5-0.7-1.3-1-2.1-1c-0.9,0-1.7,0.3-2.2,1C1136.9,501,1136.6,501.9,1136.5,502.9L1136.5,502.9z"/>
		<path class="st2" d="M1146.4,509.1c0-6.3,0-9.8,0-10.7h1l0.1,2.1c0.4-0.6,0.9-1.2,1.5-1.6c0.5-0.4,1.2-0.6,1.9-0.6
			c0.3,0,0.6,0,0.9,0.1l-0.1,1c-0.2,0-0.5-0.1-0.7-0.1c-0.9,0-1.7,0.4-2.3,1.1c-0.6,0.7-0.9,1.6-0.9,2.5v6.1L1146.4,509.1
			L1146.4,509.1z"/>
	</g>
	<g>
		<path class="st2" d="M1110.5,533.8v-11.9c-0.1,0.1-0.5,0.2-1.3,0.6c-0.7,0.3-1.2,0.5-1.3,0.5v-2l1.5-0.7c0.8-0.4,1.3-0.7,1.4-0.7
			h2.2v14.2L1110.5,533.8L1110.5,533.8z"/>
		<path class="st2" d="M1115.5,538.2V523h2.2l0.3,1.5c0.3-0.6,0.8-1,1.4-1.3c0.6-0.3,1.3-0.5,1.9-0.5c0.8,0,1.6,0.2,2.3,0.7
			c0.7,0.5,1.2,1.2,1.5,2c0.4,0.9,0.5,1.9,0.5,2.9c0.1,1.5-0.4,2.9-1.2,4.1c-0.8,1-2,1.6-3.3,1.6c-0.6,0-1.3-0.1-1.8-0.4
			c-0.5-0.3-1-0.6-1.4-1.1c0.1,0.9,0.1,1.5,0.1,1.6v4L1115.5,538.2z M1120.7,532c0.7,0,1.4-0.4,1.8-1c0.5-0.8,0.7-1.8,0.7-2.7
			c0.1-0.9-0.2-1.9-0.7-2.7c-0.4-0.6-1.1-0.9-1.8-0.9c-1.7,0-2.5,1.2-2.6,3.5c-0.1,1,0.2,2,0.7,2.9
			C1119.2,531.7,1119.9,532,1120.7,532L1120.7,532z"/>
		<path class="st2" d="M1126.4,533.8l3.8-5.5l-3.6-5.2h2.9l2.4,3.7l2.4-3.7h2.8l-3.7,5.2l3.8,5.5h-2.9l-2.5-3.9l-2.6,3.9H1126.4
			L1126.4,533.8z"/>
	</g>
</g>
<g>
	<g>
		<path class="st2" d="M929.3,484.4c0-6.3,0-9.8,0-10.7h1l0.1,2.1c0.4-0.6,0.9-1.2,1.5-1.6c0.5-0.4,1.2-0.6,1.9-0.6
			c0.3,0,0.6,0,0.9,0.1l-0.1,1c-0.2,0-0.5-0.1-0.7-0.1c-0.9,0-1.7,0.4-2.3,1.1c-0.6,0.7-0.9,1.6-0.9,2.5v6.1L929.3,484.4
			L929.3,484.4z"/>
		<path class="st2" d="M936.4,471.5v-1.6h1.2v1.6H936.4z M936.4,484.4v-10.7h1.2v10.7H936.4z"/>
		<path class="st2" d="M942.2,489.4l-0.2-1.1h2.3c0.4,0,0.9,0,1.3-0.1c0.3-0.1,0.7-0.2,1-0.3c0.3-0.1,0.5-0.3,0.7-0.6
			c0.2-0.2,0.3-0.5,0.4-0.8c0.1-0.3,0.2-0.7,0.2-1c0.1-0.4,0.1-0.7,0.1-1.1c0-0.3,0-0.7,0-1.2c0,0.1,0,0.1,0,0v-0.7
			c-0.4,0.6-0.9,1.1-1.5,1.4c-0.6,0.4-1.3,0.5-2,0.5c-0.6,0-1.2-0.1-1.7-0.3c-0.5-0.2-0.9-0.5-1.3-0.9c-0.3-0.4-0.6-0.8-0.8-1.2
			c-0.2-0.4-0.4-0.9-0.5-1.4c-0.1-0.5-0.1-0.9-0.2-1.4c0-0.5,0-1.1,0.1-1.6c0.1-0.5,0.3-1,0.5-1.5c0.2-0.5,0.5-0.9,0.9-1.3
			c0.4-0.4,0.8-0.7,1.4-0.9c0.6-0.2,1.2-0.3,1.9-0.3c0.6,0,1.2,0.1,1.8,0.4c0.6,0.3,1.1,0.8,1.5,1.3l0.1-1.5h1.1v9.9
			c0,0.4,0,0.8,0,1c0,0.4-0.1,0.7-0.1,1.1c0,0.4-0.1,0.8-0.3,1.1c-0.1,0.4-0.3,0.7-0.5,1c-0.2,0.3-0.5,0.6-0.9,0.8
			c-0.4,0.2-0.9,0.4-1.3,0.5c-0.6,0.1-1.2,0.2-1.8,0.2H942.2L942.2,489.4z M944.7,483.4c0.4,0,0.9-0.1,1.3-0.2
			c0.4-0.1,0.7-0.3,1-0.6c0.3-0.3,0.5-0.6,0.6-0.9c0.2-0.3,0.3-0.7,0.4-1c0.1-0.4,0.1-0.7,0.1-1.1v-1.1c0-0.5-0.1-1-0.2-1.4
			c-0.1-0.4-0.3-0.9-0.6-1.2c-0.3-0.4-0.6-0.7-1.1-0.9c-0.5-0.2-1-0.3-1.6-0.3c-0.4,0-0.9,0.1-1.3,0.3c-0.4,0.2-0.7,0.4-1,0.7
			c-0.3,0.3-0.5,0.7-0.6,1.1c-0.2,0.4-0.3,0.8-0.4,1.2c-0.1,0.4-0.1,0.9-0.1,1.3c0,0.4,0,0.8,0.1,1.2c0.1,0.4,0.2,0.8,0.3,1.1
			c0.1,0.4,0.4,0.7,0.6,1c0.3,0.3,0.6,0.5,1,0.7C943.8,483.3,944.3,483.4,944.7,483.4L944.7,483.4z"/>
		<path class="st2" d="M952.1,484.4v-14.9l1.2-0.1v5.4c0,0,0,0.1,0,0.1c0,0,0,0.1,0,0.1v0.3c0.9-1.2,2.3-1.9,3.8-1.8
			c2.3,0,3.5,1.4,3.5,4.2v6.7h-1.2v-6.5c0.1-0.9-0.1-1.8-0.6-2.6c-0.5-0.6-1.2-0.9-2-0.8c-0.8,0-1.7,0.2-2.3,0.7
			c-0.6,0.5-1,1.1-1.1,1.9c0,0.3,0,0.6,0,1.2v6.1L952.1,484.4L952.1,484.4z"/>
		<path class="st2" d="M966.3,484.6c-0.7,0.1-1.4-0.2-2-0.6c-0.5-0.6-0.7-1.3-0.6-2v-7.4h-1.5l0.1-0.7l1.5-0.1l0.3-2.5l0.8-0.1v2.5
			h3.1v0.9h-3.1v7.2c-0.1,0.5,0.1,1.1,0.4,1.5c0.4,0.3,0.8,0.4,1.3,0.4c0.5,0,1-0.1,1.5-0.2v0.9
			C967.5,484.5,966.9,484.6,966.3,484.6z"/>
	</g>
	<g>
		<path class="st2" d="M914.5,513.8v-15.5h1.1l0.1,1.5c0.4-0.5,0.9-1,1.5-1.3c0.6-0.3,1.2-0.4,1.8-0.4c1.3-0.1,2.6,0.5,3.4,1.5
			c0.8,1.2,1.2,2.7,1.1,4.2c0.1,1.4-0.4,2.8-1.2,3.9c-0.8,1-2,1.6-3.2,1.5c-0.7,0-1.4-0.2-2-0.5c-0.6-0.3-1.1-0.8-1.5-1.3
			c0,0.8,0,1.6,0,2.4v3.9L914.5,513.8z M919.1,508.3c0.5,0,1-0.1,1.5-0.4c0.4-0.3,0.8-0.6,1-1.1c0.3-0.5,0.4-0.9,0.6-1.5
			c0.1-0.5,0.2-1.1,0.2-1.6c0-0.6-0.1-1.1-0.2-1.6c-0.1-0.5-0.3-1-0.6-1.5c-0.2-0.4-0.6-0.8-1-1.1c-0.4-0.3-1-0.4-1.5-0.4
			c-0.5,0-1.1,0.1-1.6,0.3c-0.4,0.2-0.8,0.5-1,0.9c-0.3,0.4-0.5,0.9-0.6,1.4c-0.1,0.6-0.2,1.2-0.2,1.7c0,0.7,0.1,1.3,0.2,1.9
			c0.1,0.5,0.3,1,0.5,1.5c0.2,0.4,0.6,0.8,1,1C918,508.2,918.5,508.3,919.1,508.3L919.1,508.3z"/>
		<path class="st2" d="M928.7,509.3c-0.9,0-1.7-0.2-2.4-0.8c-0.6-0.5-1-1.4-0.9-2.2c0-0.5,0.1-1,0.4-1.5c0.2-0.4,0.6-0.8,1-1
			c0.5-0.3,1-0.5,1.6-0.6c0.7-0.2,1.4-0.3,2.1-0.3l1.9-0.1v-1.2c0-0.7-0.1-1.3-0.6-1.9c-0.5-0.5-1.1-0.7-1.8-0.6
			c-1.1,0-2.2,0.3-3.2,0.8l-0.2-0.4c-0.1-0.2-0.2-0.4-0.2-0.5c0.5-0.3,1-0.5,1.6-0.6c0.6-0.2,1.3-0.3,1.9-0.3c1-0.1,2,0.2,2.8,0.8
			c0.7,0.8,1,1.9,0.8,2.9v7.1h-1c0-0.1-0.1-0.5-0.1-0.9s-0.1-0.7-0.1-0.7C931.5,508.7,930.1,509.4,928.7,509.3z M928.7,508.3
			c0.8,0,1.6-0.3,2.2-0.7c0.6-0.5,1.1-1.2,1.3-2v-1.8l-1.4,0.1c-1.1,0-2.3,0.3-3.3,0.8c-0.6,0.4-1,1-0.9,1.8c0,0.6,0.2,1.1,0.6,1.5
			C927.6,508.2,928.2,508.4,928.7,508.3L928.7,508.3z"/>
		<path class="st2" d="M940.4,509.3c-1.3,0.1-2.5-0.5-3.3-1.5c-0.9-1.2-1.3-2.6-1.2-4.1c-0.1-1.4,0.4-2.9,1.2-4c0.8-1,2-1.6,3.3-1.5
			c0.7,0,1.4,0.2,2,0.4c0.6,0.3,1.2,0.7,1.5,1.3v-5.7l1.2-0.1v15h-1l-0.2-1.6c-0.4,0.6-0.9,1.1-1.5,1.4
			C941.8,509.2,941.1,509.3,940.4,509.3z M940.4,508.3c0.5,0,1.1-0.1,1.6-0.3c0.4-0.2,0.8-0.5,1.1-0.9c0.3-0.4,0.5-0.9,0.6-1.4
			c0.1-0.6,0.2-1.2,0.2-1.7c0-3.2-1.2-4.8-3.5-4.8c-0.5,0-1,0.1-1.5,0.4c-0.4,0.3-0.8,0.6-1,1.1c-0.2,0.5-0.4,1-0.5,1.5
			c-0.1,0.5-0.2,1.1-0.2,1.7c0,0.5,0,0.9,0.1,1.4c0.1,0.4,0.2,0.8,0.3,1.2c0.1,0.4,0.4,0.7,0.6,1c0.3,0.3,0.6,0.5,0.9,0.7
			C939.6,508.2,940,508.3,940.4,508.3L940.4,508.3z"/>
		<path class="st2" d="M951.7,509.3c-1.3,0.1-2.5-0.5-3.3-1.5c-0.9-1.2-1.3-2.6-1.2-4.1c-0.1-1.4,0.4-2.9,1.2-4c0.8-1,2-1.6,3.3-1.5
			c0.7,0,1.4,0.2,2,0.4c0.6,0.3,1.2,0.7,1.5,1.3v-5.7l1.2-0.1v15h-1l-0.2-1.6c-0.4,0.6-0.9,1.1-1.5,1.4
			C953.1,509.2,952.4,509.3,951.7,509.3z M951.7,508.3c0.5,0,1.1-0.1,1.6-0.3c0.4-0.2,0.8-0.5,1.1-0.9c0.3-0.4,0.5-0.9,0.6-1.4
			c0.1-0.6,0.2-1.2,0.2-1.7c0-3.2-1.2-4.8-3.5-4.8c-0.5,0-1,0.1-1.5,0.4c-0.4,0.3-0.8,0.6-1,1.1c-0.2,0.5-0.4,1-0.5,1.5
			c-0.1,0.5-0.2,1.1-0.2,1.7c0,0.5,0,0.9,0.1,1.4c0.1,0.4,0.2,0.8,0.3,1.2c0.1,0.4,0.4,0.7,0.6,1c0.3,0.3,0.6,0.5,0.9,0.7
			C950.9,508.2,951.3,508.3,951.7,508.3L951.7,508.3z"/>
		<path class="st2" d="M959.4,496.2v-1.6h1.2v1.6H959.4z M959.4,509.1v-10.7h1.2v10.7H959.4z"/>
		<path class="st2" d="M963.6,509.1v-10.7h1l0.2,1.6c0.4-0.6,0.9-1,1.5-1.4c0.6-0.3,1.4-0.5,2.1-0.5c1-0.1,2,0.3,2.7,1
			c0.7,0.9,1,2.1,0.9,3.2v6.6h-1.2v-7.2c0-0.7-0.2-1.5-0.6-2c-0.5-0.5-1.2-0.7-1.8-0.6c-0.9,0-1.7,0.2-2.4,0.8
			c-0.6,0.5-1,1.1-1.2,1.9c0,0.3,0,0.6,0,1v6.3L963.6,509.1L963.6,509.1z"/>
		<path class="st2" d="M976.5,514l-0.2-1h2.3c0.4,0,0.9,0,1.3-0.1c0.3-0.1,0.7-0.2,1-0.3c0.3-0.1,0.5-0.3,0.7-0.6
			c0.2-0.2,0.3-0.5,0.4-0.8c0.1-0.3,0.2-0.7,0.2-1c0.1-0.4,0.1-0.7,0.1-1.1c0-0.3,0-0.7,0-1.2c0,0.1,0,0.1,0,0v-0.7
			c-0.4,0.6-0.9,1.1-1.5,1.4c-0.6,0.4-1.3,0.5-2,0.5c-0.6,0-1.2-0.1-1.7-0.3c-0.5-0.2-0.9-0.5-1.3-0.9c-0.3-0.4-0.6-0.8-0.8-1.2
			c-0.2-0.4-0.4-0.9-0.5-1.4c-0.1-0.5-0.1-0.9-0.2-1.4c0-0.5,0-1.1,0.1-1.6c0.1-0.5,0.3-1,0.5-1.5c0.2-0.5,0.5-0.9,0.9-1.3
			c0.4-0.4,0.8-0.7,1.4-0.9c0.6-0.2,1.2-0.3,1.9-0.3c0.6,0,1.2,0.1,1.8,0.4c0.6,0.3,1.1,0.8,1.5,1.3l0.1-1.5h1.1v9.9
			c0,0.4,0,0.8,0,1c0,0.4-0.1,0.7-0.1,1.1c0,0.4-0.1,0.8-0.3,1.1c-0.1,0.4-0.3,0.7-0.5,1c-0.2,0.3-0.5,0.6-0.9,0.8
			c-0.4,0.2-0.9,0.4-1.3,0.5c-0.6,0.1-1.2,0.2-1.8,0.2L976.5,514L976.5,514z M979,508c0.4,0,0.9-0.1,1.3-0.2c0.4-0.1,0.7-0.3,1-0.6
			c0.3-0.3,0.5-0.6,0.6-0.9c0.2-0.3,0.3-0.7,0.4-1c0.1-0.4,0.1-0.7,0.1-1.1v-1.1c0-0.5-0.1-1-0.2-1.4c-0.1-0.4-0.3-0.9-0.6-1.2
			c-0.3-0.4-0.6-0.7-1.1-0.9c-0.5-0.2-1-0.3-1.6-0.3c-0.4,0-0.9,0.1-1.3,0.3c-0.4,0.2-0.7,0.4-1,0.7c-0.3,0.3-0.5,0.7-0.6,1.1
			c-0.2,0.4-0.3,0.8-0.4,1.2c-0.1,0.4-0.1,0.9-0.1,1.3c0,0.4,0,0.8,0.1,1.2c0.1,0.4,0.2,0.8,0.3,1.1c0.1,0.4,0.4,0.7,0.6,1
			c0.3,0.3,0.6,0.5,1,0.7C978.1,508,978.5,508.1,979,508L979,508z"/>
	</g>
	<g>
		<path class="st2" d="M927.1,533.8l-0.1-2.1l4.5-5.1c0.5-0.5,0.9-1.1,1.2-1.7c0.3-0.5,0.4-1,0.4-1.6c0-0.6-0.2-1.1-0.6-1.5
			c-0.4-0.4-1-0.6-1.6-0.5c-0.6,0-1.2,0.1-1.8,0.3c-0.5,0.2-1,0.5-1.5,0.8l-0.7-1.9c1.2-0.9,2.6-1.4,4.1-1.3
			c1.2-0.1,2.4,0.3,3.4,1.1c0.9,0.7,1.3,1.9,1.3,3c0,0.9-0.3,1.8-0.7,2.6c-0.6,0.9-1.2,1.8-2,2.5l-3.2,3.4h5.8l-0.2,1.9L927.1,533.8
			L927.1,533.8z"/>
		<path class="st2" d="M945,533.6c-1.3,0.5-2.8,0.5-4.2,0c-0.6-0.2-1.1-0.6-1.5-1.1c-0.4-0.5-0.8-1-1-1.6c-0.3-0.6-0.5-1.3-0.6-2
			c-0.2-1.5-0.2-3,0-4.5c0.1-0.7,0.3-1.4,0.6-2c0.2-0.6,0.6-1.1,1-1.6c0.4-0.5,0.9-0.8,1.5-1.1c1.3-0.5,2.8-0.5,4.1,0
			c0.6,0.2,1.1,0.6,1.5,1.1c0.4,0.5,0.8,1,1,1.6c0.3,0.6,0.5,1.3,0.6,2c0.2,1.5,0.2,3,0,4.5c-0.1,0.7-0.3,1.4-0.6,2
			c-0.2,0.6-0.6,1.1-1,1.6C946.1,533,945.6,533.3,945,533.6z M941.6,531.5c0.8,0.6,1.9,0.6,2.7,0c0.4-0.3,0.7-0.8,0.8-1.2
			c0.2-0.6,0.3-1.1,0.4-1.7c0.1-0.7,0.1-1.3,0.1-2c0-3.5-0.9-5.3-2.7-5.3c-1.8,0-2.7,1.8-2.7,5.2c0,0.7,0,1.3,0.1,2
			c0.1,0.6,0.2,1.2,0.4,1.7C940.9,530.7,941.2,531.2,941.6,531.5L941.6,531.5z"/>
		<path class="st2" d="M950.5,538.2V523h2.2l0.3,1.5c0.3-0.6,0.8-1,1.4-1.3c0.6-0.3,1.3-0.5,2-0.5c0.8,0,1.6,0.2,2.3,0.7
			c0.7,0.5,1.2,1.2,1.5,2c0.4,0.9,0.5,1.9,0.5,2.9c0.1,1.5-0.4,2.9-1.2,4.1c-0.8,1-2,1.7-3.3,1.6c-0.6,0-1.3-0.1-1.8-0.4
			c-0.5-0.3-1-0.6-1.4-1.1c0.1,0.9,0.1,1.5,0.1,1.6v4L950.5,538.2z M955.7,532c0.7,0,1.4-0.4,1.8-1c0.5-0.8,0.7-1.8,0.7-2.7
			c0.1-0.9-0.2-1.9-0.7-2.7c-0.4-0.6-1.1-0.9-1.8-0.9c-1.7,0-2.5,1.2-2.6,3.5c-0.1,1,0.2,2,0.7,2.9C954.1,531.7,954.9,532,955.7,532
			L955.7,532z"/>
		<path class="st2" d="M961.4,533.8l3.8-5.5l-3.6-5.3h2.9l2.4,3.7l2.5-3.7h2.8l-3.7,5.2l3.8,5.5h-2.9l-2.5-3.9l-2.6,3.9L961.4,533.8
			L961.4,533.8z"/>
	</g>
</g>
<g>
	<path class="st2" d="M174.1,826.9c-2.1-6.7-3.4-10.9-3.9-12.6c-0.3,1-0.6,2.1-1,3.2c-0.4,1.2-0.7,2.2-1,3l-1.1,3.2l-1,3h-2.5
		l-4.3-15h2.4l3.3,12.3c0.4-1.5,1.8-5.6,3.9-12.3h2.6c2.2,6.9,3.4,11,3.8,12.2l3.2-12.2h2.3l-4.3,15H174.1L174.1,826.9z"/>
	<path class="st2" d="M185.8,806.4v2.7h-2.3v-2.7H185.8z M185.8,811.9v15h-2.3v-15H185.8z"/>
	<path class="st2" d="M200.4,824.7c-0.5,0.8-1.2,1.4-2,1.8c-2.5,1.3-5.6,0.7-7.4-1.4c-1.2-1.7-1.8-3.7-1.7-5.8c-0.1-2,0.5-4,1.7-5.6
		c1.1-1.4,2.8-2.2,4.6-2.1c1,0,1.9,0.2,2.8,0.7c0.8,0.4,1.5,1,2,1.7v-1.3V806l2.3-0.1v21h-1.9L200.4,824.7z M195.9,825.2
		c1.3,0.1,2.5-0.5,3.4-1.5c0.8-1.2,1.2-2.7,1.1-4.1c0.1-1.6-0.3-3.2-1.1-4.6c-0.8-1.1-2.1-1.7-3.4-1.5c-0.7,0-1.3,0.2-1.9,0.5
		c-0.5,0.3-1,0.7-1.3,1.3c-0.3,0.6-0.6,1.2-0.8,1.8c-0.2,0.8-0.3,1.5-0.2,2.3c0,1,0.1,2,0.4,3c0.3,0.8,0.7,1.5,1.4,2
		C194.2,825,195.1,825.2,195.9,825.2z"/>
	<path class="st2" d="M211.4,827.1c-1.2,0.1-2.3-0.3-3.1-1.1c-0.7-1-1.1-2.2-1-3.5v-9h-2.2l0.1-1.5l2.1-0.2l0.8-3.4l1.5,0v3.5h4.2
		v1.7h-4.2v8.6c-0.1,0.8,0.1,1.7,0.5,2.4c0.4,0.5,1.1,0.8,1.8,0.7c0.7,0,1.3-0.1,2-0.2l0.1,1.8C213.1,827,212.3,827.1,211.4,827.1z"
		/>
	<path class="st2" d="M226.4,826.9v-9.1c0.1-1.1-0.2-2.3-0.7-3.3c-0.6-0.7-1.6-1.1-2.5-1c-1,0-2.1,0.3-2.9,0.9
		c-0.8,0.5-1.3,1.3-1.5,2.2c-0.1,0.8-0.1,1.5-0.1,2.3v8h-2.3V806l2.3-0.1v6.1c0,0.5,0,1.2-0.1,1.9c1.2-1.6,3.1-2.4,5.1-2.4
		c3.3,0,5,2,5,5.9v9.4H226.4L226.4,826.9z"/>
	<path class="st2" d="M245.3,817h5.3v1.9h-5.4v5.9h-1.9v-5.8H238V817h5.4v-5.8h1.9L245.3,817L245.3,817z"/>
	<path class="st2" d="M260.9,833.4v-21.5h2l0.2,2c1.1-1.5,2.9-2.3,4.7-2.3c1.2,0,2.4,0.3,3.5,1c1,0.7,1.7,1.7,2.1,2.8
		c0.5,1.3,0.7,2.7,0.7,4.1c0,1.4-0.2,2.7-0.7,4c-0.4,1.1-1.2,2.1-2.2,2.8c-1,0.7-2.1,1-3.3,1c-0.9,0-1.9-0.2-2.7-0.7
		c-0.8-0.4-1.5-1-2-1.7c0.1,1,0.1,1.9,0.1,2.9v5.5L260.9,833.4z M267.6,825.2c0.7,0,1.3-0.2,1.9-0.5c0.5-0.3,1-0.8,1.3-1.3
		c0.4-0.6,0.6-1.2,0.8-1.9c0.2-0.7,0.3-1.5,0.3-2.3c0.1-1.5-0.3-2.9-1.1-4.2c-0.7-1.1-1.9-1.7-3.2-1.7c-2.9,0-4.4,1.9-4.4,5.6
		c-0.1,1.6,0.2,3.2,1,4.6C264.9,824.8,266.2,825.4,267.6,825.2L267.6,825.2z"/>
	<path class="st2" d="M286.4,826.9c-0.1-0.6-0.3-1.2-0.4-1.9c-0.7,0.7-1.5,1.3-2.3,1.7c-0.8,0.3-1.7,0.5-2.6,0.5
		c-1.2,0.1-2.4-0.3-3.4-1.1c-0.9-0.8-1.3-2-1.3-3.2c-0.1-1.4,0.6-2.7,1.7-3.4c1.5-0.8,3.2-1.3,5-1.4l1.4-0.1l1.4-0.1v-1.3
		c0.1-0.8-0.2-1.7-0.7-2.3c-0.6-0.6-1.5-0.8-2.3-0.8c-1.6,0-3.1,0.4-4.5,1.1c0-0.1-0.2-0.4-0.4-1l-0.3-0.8c0.7-0.4,1.5-0.7,2.4-0.9
		c0.9-0.2,1.9-0.3,2.8-0.3c1.4-0.1,2.9,0.3,4,1.2c0.8,0.8,1.2,2.2,1.2,4.2v9.9L286.4,826.9L286.4,826.9z M281.4,825.3
		c1,0,2-0.3,2.9-0.9c0.8-0.6,1.4-1.4,1.6-2.4v-2.5l-0.8,0.1l-1,0.1c-1.4,0-2.8,0.4-4.1,1c-0.8,0.5-1.2,1.4-1.2,2.3
		c0,0.7,0.2,1.4,0.7,1.8C280,825.2,280.7,825.4,281.4,825.3L281.4,825.3z"/>
	<path class="st2" d="M302.5,824.7c-0.5,0.8-1.2,1.4-2,1.8c-2.5,1.3-5.6,0.7-7.4-1.4c-1.2-1.7-1.8-3.7-1.7-5.8c-0.1-2,0.5-4,1.7-5.6
		c1.1-1.4,2.8-2.2,4.6-2.1c1,0,1.9,0.2,2.8,0.7c0.8,0.4,1.5,1,2,1.7v-1.3V806l2.3-0.1v21h-1.9L302.5,824.7z M298,825.2
		c1.3,0.1,2.5-0.5,3.4-1.5c0.8-1.2,1.2-2.7,1.1-4.1c0.1-1.6-0.3-3.2-1.1-4.6c-0.8-1.1-2.1-1.7-3.4-1.5c-0.6,0-1.3,0.1-1.9,0.5
		c-0.5,0.3-1,0.7-1.3,1.3c-0.3,0.6-0.6,1.2-0.8,1.8c-0.2,0.8-0.3,1.5-0.2,2.3c0,1,0.1,2,0.4,3c0.3,0.8,0.7,1.5,1.4,2
		C296.3,824.9,297.1,825.2,298,825.2L298,825.2z"/>
	<path class="st2" d="M318.8,824.7c-0.5,0.8-1.2,1.4-2,1.8c-2.5,1.3-5.6,0.7-7.4-1.4c-1.2-1.7-1.8-3.7-1.7-5.8c-0.1-2,0.5-4,1.7-5.6
		c1.1-1.4,2.8-2.2,4.6-2.1c1,0,1.9,0.2,2.8,0.7c0.8,0.4,1.5,1,2,1.7v-1.3V806l2.3-0.1v21h-2L318.8,824.7z M314.3,825.2
		c1.3,0.1,2.5-0.5,3.4-1.5c0.8-1.2,1.2-2.7,1.1-4.1c0.1-1.6-0.3-3.2-1.1-4.6c-0.8-1.1-2.1-1.7-3.4-1.5c-0.6,0-1.3,0.1-1.9,0.5
		c-0.5,0.3-1,0.7-1.3,1.3c-0.3,0.6-0.6,1.2-0.8,1.8c-0.2,0.8-0.3,1.5-0.2,2.3c0,1,0.1,2,0.4,3c0.3,0.8,0.7,1.5,1.4,2
		C312.6,824.9,313.4,825.2,314.3,825.2z"/>
	<path class="st2" d="M327.7,806.4v2.7h-2.3v-2.7H327.7z M327.7,811.9v15h-2.3v-15H327.7z"/>
	<path class="st2" d="M332,826.9v-15h1.9l0.3,2.2c0.6-0.7,1.4-1.4,2.2-1.8c0.9-0.5,1.9-0.7,2.9-0.7c1.4-0.1,2.8,0.4,3.8,1.5
		c0.9,1.3,1.4,2.9,1.2,4.5v9.4h-2.3c0-6,0-9.2,0-9.7c0-1-0.2-2-0.8-2.8c-0.6-0.7-1.5-1-2.4-0.9c-1,0-2.1,0.3-2.9,0.8
		c-0.8,0.5-1.3,1.3-1.5,2.2c-0.1,0.7-0.1,1.4-0.1,2.1v8.2L332,826.9L332,826.9z"/>
	<path class="st2" d="M350.5,833.7l-0.2-2.1h2.8c0.7,0,1.3,0,2-0.2c0.5-0.1,1-0.3,1.4-0.5c0.4-0.2,0.7-0.5,0.9-0.8
		c0.3-0.4,0.4-0.8,0.5-1.2c0.1-0.5,0.2-1,0.2-1.5c0-0.5,0.1-1.1,0.1-1.8v-1.3c-0.5,0.7-1.1,1.4-1.9,1.8c-0.8,0.5-1.8,0.7-2.8,0.6
		c-0.8,0-1.6-0.1-2.4-0.4c-0.7-0.3-1.3-0.7-1.8-1.2c-0.5-0.5-0.9-1.1-1.3-1.7c-0.3-0.6-0.6-1.3-0.8-2c-0.2-0.7-0.2-1.4-0.2-2.1
		c0-1,0.1-2,0.4-3c0.3-0.9,0.7-1.7,1.2-2.5c0.5-0.7,1.3-1.3,2.1-1.7c0.9-0.4,2-0.6,3-0.6c0.9,0,1.8,0.2,2.6,0.6c0.8,0.4,1.5,1,2,1.7
		v-2h2.2v13.9c0,0.7,0,1.2,0,1.7c0,0.5-0.1,1.1-0.2,1.6c-0.1,0.5-0.3,1-0.5,1.5c-0.2,0.5-0.5,0.9-0.9,1.3c-0.4,0.4-0.8,0.8-1.4,1
		c-0.6,0.3-1.3,0.5-2,0.6c-0.9,0.2-1.7,0.3-2.6,0.2h-2.5L350.5,833.7z M354,824.9c0.7,0,1.4-0.1,2-0.4c0.6-0.2,1-0.6,1.4-1.1
		c0.3-0.5,0.6-1,0.7-1.6c0.2-0.6,0.2-1.3,0.2-1.9v-1.1c0-0.7-0.1-1.3-0.2-2c-0.2-0.6-0.4-1.1-0.8-1.7c-0.3-0.5-0.8-0.9-1.4-1.1
		c-0.6-0.3-1.3-0.4-2-0.4c-0.6,0-1.2,0.1-1.7,0.4c-0.5,0.2-0.9,0.5-1.3,0.9c-0.3,0.4-0.6,0.9-0.9,1.3c-0.2,0.5-0.4,1-0.5,1.6
		c-0.1,0.5-0.2,1.1-0.1,1.6c0,0.5,0.1,1.1,0.2,1.6c0.1,0.5,0.3,1,0.5,1.5c0.2,0.5,0.5,0.9,0.9,1.3c0.4,0.4,0.8,0.7,1.3,0.9
		C352.8,824.8,353.4,824.9,354,824.9z"/>
	<path class="st2" d="M378.1,817h5.3v1.9h-5.4v5.9h-1.9v-5.8h-5.4V817h5.4v-5.8h1.9L378.1,817L378.1,817z"/>
	<path class="st2" d="M400.8,811.5c1.2,0,2.4,0.3,3.5,1c1,0.7,1.7,1.6,2.2,2.8c0.5,1.3,0.7,2.6,0.7,4c0,1.4-0.2,2.8-0.7,4.1
		c-0.4,1.1-1.2,2.1-2.2,2.8c-1,0.7-2.2,1-3.5,1c-0.9,0-1.9-0.2-2.7-0.6c-0.8-0.4-1.5-1-2-1.8l-0.2,2.1h-2V806l2.3-0.1v5
		c0,1.2,0,2.3,0,3.1C397.1,812.4,398.9,811.5,400.8,811.5z M400.6,813.4c-1.3-0.1-2.5,0.5-3.3,1.5c-0.9,1.3-1.3,2.8-1.2,4.4
		c0,4,1.5,5.9,4.5,5.9c0.7,0,1.3-0.1,2-0.5c0.6-0.3,1-0.7,1.3-1.3c0.3-0.6,0.6-1.2,0.7-1.9c0.2-0.8,0.2-1.5,0.2-2.3c0-1-0.1-2-0.4-3
		c-0.2-0.8-0.7-1.5-1.4-2.1C402.4,813.7,401.5,813.4,400.6,813.4L400.6,813.4z"/>
	<path class="st2" d="M423.6,819.3c0.1,2-0.6,4.1-1.9,5.7c-1.3,1.5-3.2,2.3-5.1,2.2c-1.9,0.1-3.8-0.7-5-2.2c-2.5-3.3-2.5-7.9,0-11.3
		c1.3-1.5,3.2-2.3,5.1-2.2c1.9-0.1,3.8,0.7,5,2.2C423,815.3,423.7,817.3,423.6,819.3z M412,819.3c-0.1,1.5,0.3,3,1.2,4.3
		c0.8,1.1,2.1,1.7,3.5,1.6c1.3,0.1,2.6-0.5,3.4-1.6c1.5-2.7,1.5-6,0-8.6c-1.6-1.9-4.4-2.1-6.3-0.5c-0.2,0.2-0.4,0.3-0.5,0.5
		C412.4,816.3,411.9,817.8,412,819.3L412,819.3z"/>
	<path class="st2" d="M433.5,811.7c0.4,0,0.7,0,1.1,0.1l-0.1,2.1c-0.4-0.1-0.7-0.1-1.1-0.1c-1.2,0-2.3,0.4-3.1,1.3
		c-0.8,0.9-1.2,2.1-1.2,3.3v8.4h-2.3c0-9.2,0-14.2,0-15h1.9l0.2,2.7c0.5-0.8,1.2-1.5,2-2C431.8,812,432.6,811.7,433.5,811.7z"/>
	<path class="st2" d="M447.1,824.7c-0.5,0.8-1.2,1.4-2,1.8c-2.5,1.3-5.6,0.7-7.4-1.4c-1.2-1.7-1.8-3.7-1.7-5.7c-0.1-2,0.5-4,1.7-5.6
		c1.1-1.4,2.8-2.2,4.6-2.1c1,0,1.9,0.2,2.8,0.7c0.8,0.4,1.5,1,2,1.7v-1.3V806l2.3-0.1v21h-1.9L447.1,824.7z M442.6,825.2
		c1.3,0.1,2.5-0.5,3.4-1.5c0.8-1.2,1.2-2.7,1.1-4.1c0.1-1.6-0.2-3.2-1-4.6c-0.8-1.1-2.1-1.7-3.4-1.5c-0.6,0-1.3,0.1-1.9,0.5
		c-0.5,0.3-1,0.7-1.3,1.3c-0.3,0.6-0.6,1.2-0.8,1.8c-0.2,0.8-0.3,1.5-0.2,2.3c0,1,0.1,2,0.4,3c0.3,0.8,0.7,1.5,1.4,2
		C440.9,824.9,441.7,825.2,442.6,825.2z"/>
	<path class="st2" d="M459.6,827.2c-1.9,0.1-3.8-0.7-5.1-2.1c-1.3-1.6-2-3.6-1.9-5.7c-0.1-2,0.6-4,1.8-5.7c1.2-1.4,2.9-2.2,4.8-2.2
		c1.7-0.1,3.3,0.6,4.4,1.9c1.1,1.4,1.7,3.3,1.6,5.1c0,0.1,0,0.3,0,0.6c0,0.3,0,0.5,0,0.6H455c-0.1,1.5,0.4,2.9,1.3,4
		c0.9,1,2.1,1.5,3.4,1.4c1.7,0,3.3-0.5,4.8-1.3l0.4,1.8C463.3,826.7,461.5,827.2,459.6,827.2z M461.9,814.6
		c-0.7-0.8-1.7-1.2-2.8-1.2c-1.1,0-2.1,0.4-2.9,1.2c-0.8,1-1.2,2.1-1.3,3.4h7.9C463,816.8,462.7,815.6,461.9,814.6L461.9,814.6z"/>
	<path class="st2" d="M475.2,811.7c0.4,0,0.7,0,1.1,0.1l-0.1,2.1c-0.4-0.1-0.7-0.1-1.1-0.1c-1.2,0-2.3,0.4-3.1,1.3
		c-0.8,0.9-1.2,2.1-1.2,3.3v8.4h-2.3c0-9.2,0-14.2,0-15h1.9l0.2,2.7c0.5-0.8,1.2-1.5,2-2C473.4,812,474.3,811.7,475.2,811.7z"/>
	<path class="st2" d="M485.5,815.9v-2h13.2v2H485.5z M485.5,821.7v-1.9h13.2v1.9H485.5L485.5,821.7z"/>
	<path class="st2" d="M518.7,826.9c-0.1-0.6-0.3-1.2-0.4-1.9c-0.7,0.7-1.5,1.3-2.3,1.7c-0.8,0.3-1.7,0.5-2.6,0.5
		c-1.2,0.1-2.4-0.3-3.4-1.1c-0.9-0.8-1.3-2-1.3-3.2c-0.1-1.4,0.6-2.7,1.7-3.4c1.5-0.8,3.2-1.3,5-1.4l1.4-0.1l1.4-0.1v-1.3
		c0.1-0.8-0.2-1.7-0.7-2.3c-0.6-0.6-1.5-0.8-2.3-0.8c-1.6,0-3.1,0.4-4.5,1.1c0-0.1-0.2-0.4-0.4-1l-0.3-0.8c0.7-0.4,1.5-0.7,2.4-0.9
		c0.9-0.2,1.9-0.3,2.8-0.3c1.4-0.1,2.9,0.3,4,1.2c0.8,0.8,1.2,2.2,1.2,4.2v9.9L518.7,826.9L518.7,826.9z M513.7,825.3
		c1,0,2-0.3,2.9-0.9c0.8-0.6,1.4-1.4,1.6-2.4v-2.5l-0.8,0.1l-1,0.1c-1.4,0-2.8,0.4-4.1,1c-0.8,0.5-1.2,1.4-1.2,2.3
		c0,0.7,0.2,1.4,0.7,1.8C512.3,825.2,513,825.4,513.7,825.3L513.7,825.3z"/>
	<path class="st2" d="M530.8,827.2c-2,0.1-3.9-0.7-5.2-2.2c-1.3-1.6-2-3.6-1.9-5.6c-0.1-2.1,0.6-4.1,1.9-5.7
		c1.3-1.5,3.2-2.3,5.2-2.2c0.8,0,1.5,0.1,2.2,0.3c0.6,0.1,1.2,0.4,1.7,0.8l-0.6,1.8c-1-0.6-2.2-0.9-3.4-0.9
		c-1.3-0.1-2.6,0.5-3.4,1.6c-0.9,1.3-1.3,2.8-1.3,4.3c-0.1,1.5,0.4,3,1.2,4.2c0.8,1,2.1,1.6,3.5,1.6c1.3,0,2.5-0.4,3.6-1l0.3,1.8
		C533.5,826.8,532.1,827.2,530.8,827.2z"/>
	<path class="st2" d="M542.4,827.1c-1.2,0.1-2.3-0.3-3.1-1.1c-0.7-1-1.1-2.2-1-3.5v-9h-2.2l0.1-1.5l2.1-0.2l0.8-3.4l1.5,0v3.5h4.2
		v1.7h-4.2v8.6c-0.1,0.8,0.1,1.7,0.5,2.4c0.4,0.5,1.1,0.8,1.8,0.7c0.7,0,1.3-0.1,2-0.2l0.1,1.8C544.1,827,543.3,827.1,542.4,827.1z"
		/>
	<path class="st2" d="M546.8,821.8v-10h2.3v10c0,0.6,0.1,1.1,0.3,1.7c0.2,0.4,0.4,0.8,0.8,1.1c0.4,0.3,0.8,0.4,1.2,0.5
		c0.5,0.1,1,0.2,1.5,0.2c1,0.1,2-0.2,2.8-0.8c0.7-0.7,1.1-1.7,1-2.7v-10h2.3v10c0,0.7-0.1,1.4-0.3,2.1c-0.2,0.6-0.5,1.1-0.9,1.5
		c-0.4,0.4-0.8,0.7-1.3,1c-0.5,0.3-1.1,0.5-1.7,0.6c-1.2,0.2-2.5,0.2-3.7,0c-0.6-0.1-1.1-0.3-1.7-0.6c-0.5-0.3-1-0.6-1.3-1
		c-0.4-0.4-0.7-1-0.9-1.5C546.9,823.2,546.8,822.5,546.8,821.8z"/>
	<path class="st2" d="M571.7,826.9c-0.1-0.6-0.3-1.2-0.4-1.9c-0.7,0.7-1.5,1.3-2.3,1.7c-0.8,0.3-1.7,0.5-2.6,0.5
		c-1.2,0.1-2.4-0.3-3.4-1.1c-0.9-0.8-1.3-2-1.3-3.2c-0.1-1.4,0.6-2.7,1.7-3.4c1.5-0.8,3.2-1.3,5-1.4l1.4-0.1l1.4-0.1v-1.3
		c0.1-0.8-0.2-1.7-0.7-2.3c-0.6-0.6-1.5-0.8-2.3-0.8c-1.6,0-3.1,0.4-4.5,1.1c0-0.1-0.2-0.4-0.4-1l-0.3-0.8c0.7-0.4,1.5-0.7,2.4-0.9
		c0.9-0.2,1.9-0.3,2.8-0.3c1.4-0.1,2.9,0.3,4,1.2c0.8,0.8,1.2,2.2,1.2,4.2v9.9L571.7,826.9L571.7,826.9z M566.7,825.3
		c1,0,2-0.3,2.9-0.9c0.8-0.6,1.4-1.4,1.6-2.4v-2.5l-0.8,0.1l-1,0.1c-1.4,0-2.8,0.4-4.1,1c-0.8,0.5-1.2,1.4-1.2,2.3
		c0,0.7,0.2,1.4,0.7,1.8C565.3,825.2,566,825.4,566.7,825.3L566.7,825.3z"/>
	<path class="st2" d="M581.4,827.1c-1.2,0.1-2.3-0.3-3.1-1.2c-0.7-1.2-1-2.7-0.9-4.1V806l2.3-0.1V821c0,0.6,0,1.1,0,1.5
		c0,0.4,0,0.7,0.1,1.1c0,0.3,0.1,0.6,0.2,0.8c0.1,0.2,0.2,0.4,0.4,0.5c0.2,0.2,0.4,0.3,0.6,0.3c0.3,0.1,0.6,0.1,0.9,0.1
		c0.6,0,1.1-0.1,1.7-0.2l0.1,1.8C583,827.1,582.2,827.1,581.4,827.1z"/>
	<path class="st2" d="M598.9,811.7c0.4,0,0.7,0,1.1,0.1l-0.1,2.1c-0.4-0.1-0.7-0.1-1.1-0.1c-1.2,0-2.3,0.4-3.1,1.3
		c-0.8,0.9-1.2,2.1-1.2,3.3v8.4h-2.3c0-9.2,0-14.2,0-15h1.9l0.2,2.7c0.5-0.8,1.2-1.5,2-2C597.1,812,598,811.7,598.9,811.7z"/>
	<path class="st2" d="M608.4,827.2c-1.9,0.1-3.8-0.7-5.2-2.1c-1.3-1.6-2-3.6-1.9-5.7c-0.1-2,0.6-4,1.8-5.7c1.2-1.4,2.9-2.2,4.8-2.2
		c1.7-0.1,3.3,0.6,4.4,1.9c1.1,1.4,1.7,3.3,1.6,5.1c0,0.1,0,0.3,0,0.6c0,0.3,0,0.5,0,0.6h-10.3c-0.1,1.5,0.4,2.9,1.3,4
		c0.9,1,2.1,1.5,3.4,1.4c1.7,0,3.3-0.5,4.8-1.3l0.4,1.8C612.1,826.7,610.3,827.2,608.4,827.2z M610.7,814.6
		c-0.7-0.8-1.7-1.2-2.8-1.2c-1.1,0-2.1,0.4-2.9,1.2c-0.8,1-1.2,2.1-1.3,3.4h7.9C611.8,816.8,611.5,815.6,610.7,814.6z"/>
	<path class="st2" d="M617.2,826.9v-15h1.9l0.3,2.2c0.6-0.7,1.4-1.4,2.2-1.8c0.9-0.5,1.9-0.7,2.9-0.7c1.4-0.1,2.8,0.4,3.8,1.5
		c0.9,1.3,1.4,2.9,1.2,4.5v9.4h-2.3c0-6,0-9.2,0-9.7c0-1-0.2-2-0.8-2.8c-0.6-0.7-1.5-1-2.4-0.9c-1,0-2.1,0.3-2.9,0.8
		c-0.8,0.5-1.3,1.3-1.5,2.2c-0.1,0.7-0.1,1.4-0.1,2.1v8.2L617.2,826.9L617.2,826.9z"/>
	<path class="st2" d="M643.8,824.7c-0.5,0.8-1.2,1.4-2,1.8c-2.5,1.3-5.6,0.7-7.4-1.4c-1.2-1.7-1.8-3.7-1.7-5.8c-0.1-2,0.5-4,1.7-5.6
		c1.1-1.4,2.8-2.2,4.6-2.1c1,0,1.9,0.2,2.8,0.7c0.8,0.4,1.5,1,2,1.7v-1.3V806l2.3-0.1v21h-1.9L643.8,824.7z M639.3,825.2
		c1.3,0.1,2.5-0.5,3.4-1.5c0.8-1.2,1.2-2.7,1.1-4.1c0.1-1.6-0.3-3.2-1.1-4.6c-0.8-1.1-2.1-1.7-3.4-1.5c-0.6,0-1.3,0.1-1.9,0.5
		c-0.5,0.3-1,0.7-1.3,1.3c-0.3,0.6-0.6,1.2-0.8,1.8c-0.2,0.8-0.3,1.5-0.2,2.3c0,1,0.1,2,0.4,3c0.3,0.8,0.7,1.5,1.4,2
		C637.6,824.9,638.4,825.2,639.3,825.2z"/>
	<path class="st2" d="M656.3,827.2c-1.9,0.1-3.8-0.7-5.2-2.1c-1.3-1.6-2-3.6-1.9-5.7c-0.1-2,0.6-4,1.8-5.7c1.2-1.4,2.9-2.2,4.8-2.2
		c1.7-0.1,3.3,0.6,4.4,1.9c1.1,1.4,1.7,3.3,1.6,5.1c0,0.1,0,0.3,0,0.6c0,0.3,0,0.5,0,0.6h-10.3c-0.1,1.5,0.4,2.9,1.3,4
		c0.9,1,2.1,1.5,3.4,1.4c1.7,0,3.3-0.5,4.8-1.3l0.4,1.8C660,826.7,658.2,827.2,656.3,827.2z M658.6,814.6c-0.7-0.8-1.7-1.2-2.8-1.2
		c-1.1,0-2.1,0.4-2.9,1.2c-0.8,1-1.2,2.1-1.3,3.4h7.9C659.7,816.8,659.4,815.6,658.6,814.6z"/>
	<path class="st2" d="M671.9,811.7c0.4,0,0.7,0,1.1,0.1l-0.1,2.1c-0.4-0.1-0.7-0.1-1.1-0.1c-1.2,0-2.3,0.4-3.1,1.3
		c-0.8,0.9-1.2,2.1-1.2,3.3v8.4h-2.3c0-9.2,0-14.2,0-15h1.9l0.2,2.7c0.5-0.8,1.2-1.5,2-2C670.1,812,671,811.7,671.9,811.7z"/>
	<path class="st2" d="M681.4,827.2c-1.9,0.1-3.8-0.7-5.2-2.1c-1.3-1.6-2-3.6-1.9-5.7c-0.1-2,0.6-4,1.8-5.7c1.2-1.4,2.9-2.2,4.8-2.2
		c1.7-0.1,3.3,0.6,4.4,1.9c1.1,1.4,1.7,3.3,1.6,5.1c0,0.1,0,0.3,0,0.6c0,0.3,0,0.5,0,0.6h-10.3c-0.1,1.5,0.4,2.9,1.3,4
		c0.9,1,2.1,1.5,3.4,1.4c1.7,0,3.3-0.5,4.8-1.3l0.4,1.8C685,826.7,683.2,827.2,681.4,827.2z M683.7,814.6c-0.7-0.8-1.7-1.2-2.8-1.2
		c-1.1,0-2.1,0.4-2.9,1.2c-0.8,1-1.2,2.1-1.3,3.4h7.9C684.8,816.8,684.4,815.6,683.7,814.6L683.7,814.6z"/>
	<path class="st2" d="M700.6,824.7c-0.5,0.8-1.2,1.4-2,1.8c-2.5,1.3-5.6,0.7-7.4-1.4c-1.2-1.7-1.8-3.7-1.7-5.8c-0.1-2,0.5-4,1.7-5.6
		c1.1-1.4,2.8-2.2,4.6-2.1c1,0,1.9,0.2,2.8,0.7c0.8,0.4,1.5,1,2,1.7v-1.3V806l2.3-0.1v21h-1.9L700.6,824.7z M696.1,825.2
		c1.3,0.1,2.5-0.5,3.4-1.5c0.8-1.2,1.2-2.7,1.1-4.1c0.1-1.6-0.3-3.2-1.1-4.6c-0.8-1.1-2.1-1.7-3.5-1.5c-0.6,0-1.3,0.1-1.9,0.5
		c-0.5,0.3-1,0.7-1.3,1.3c-0.3,0.6-0.6,1.2-0.8,1.8c-0.2,0.8-0.3,1.5-0.2,2.3c0,1,0.1,2,0.4,3c0.3,0.8,0.7,1.5,1.4,2
		C694.3,824.9,695.2,825.2,696.1,825.2z"/>
	<path class="st2" d="M726.7,826.9c-2.1-6.7-3.4-10.9-3.9-12.6c-0.3,1-0.6,2.1-1,3.2c-0.4,1.2-0.7,2.2-1,3l-1.1,3.2l-1,3h-2.5
		l-4.3-15h2.4l3.2,12.3c0.4-1.5,1.8-5.6,3.9-12.3h2.6c2.2,6.9,3.4,11,3.8,12.2l3.2-12.2h2.3l-4.3,15L726.7,826.9L726.7,826.9z"/>
	<path class="st2" d="M738.4,806.4v2.7h-2.3v-2.7H738.4z M738.4,811.9v15h-2.3v-15H738.4z"/>
	<path class="st2" d="M753,824.7c-0.5,0.8-1.2,1.4-2,1.8c-2.5,1.3-5.6,0.7-7.4-1.4c-1.2-1.7-1.7-3.7-1.6-5.7c-0.1-2,0.5-4,1.7-5.6
		c1.1-1.4,2.8-2.2,4.6-2.1c1,0,1.9,0.2,2.8,0.7c0.8,0.4,1.5,1,2,1.7v-1.3V806l2.3-0.1v21h-1.9L753,824.7z M748.5,825.2
		c1.3,0.1,2.5-0.5,3.4-1.5c0.8-1.2,1.2-2.7,1.1-4.1c0.1-1.6-0.3-3.2-1.1-4.6c-0.8-1.1-2.1-1.7-3.4-1.5c-0.6,0-1.3,0.1-1.9,0.5
		c-0.5,0.3-1,0.7-1.3,1.3c-0.3,0.6-0.6,1.2-0.8,1.8c-0.2,0.8-0.3,1.5-0.2,2.3c0,1,0.1,2,0.4,3c0.3,0.8,0.7,1.5,1.4,2
		C746.8,824.9,747.7,825.2,748.5,825.2L748.5,825.2z"/>
	<path class="st2" d="M764,827.1c-1.2,0.1-2.3-0.3-3.1-1.1c-0.7-1-1.1-2.2-1-3.5v-9h-2.2l0.1-1.5l2.1-0.2l0.8-3.4l1.5,0v3.5h4.2v1.7
		h-4.2v8.6c-0.1,0.8,0.1,1.7,0.5,2.4c0.4,0.5,1.1,0.8,1.8,0.7c0.7,0,1.3-0.1,2-0.2l0.1,1.8C765.7,827,764.8,827.1,764,827.1z"/>
	<path class="st2" d="M779.1,826.9v-9.1c0.1-1.1-0.2-2.3-0.7-3.3c-0.6-0.7-1.6-1.1-2.5-1c-1,0-2.1,0.3-2.9,0.9
		c-0.8,0.5-1.3,1.3-1.5,2.2c-0.1,0.8-0.1,1.5-0.1,2.3v8H769V806l2.3-0.1v6.1c0,0.5,0,1.2,0,1.9c1.2-1.6,3.1-2.4,5.1-2.4
		c3.3,0,5,2,5,5.9v9.4H779.1z"/>
	<path class="st2" d="M804.3,819.3c0.1,2-0.6,4.1-1.9,5.7c-1.3,1.5-3.2,2.3-5.1,2.2c-1.9,0.1-3.8-0.7-5-2.2c-2.5-3.3-2.5-7.9,0-11.3
		c1.3-1.5,3.2-2.3,5.1-2.2c1.9-0.1,3.8,0.7,5,2.2C803.8,815.3,804.4,817.3,804.3,819.3z M792.8,819.3c-0.1,1.5,0.3,3,1.2,4.3
		c0.8,1.1,2.1,1.7,3.5,1.6c1.3,0.1,2.6-0.5,3.4-1.6c1.5-2.7,1.5-6,0-8.6c-1.6-1.9-4.4-2.1-6.3-0.5c-0.2,0.2-0.4,0.3-0.5,0.5
		C793.1,816.3,792.7,817.8,792.8,819.3L792.8,819.3z"/>
	<path class="st2" d="M813.3,807.5c-0.7-0.1-1.5,0.2-2,0.8c-0.4,0.9-0.6,1.9-0.5,2.8v0.7h3.6v1.7h-3.6v13.3h-2.3v-13.3h-2.4l0.2-1.5
		l2.2-0.2v-0.7c-0.1-1.5,0.3-3,1.1-4.2c0.9-0.9,2.1-1.4,3.4-1.3c0.8,0,1.5,0.1,2.2,0.2l-0.2,1.8
		C814.5,807.6,813.9,807.5,813.3,807.5z"/>
	<path class="st2" d="M833,826.9c-0.1-0.6-0.3-1.2-0.4-1.9c-0.7,0.7-1.5,1.3-2.3,1.7c-0.8,0.3-1.7,0.5-2.6,0.5
		c-1.2,0.1-2.4-0.3-3.4-1.1c-0.9-0.8-1.3-2-1.3-3.2c-0.1-1.4,0.6-2.7,1.7-3.4c1.5-0.8,3.2-1.3,5-1.4l1.4-0.1l1.4-0.1v-1.3
		c0.1-0.8-0.2-1.7-0.7-2.3c-0.6-0.6-1.5-0.8-2.3-0.8c-1.6,0-3.1,0.4-4.5,1.1c0-0.1-0.2-0.4-0.4-1l-0.3-0.8c0.7-0.4,1.5-0.7,2.4-0.9
		c0.9-0.2,1.9-0.3,2.8-0.3c1.4-0.1,2.9,0.3,4,1.2c0.8,0.8,1.2,2.2,1.2,4.2v9.9L833,826.9L833,826.9z M828,825.3c1,0,2-0.3,2.9-0.9
		c0.8-0.6,1.4-1.4,1.6-2.4v-2.5l-0.8,0.1l-1,0.1c-1.4,0-2.8,0.4-4.1,1c-0.8,0.5-1.2,1.4-1.2,2.3c0,0.7,0.2,1.4,0.7,1.8
		C826.6,825.2,827.3,825.4,828,825.3L828,825.3z"/>
	<path class="st2" d="M838.7,826.9v-15h1.9l0.3,2.2c0.6-0.7,1.4-1.4,2.2-1.8c0.9-0.5,1.9-0.7,2.9-0.7c1.4-0.1,2.8,0.4,3.8,1.5
		c0.9,1.3,1.4,2.9,1.2,4.5v9.4h-2.3c0-6,0-9.2,0-9.7c0-1-0.2-2-0.8-2.8c-0.6-0.7-1.5-1-2.4-0.9c-1,0-2.1,0.3-2.9,0.8
		c-0.8,0.5-1.3,1.3-1.5,2.2c-0.1,0.7-0.1,1.4-0.1,2.1v8.2L838.7,826.9L838.7,826.9z"/>
	<path class="st2" d="M868.2,827.2c-1.9,0.1-3.8-0.7-5.2-2.1c-1.3-1.6-2-3.6-1.9-5.7c-0.1-2,0.6-4,1.8-5.7c1.2-1.4,2.9-2.2,4.8-2.2
		c1.7-0.1,3.3,0.6,4.4,1.9c1.1,1.4,1.7,3.3,1.6,5.1c0,0.1,0,0.3,0,0.6c0,0.3,0,0.5,0,0.6h-10.3c-0.1,1.5,0.4,2.9,1.3,4
		c0.9,1,2.1,1.5,3.4,1.4c1.7,0,3.3-0.5,4.8-1.3l0.4,1.8C871.9,826.7,870.1,827.2,868.2,827.2z M870.5,814.6
		c-0.7-0.8-1.7-1.2-2.8-1.2c-1.1,0-2.1,0.4-2.9,1.2c-0.8,1-1.2,2.1-1.3,3.4h7.9C871.6,816.8,871.3,815.6,870.5,814.6L870.5,814.6z"
		/>
	<path class="st2" d="M881.1,827.1c-1.1,0.1-2.3-0.3-3.1-1.1c-0.7-1.2-1-2.7-0.9-4.1V806l2.3-0.1V821c0,0.6,0,1.1,0,1.5
		c0,0.4,0,0.7,0.1,1.1c0,0.3,0.1,0.6,0.2,0.8c0.1,0.2,0.2,0.4,0.4,0.5c0.2,0.2,0.4,0.3,0.6,0.3c0.3,0.1,0.6,0.1,0.9,0.1
		c0.6,0,1.1-0.1,1.7-0.2l0.1,1.8C882.7,827.1,881.9,827.1,881.1,827.1z"/>
	<path class="st2" d="M891.2,827.2c-1.9,0.1-3.8-0.7-5.2-2.1c-1.3-1.6-2-3.6-1.9-5.7c-0.1-2,0.6-4,1.8-5.7c1.2-1.4,2.9-2.2,4.8-2.2
		c1.7-0.1,3.3,0.6,4.4,1.9c1.1,1.4,1.7,3.3,1.6,5.1c0,0.1,0,0.3,0,0.6c0,0.3,0,0.5,0,0.6h-10.3c-0.1,1.5,0.4,2.9,1.3,4
		c0.9,1,2.1,1.5,3.4,1.4c1.7,0,3.3-0.5,4.8-1.3l0.4,1.8C894.8,826.7,893,827.2,891.2,827.2z M893.5,814.6c-0.7-0.8-1.7-1.2-2.8-1.2
		c-1.1,0-2.1,0.4-2.9,1.2c-0.8,1-1.2,2.1-1.3,3.4h7.9C894.5,816.8,894.2,815.6,893.5,814.6L893.5,814.6z"/>
	<path class="st2" d="M919,826.9V819c0-0.7,0-1.3,0-1.8c0-0.5-0.1-1-0.2-1.5c-0.1-0.4-0.2-0.8-0.5-1.2c-0.2-0.3-0.5-0.6-0.8-0.7
		c-0.4-0.2-0.9-0.3-1.3-0.3c-0.9,0-1.8,0.3-2.6,0.8c-0.7,0.6-1.3,1.4-1.5,2.3c-0.1,0.7-0.1,1.4-0.1,2.1v8.2h-2.3v-8.1
		c0-0.7,0-1.3-0.1-1.8c0-0.5-0.1-1-0.3-1.5c-0.1-0.4-0.3-0.8-0.5-1.1c-0.2-0.3-0.5-0.5-0.8-0.7c-0.4-0.2-0.8-0.3-1.3-0.3
		c-1,0-1.9,0.3-2.8,0.8c-0.7,0.5-1.3,1.3-1.5,2.2c-0.1,0.8-0.1,1.5-0.1,2.3v8H900c0-9.4,0-14.4,0-15h1.9l0.3,2.2
		c0.5-0.7,1.2-1.3,1.9-1.8c0.9-0.5,1.9-0.7,2.9-0.7c0.5,0,1,0.1,1.5,0.2c0.4,0.1,0.8,0.2,1.2,0.4c0.3,0.2,0.6,0.4,0.8,0.6
		c0.2,0.2,0.4,0.4,0.6,0.7c0.1,0.2,0.2,0.5,0.3,0.7c1-1.7,3-2.8,5-2.7c1.4-0.1,2.7,0.4,3.7,1.4c0.9,1.2,1.3,2.7,1.2,4.2v9.7
		L919,826.9L919,826.9z"/>
	<path class="st2" d="M930.5,827.2c-1.9,0.1-3.8-0.7-5.2-2.1c-1.3-1.6-2-3.6-1.9-5.7c-0.1-2,0.6-4,1.8-5.7c1.2-1.4,2.9-2.2,4.8-2.2
		c1.7-0.1,3.3,0.6,4.4,1.9c1.1,1.4,1.7,3.3,1.6,5.1c0,0.1,0,0.3,0,0.6c0,0.3,0,0.5,0,0.6h-10.3c-0.1,1.5,0.4,2.9,1.3,4
		c0.9,1,2.1,1.5,3.4,1.4c1.7,0,3.3-0.5,4.8-1.3l0.4,1.8C934.2,826.7,932.4,827.2,930.5,827.2z M932.8,814.6
		c-0.7-0.8-1.7-1.2-2.8-1.2c-1.1,0-2.1,0.4-2.9,1.2c-0.8,1-1.2,2.1-1.3,3.4h7.9C933.9,816.8,933.6,815.6,932.8,814.6z"/>
	<path class="st2" d="M939.3,826.9v-15h1.9l0.3,2.2c0.6-0.7,1.4-1.4,2.2-1.8c0.9-0.5,1.9-0.7,2.9-0.7c1.4-0.1,2.8,0.4,3.8,1.5
		c0.9,1.3,1.4,2.9,1.2,4.5v9.4h-2.3c0-6,0-9.2,0-9.7c0-1-0.2-2-0.8-2.8c-0.6-0.7-1.5-1-2.4-0.9c-1,0-2.1,0.3-2.9,0.8
		c-0.8,0.5-1.3,1.3-1.5,2.2c-0.1,0.7-0.1,1.4-0.1,2.1v8.2L939.3,826.9L939.3,826.9z"/>
	<path class="st2" d="M960.3,827.1c-1.2,0.1-2.3-0.3-3.1-1.1c-0.7-1-1.1-2.2-1-3.5v-9H954l0.1-1.5l2.1-0.2l0.8-3.4l1.5,0v3.5h4.2
		v1.7h-4.2v8.6c-0.1,0.8,0.1,1.7,0.5,2.4c0.4,0.5,1.1,0.8,1.8,0.7c0.7,0,1.3-0.1,2-0.2l0.1,1.8C962,827,961.2,827.1,960.3,827.1z"/>
	<path class="st2" d="M967.2,806.5l-0.3,7h-1.6l-0.3-7H967.2z"/>
	<path class="st2" d="M975.5,827.2c-1,0-1.9-0.1-2.8-0.3c-0.7-0.2-1.4-0.5-2.1-0.8l0.3-1.9c1.4,0.8,2.9,1.2,4.5,1.2
		c2.2,0,3.4-0.8,3.4-2.3c0-0.6-0.2-1.2-0.7-1.6c-0.9-0.6-1.8-1-2.8-1.3l-1.1-0.4c-1.1-0.3-2-0.9-2.8-1.6c-1.3-1.6-1.1-4,0.5-5.3
		c0,0,0,0,0,0c1.1-0.8,2.5-1.2,3.9-1.2c1.6,0,3.2,0.3,4.6,1l-0.7,1.8c-1.3-0.6-2.6-0.8-4-0.9c-0.8,0-1.6,0.2-2.2,0.6
		c-0.5,0.4-0.8,1-0.8,1.6c0,0.5,0.2,1,0.6,1.3c0.7,0.5,1.5,0.8,2.3,1.1l1.1,0.4c1.2,0.3,2.3,0.9,3.2,1.7c0.7,0.7,1,1.7,0.9,2.7
		c0,1.2-0.5,2.4-1.5,3.2C978.3,826.8,976.9,827.2,975.5,827.2z"/>
	<path class="st2" d="M998.1,811.5c1.2,0,2.4,0.3,3.5,1c1,0.7,1.7,1.6,2.2,2.8c0.5,1.3,0.7,2.6,0.7,4c0,1.4-0.2,2.8-0.7,4.1
		c-0.4,1.1-1.2,2.1-2.2,2.8c-1,0.7-2.2,1-3.5,1c-0.9,0-1.9-0.2-2.7-0.6c-0.8-0.4-1.5-1-2-1.8l-0.2,2.1h-2V806l2.3-0.1v5
		c0,1.2,0,2.3,0,3.1C994.4,812.4,996.2,811.5,998.1,811.5z M997.9,813.4c-1.3-0.1-2.5,0.5-3.3,1.5c-0.9,1.3-1.3,2.8-1.2,4.4
		c0,4,1.5,5.9,4.5,5.9c0.7,0,1.3-0.1,2-0.5c0.6-0.3,1-0.7,1.3-1.3c0.3-0.6,0.6-1.2,0.7-1.9c0.2-0.8,0.2-1.5,0.2-2.3c0-1-0.1-2-0.4-3
		c-0.2-0.8-0.7-1.5-1.4-2.1C999.6,813.7,998.8,813.4,997.9,813.4L997.9,813.4z"/>
	<path class="st2" d="M1020.8,819.3c0.1,2-0.6,4.1-1.8,5.7c-1.3,1.5-3.2,2.3-5.1,2.2c-1.9,0.1-3.8-0.7-5-2.2
		c-2.5-3.3-2.5-7.9,0-11.3c1.3-1.5,3.2-2.3,5.1-2.2c1.9-0.1,3.8,0.7,5,2.2C1020.3,815.3,1020.9,817.3,1020.8,819.3z M1009.3,819.3
		c-0.1,1.5,0.3,3,1.2,4.3c0.8,1.1,2.1,1.7,3.5,1.6c1.3,0.1,2.6-0.5,3.4-1.6c1.5-2.7,1.5-6,0-8.6c-1.6-1.9-4.4-2.1-6.3-0.5
		c-0.2,0.2-0.4,0.3-0.5,0.5C1009.6,816.3,1009.2,817.8,1009.3,819.3L1009.3,819.3z"/>
	<path class="st2" d="M1027.8,819.2l-5.3-7.4h2.6l4,5.7l4-5.7h2.6l-5.3,7.4l5.4,7.6h-2.5l-4.2-6l-4.2,6h-2.6L1027.8,819.2z"/>
</g>
<g>
	<path class="st2" d="M438.6,119.6c-0.2-0.8-0.4-1.6-0.5-2.6c-0.9,1-2,1.8-3.2,2.3c-1.1,0.5-2.3,0.7-3.5,0.7
		c-1.7,0.1-3.3-0.4-4.6-1.5c-1.2-1.1-1.8-2.7-1.7-4.3c-0.1-1.9,0.8-3.6,2.4-4.6c2.1-1.2,4.4-1.8,6.8-1.9l1.9-0.2l1.9-0.2v-1.8
		c0.1-1.2-0.3-2.3-1-3.2c-0.9-0.7-2-1.1-3.1-1c-2.1,0-4.2,0.5-6.1,1.5c-0.1-0.1-0.2-0.6-0.5-1.3l-0.4-1.1c1-0.5,2.1-1,3.2-1.2
		c1.2-0.3,2.5-0.5,3.8-0.5c2.5,0,4.4,0.6,5.5,1.7c1.1,1.1,1.7,3,1.7,5.7v13.5L438.6,119.6L438.6,119.6z M431.9,117.5
		c1.4,0,2.8-0.4,3.9-1.2c1.1-0.8,1.9-2,2.2-3.3v-3.4l-1.1,0.1l-1.3,0.1c-1.9,0-3.9,0.5-5.6,1.3c-1.1,0.7-1.7,1.9-1.6,3.1
		c-0.1,0.9,0.3,1.8,1,2.5C430,117.3,430.9,117.6,431.9,117.5L431.9,117.5z"/>
	<path class="st2" d="M455,120c-2.7,0.1-5.2-0.9-7-2.9c-1.8-2.1-2.7-4.9-2.5-7.6c-0.1-2.8,0.8-5.5,2.6-7.7c1.8-2,4.3-3.1,7-3
		c1,0,2.1,0.1,3,0.4c0.8,0.2,1.6,0.5,2.3,1l-0.9,2.4c-1.4-0.8-3-1.2-4.6-1.2c-1.8-0.1-3.5,0.7-4.7,2.2c-1.2,1.7-1.8,3.8-1.7,5.9
		c-0.1,2.1,0.5,4.1,1.7,5.8c1.1,1.4,2.9,2.2,4.7,2.1c1.7,0,3.4-0.5,4.9-1.3l0.4,2.5C458.7,119.5,456.9,120.1,455,120z"/>
	<path class="st2" d="M470.8,120c-2,0-3.4-0.5-4.3-1.5c-1-1.4-1.4-3-1.3-4.7v-12.2h-3l0.1-2l2.9-0.3l1.1-4.7l2-0.1v4.7h5.7v2.3h-5.7
		v11.7c-0.1,1.1,0.1,2.3,0.7,3.3c0.6,0.7,1.5,1,2.4,0.9c0.9-0.1,1.8-0.2,2.6-0.3l0.1,2.4C473.1,119.8,471.9,120,470.8,120z"/>
	<path class="st2" d="M476.8,112.8V99.2h3.1v13.6c0,0.8,0.1,1.5,0.4,2.3c0.2,0.6,0.6,1.1,1.1,1.4c0.5,0.3,1,0.6,1.6,0.7
		c0.7,0.2,1.4,0.2,2.1,0.2c1.3,0.1,2.7-0.3,3.8-1.1c1-0.9,1.5-2.3,1.4-3.6V99.2h3.1v13.6c0,1-0.1,1.9-0.5,2.8
		c-0.3,0.8-0.7,1.5-1.2,2.1c-0.5,0.6-1.1,1-1.8,1.4c-0.7,0.4-1.5,0.6-2.2,0.8c-1.7,0.3-3.4,0.3-5.1,0c-0.8-0.2-1.5-0.4-2.2-0.8
		c-0.7-0.3-1.3-0.8-1.8-1.4c-0.5-0.6-1-1.3-1.2-2.1C476.9,114.7,476.8,113.8,476.8,112.8z"/>
	<path class="st2" d="M510.5,119.6c-0.2-0.8-0.4-1.6-0.5-2.6c-0.9,1-2,1.8-3.2,2.3c-1.1,0.5-2.3,0.7-3.5,0.7
		c-1.7,0.1-3.3-0.4-4.6-1.5c-1.2-1.1-1.8-2.7-1.7-4.3c-0.1-1.9,0.8-3.6,2.4-4.6c2.1-1.2,4.4-1.8,6.8-1.9l1.9-0.2l1.9-0.2v-1.8
		c0.1-1.2-0.3-2.3-1-3.2c-0.9-0.7-2-1.1-3.1-1c-2.1,0-4.2,0.5-6.1,1.5c-0.1-0.1-0.2-0.6-0.5-1.3l-0.4-1.1c1-0.6,2.1-1,3.2-1.3
		c1.2-0.3,2.5-0.5,3.8-0.5c2.5,0,4.4,0.6,5.5,1.7c1.1,1.1,1.7,3,1.7,5.7v13.5L510.5,119.6L510.5,119.6z M503.8,117.5
		c1.4,0,2.8-0.4,3.9-1.2c1.1-0.8,1.9-2,2.2-3.3v-3.4l-1.1,0.1l-1.3,0.1c-1.9,0-3.9,0.5-5.6,1.3c-1.1,0.7-1.7,1.9-1.6,3.1
		c-0.1,0.9,0.3,1.8,1,2.5C501.9,117.3,502.8,117.6,503.8,117.5L503.8,117.5z"/>
	<path class="st2" d="M523.7,120c-2,0-3.4-0.5-4.2-1.6c-0.8-1.1-1.2-2.9-1.2-5.6V91.3l3.1-0.2v20.5c0,0.8,0,1.5,0,2
		c0,0.5,0.1,1,0.1,1.5c0,0.4,0.1,0.8,0.3,1.1c0.1,0.3,0.3,0.5,0.5,0.7c0.2,0.2,0.5,0.3,0.8,0.4c0.4,0.1,0.8,0.1,1.2,0.1
		c0.8,0,1.6-0.1,2.3-0.2l0.2,2.5C525.9,119.8,524.8,120,523.7,120z"/>
	<path class="st2" d="M547.4,99.1c0.5,0,1,0,1.5,0.1l-0.1,2.8c-0.5-0.1-1-0.1-1.5-0.2c-1.6-0.1-3.2,0.6-4.2,1.8
		c-1.1,1.2-1.7,2.8-1.6,4.5v11.4h-3.1c0-12.5,0-19.3,0-20.3h2.6l0.3,3.7c0.7-1.1,1.6-2.1,2.7-2.8C545,99.4,546.2,99.1,547.4,99.1z"
		/>
	<path class="st2" d="M560.4,120c-2.6,0.1-5.2-0.9-7-2.8c-1.8-2.2-2.7-4.9-2.5-7.7c-0.1-2.8,0.8-5.5,2.5-7.7c1.6-1.9,4-3,6.5-3
		c2.3-0.1,4.5,0.9,6,2.6c1.6,2,2.3,4.4,2.2,6.9c0,0.1,0,0.4,0,0.8c0,0.4,0,0.7,0,0.8h-14c-0.1,2,0.5,3.9,1.8,5.4
		c1.2,1.3,2.9,2,4.7,1.9c2.3,0,4.5-0.6,6.5-1.7l0.5,2.5C565.3,119.4,562.9,120,560.4,120z M563.5,103c-0.9-1.1-2.3-1.7-3.7-1.6
		c-1.5,0-2.9,0.6-3.9,1.7c-1.1,1.3-1.7,2.9-1.8,4.6h10.7C565,106,564.5,104.3,563.5,103L563.5,103z"/>
	<path class="st2" d="M572.3,119.6V99.2h2.6l0.4,2.9c0.8-1,1.8-1.8,3-2.4c1.2-0.6,2.6-0.9,3.9-0.9c2.3,0,4.1,0.7,5.2,2
		c1.1,1.3,1.7,3.4,1.7,6.1v12.7H586c0-8.2,0-12.5,0-13.1c0.1-1.3-0.3-2.7-1-3.8c-0.8-0.9-2-1.3-3.3-1.2c-1.4-0.1-2.8,0.3-4,1.2
		c-1,0.7-1.8,1.8-2.1,3c-0.1,0.9-0.2,1.9-0.2,2.9v11.1L572.3,119.6L572.3,119.6z"/>
	<path class="st2" d="M608.3,116.7c-0.7,1-1.6,1.9-2.7,2.4c-3.4,1.7-7.5,0.9-10-2c-1.6-2.3-2.4-5-2.3-7.8c-0.1-2.7,0.7-5.4,2.3-7.6
		c1.5-1.9,3.8-3,6.2-2.9c1.3,0,2.6,0.3,3.8,0.9c1.1,0.5,2,1.3,2.7,2.4l-0.1-1.8v-9l3.1-0.2v28.4h-2.6L608.3,116.7z M602.2,117.4
		c1.8,0.1,3.5-0.6,4.6-2c1.1-1.7,1.6-3.6,1.5-5.6c0-2.7-0.5-4.8-1.4-6.2c-1.1-1.5-2.8-2.2-4.7-2.1c-0.9,0-1.7,0.2-2.5,0.6
		c-0.7,0.4-1.3,1-1.8,1.7c-0.5,0.8-0.8,1.6-1,2.5c-0.2,1-0.3,2.1-0.3,3.1c0,1.4,0.2,2.8,0.6,4.1c0.3,1.1,1,2.1,1.9,2.8
		C600,117,601.1,117.4,602.2,117.4L602.2,117.4z"/>
	<path class="st2" d="M625.4,120c-2.6,0.1-5.2-0.9-7-2.8c-1.8-2.2-2.7-4.9-2.5-7.7c-0.1-2.8,0.8-5.5,2.5-7.7c1.6-1.9,4-3,6.5-3
		c2.3-0.1,4.5,0.9,6,2.6c1.6,2,2.3,4.4,2.2,6.9c0,0.1,0,0.4,0,0.8c0,0.4,0,0.7,0,0.8h-14c-0.1,2,0.5,3.9,1.8,5.4
		c1.2,1.3,2.9,2,4.7,1.9c2.3,0,4.5-0.6,6.5-1.7l0.5,2.5C630.3,119.4,627.9,120,625.4,120z M628.5,103c-0.9-1.1-2.3-1.7-3.7-1.6
		c-1.5,0-2.9,0.6-3.9,1.7c-1.1,1.3-1.7,2.9-1.8,4.6h10.7C630,106,629.5,104.3,628.5,103z"/>
	<path class="st2" d="M646.5,99.1c0.5,0,1,0,1.5,0.1l-0.1,2.8c-0.5-0.1-1-0.1-1.5-0.2c-1.6-0.1-3.2,0.6-4.2,1.8
		c-1.1,1.2-1.7,2.8-1.6,4.5v11.4h-3.1c0-12.5,0-19.3,0-20.3h2.5l0.3,3.7c0.7-1.1,1.6-2.1,2.7-2.8C644,99.4,645.2,99.1,646.5,99.1z"
		/>
	<path class="st2" d="M659.4,120c-2.6,0.1-5.2-0.9-7-2.8c-1.8-2.2-2.7-4.9-2.5-7.7c-0.1-2.8,0.8-5.5,2.5-7.7c1.6-1.9,4-3,6.5-3
		c2.3-0.1,4.5,0.9,6,2.6c1.6,2,2.3,4.4,2.2,6.9c0,0.1,0,0.4,0,0.8c0,0.4,0,0.7,0,0.8h-14c-0.1,2,0.5,3.9,1.8,5.4
		c1.2,1.3,2.9,2,4.7,1.9c2.3,0,4.5-0.6,6.5-1.7l0.5,2.5C664.3,119.4,661.9,120,659.4,120z M662.5,103c-0.9-1.1-2.3-1.7-3.7-1.6
		c-1.5,0-2.9,0.6-3.9,1.7c-1.1,1.3-1.7,2.9-1.8,4.6h10.7C664,106,663.5,104.3,662.5,103z"/>
	<path class="st2" d="M685.4,116.7c-0.7,1-1.6,1.9-2.7,2.4c-3.4,1.7-7.5,0.9-10-2c-1.6-2.3-2.4-5-2.3-7.8c-0.1-2.7,0.7-5.4,2.3-7.6
		c1.5-1.9,3.8-3,6.2-2.9c1.3,0,2.6,0.3,3.8,0.9c1.1,0.5,2,1.3,2.7,2.4l-0.1-1.8v-9l3.1-0.2v28.4h-2.6L685.4,116.7z M679.3,117.4
		c1.8,0.1,3.5-0.6,4.6-2c1.1-1.7,1.6-3.6,1.5-5.6c0-2.7-0.5-4.8-1.4-6.2c-1.1-1.5-2.8-2.2-4.7-2.1c-0.9,0-1.7,0.2-2.5,0.6
		c-0.7,0.4-1.3,1-1.7,1.7c-0.5,0.8-0.8,1.6-1,2.5c-0.2,1-0.3,2.1-0.3,3.1c0,1.4,0.2,2.8,0.6,4.1c0.3,1.1,1,2.1,1.9,2.8
		C677,117,678.2,117.4,679.3,117.4L679.3,117.4z"/>
	<path class="st2" d="M720.9,119.6c-2.9-9.1-4.6-14.8-5.3-17.1c-0.4,1.3-0.8,2.8-1.3,4.4c-0.5,1.6-0.9,3-1.3,4.1l-1.5,4.4l-1.3,4.1
		h-3.3L701,99.2h3.2l4.4,16.7c0.6-2,2.4-7.6,5.3-16.7h3.5c2.9,9.3,4.7,14.9,5.2,16.6l4.3-16.6h3.2l-5.9,20.3L720.9,119.6
		L720.9,119.6z"/>
	<path class="st2" d="M736.8,91.8v3.7h-3.1v-3.7H736.8z M736.8,99.2v20.3h-3.1V99.2H736.8z"/>
	<path class="st2" d="M756.6,116.7c-0.7,1-1.6,1.9-2.7,2.4c-3.4,1.7-7.5,0.9-10-2c-1.6-2.3-2.4-5-2.3-7.8c-0.1-2.7,0.7-5.4,2.3-7.6
		c1.5-1.9,3.8-3,6.2-2.9c1.3,0,2.6,0.3,3.8,0.9c1.1,0.5,2,1.3,2.7,2.4l-0.1-1.8v-9l3.1-0.2v28.4H757L756.6,116.7z M750.5,117.4
		c1.8,0.1,3.5-0.6,4.6-2c1.1-1.7,1.6-3.6,1.5-5.6c0-2.7-0.5-4.8-1.4-6.2c-1.1-1.5-2.8-2.2-4.7-2.1c-0.9,0-1.7,0.2-2.5,0.6
		c-0.7,0.4-1.3,1-1.8,1.7c-0.5,0.8-0.8,1.6-1,2.5c-0.2,1-0.3,2.1-0.3,3.1c0,1.4,0.2,2.8,0.6,4.1c0.3,1.1,1,2.1,1.9,2.8
		C748.3,117,749.4,117.4,750.5,117.4L750.5,117.4z"/>
	<path class="st2" d="M771.6,120c-2,0-3.4-0.5-4.3-1.5c-1-1.4-1.4-3-1.3-4.7v-12.2h-3l0.1-2l2.9-0.3l1-4.7l2-0.1v4.7h5.7v2.3H769
		v11.7c-0.1,1.1,0.1,2.3,0.7,3.3c0.6,0.7,1.5,1,2.4,0.9c0.9-0.1,1.8-0.2,2.7-0.3l0.1,2.4C773.8,119.8,772.7,120,771.6,120z"/>
	<path class="st2" d="M792,119.6v-12.3c0.1-1.5-0.2-3.1-1-4.4c-0.8-1-2.1-1.5-3.4-1.4c-1.4,0-2.8,0.4-3.9,1.2c-1,0.7-1.8,1.8-2.1,3
		c-0.1,1-0.2,2.1-0.2,3.1v10.8h-3.1V91.3l3.1-0.2v8.3c0,0.7,0,1.6-0.1,2.6c1.7-2.1,4.2-3.3,6.9-3.2c4.5,0,6.8,2.7,6.8,8v12.8
		C795.1,119.6,792,119.6,792,119.6z"/>
</g>
<polyline class="st3" points="147,256.5 147,229.4 1059.1,229.4 1059.1,256.5 "/>
<line class="st3" x1="601" y1="229.4" x2="601" y2="188.2"/>
<g>
	<path class="st4" d="M548.9,162.8l-0.4-3l9.6-10.6c0.7-0.8,1.4-1.8,1.9-2.8c0.5-0.9,0.9-1.9,1.3-2.9l0.4-1.2
		c0.1-1.3-0.4-2.6-1.3-3.6c-1-0.9-2.3-1.4-3.6-1.3c-2.3-0.1-4.5,0.7-6.2,2.3l-1.1-2.8c1.7-1.6,4.2-2.4,7.5-2.4c2.2-0.1,4.3,0.6,6,2
		c1.5,1.4,2.3,3.4,2.2,5.5c0,0.2-0.1,0.4-0.2,0.7s-0.3,0.9-0.6,1.7s-0.7,1.6-1,2.4c-0.4,0.9-0.9,1.7-1.4,2.5c-0.5,0.8-1,1.6-1.7,2.3
		l-7.8,8.4h12.9l-0.2,2.9L548.9,162.8L548.9,162.8z"/>
	<path class="st4" d="M583.4,162.2c-2.7,1.4-5.9,1.4-8.6,0c-1.3-0.7-2.3-1.8-3-3.1c-0.8-1.4-1.4-2.9-1.7-4.5
		c-0.4-1.9-0.6-3.8-0.5-5.7c0-1.6,0.1-3.2,0.4-4.8c0.2-1.4,0.6-2.7,1.1-4c0.5-1.1,1.1-2.1,1.9-3c0.7-0.8,1.7-1.5,2.7-1.9
		c1.1-0.5,2.3-0.7,3.5-0.7c1.5,0,2.9,0.3,4.2,1c1.2,0.7,2.3,1.8,3,3c0.8,1.4,1.4,2.9,1.7,4.5c0.4,1.9,0.6,3.9,0.6,5.8
		c0,1.9-0.2,3.8-0.5,5.7c-0.3,1.6-0.9,3.1-1.7,4.5C585.6,160.4,584.6,161.4,583.4,162.2z M582.3,138.9c-1.5-1.8-4.2-2-6-0.5
		c-0.2,0.1-0.3,0.3-0.5,0.5c-1,1.2-1.7,2.5-2,4c-0.5,1.9-0.7,3.9-0.7,5.9c0,2,0.2,4,0.7,6c0.3,1.5,1,2.9,2,4.1c1.5,1.8,4.2,2,6,0.5
		c0.2-0.2,0.4-0.3,0.5-0.5c1-1.2,1.7-2.6,2-4.1c0.5-2,0.7-4,0.7-6c0-2-0.2-4-0.7-5.9C584,141.4,583.3,140,582.3,138.9z"/>
	<path class="st4" d="M606.4,162.2c-2.7,1.4-5.9,1.4-8.6,0c-1.3-0.7-2.3-1.8-3-3.1c-0.8-1.4-1.4-2.9-1.7-4.5
		c-0.4-1.9-0.6-3.8-0.5-5.7c0-1.6,0.1-3.2,0.4-4.8c0.2-1.4,0.6-2.7,1.1-4c0.5-1.1,1.1-2.1,1.9-3c0.7-0.8,1.7-1.5,2.7-1.9
		c1.1-0.5,2.3-0.7,3.5-0.7c1.5,0,2.9,0.3,4.2,1c1.2,0.7,2.3,1.8,3,3c0.8,1.4,1.4,2.9,1.7,4.5c0.4,1.9,0.6,3.9,0.6,5.8
		c0,1.9-0.2,3.8-0.5,5.7c-0.3,1.6-0.9,3.1-1.7,4.5C608.7,160.4,607.6,161.4,606.4,162.2z M605.3,138.9c-1.5-1.8-4.2-2-6-0.5
		c-0.2,0.1-0.3,0.3-0.5,0.5c-1,1.2-1.7,2.5-2,4c-0.5,1.9-0.7,3.9-0.7,5.9c0,2,0.2,4,0.7,6c0.3,1.5,1,2.9,2,4.1c1.5,1.8,4.2,2,6,0.5
		c0.2-0.2,0.4-0.3,0.5-0.5c1-1.2,1.7-2.6,2-4.1c0.5-2,0.7-4,0.7-6c0-2-0.2-4-0.7-5.9C607,141.4,606.3,140,605.3,138.9L605.3,138.9z"
		/>
	<path class="st4" d="M616.2,171.7v-29.2h2.8l0.3,2.8c1.5-2,3.9-3.2,6.4-3.2c1.7-0.1,3.3,0.4,4.7,1.4c1.3,0.9,2.3,2.3,2.8,3.8
		c0.6,1.8,1,3.7,0.9,5.6c0,1.9-0.3,3.7-1,5.4c-0.6,1.5-1.6,2.8-2.9,3.7c-1.3,0.9-2.9,1.4-4.5,1.4c-1.3,0-2.5-0.3-3.7-0.9
		c-1.1-0.5-2-1.3-2.8-2.3c0.1,1.3,0.1,2.6,0.1,3.9v7.5L616.2,171.7z M625.2,160.7c0.9,0,1.8-0.2,2.5-0.6c0.7-0.4,1.4-1,1.8-1.8
		c0.5-0.8,0.8-1.6,1-2.5c0.2-1,0.4-2,0.3-3.1c0.1-2-0.4-4-1.5-5.7c-0.9-1.5-2.6-2.3-4.3-2.2c-3.9,0-5.9,2.5-5.9,7.6
		c-0.1,2.2,0.3,4.3,1.4,6.2C621.7,160,623.4,160.8,625.2,160.7L625.2,160.7z"/>
	<path class="st4" d="M643.5,152.5l-7.2-10h3.5l5.4,7.8l5.5-7.8h3.5l-7.2,10l7.4,10.3H651l-5.7-8.2l-5.7,8.2H636L643.5,152.5z"/>
</g>
</svg>
