<?xml version="1.0" encoding="utf-8"?>
<!-- Generator: Adobe Illustrator 23.0.3, SVG Export Plug-In . SVG Version: 6.00 Build 0)  -->
<svg version="1.1" id="BG" xmlns="http://www.w3.org/2000/svg" xmlns:xlink="http://www.w3.org/1999/xlink" x="0px" y="0px"
	 viewBox="0 0 1214 941" style="enable-background:new 0 0 1214 941;" xml:space="preserve">
<style type="text/css">
	.st0{fill:#7A98A9;}
	.st1{fill:#4E768D;}
	.st2{fill:#FFFFFF;}
	.st3{opacity:0.5;fill:#4E768D;enable-background:new    ;}
</style>
<path class="st0" d="M491.5,235.5v-16.9h9.4l-0.1,1.2h-7.9v6.4h7.5v1.2h-7.5v6.9h8.1l-0.1,1.2L491.5,235.5L491.5,235.5z"/>
<path class="st0" d="M510.9,235.5v-11.4h-4.6v11.4h-1.4v-11.4h-2l0.1-0.9l2-0.2v-0.5c-0.1-1.2,0.2-2.5,0.9-3.6
	c0.6-0.8,1.6-1.2,2.6-1.1c0.6,0,1.2,0.1,1.7,0.2l-0.1,0.9c-0.7-0.1-1.2-0.1-1.5-0.1c-0.7-0.1-1.4,0.2-1.8,0.8
	c-0.4,0.9-0.5,1.9-0.5,2.9v0.4h4.6v-0.5c-0.1-1.2,0.2-2.5,0.9-3.6c0.6-0.8,1.6-1.2,2.6-1.1c0.6,0,1.2,0.1,1.7,0.2L516,219
	c-0.7-0.1-1.2-0.1-1.5-0.1c-0.7-0.1-1.4,0.2-1.8,0.8c-0.4,0.9-0.5,1.9-0.5,2.9v0.4h3v1h-3v11.4L510.9,235.5L510.9,235.5z"/>
<path class="st0" d="M522.2,235.8c-1.6,0.1-3.1-0.6-4.1-1.7c-1.1-1.3-1.6-3-1.5-4.7c-0.1-1.7,0.5-3.3,1.5-4.7
	c0.9-1.2,2.3-1.9,3.8-1.9c1.4,0,2.7,0.5,3.5,1.6c0.9,1.2,1.4,2.7,1.3,4.2c0,0.1,0,0.2,0,0.4s0,0.4,0,0.4h-8.7
	c-0.1,1.4,0.4,2.7,1.2,3.8c0.7,0.9,1.8,1.4,3,1.4c0.7,0,1.4-0.1,2.1-0.3c0.6-0.2,1.3-0.5,1.9-0.8l0.2,1.1
	C525.2,235.4,523.7,235.8,522.2,235.8z M518.1,228.3h7.1c0.1-1.1-0.2-2.3-0.9-3.2c-0.6-0.7-1.5-1.2-2.5-1.1c-1,0-1.9,0.4-2.6,1.2
	C518.6,226.1,518.2,227.2,518.1,228.3L518.1,228.3z"/>
<path class="st0" d="M534.7,235.8c-1.1,0-2.2-0.3-3.1-0.9c-0.9-0.6-1.6-1.4-2-2.3c-0.4-1-0.7-2.1-0.7-3.2c0-0.9,0.1-1.7,0.4-2.5
	c0.2-0.8,0.6-1.5,1.1-2.1c0.5-0.6,1.1-1.1,1.8-1.4c0.8-0.4,1.6-0.5,2.5-0.5c0.6,0,1.2,0.1,1.8,0.2c0.5,0.1,0.9,0.3,1.3,0.6l-0.4,1.1
	c-0.9-0.5-1.8-0.7-2.8-0.7c-1.2,0-2.4,0.5-3.1,1.5c-0.8,1.1-1.2,2.5-1.1,3.9c-0.1,1.3,0.3,2.7,1.1,3.8c0.7,0.9,1.9,1.5,3.1,1.4
	c1,0,2-0.3,2.9-0.7l0.2,1c-0.4,0.3-0.9,0.5-1.4,0.6C535.9,235.7,535.3,235.8,534.7,235.8z"/>
<path class="st0" d="M544,235.8c-0.8,0.1-1.6-0.2-2.3-0.7c-0.5-0.6-0.8-1.5-0.7-2.3v-8.6h-1.8l0.1-0.9l1.7-0.2l0.4-2.9l1-0.1v2.9
	h3.6v1h-3.6v8.4c-0.1,0.6,0.1,1.2,0.4,1.8c0.4,0.3,1,0.5,1.5,0.4c0.6,0,1.2-0.1,1.8-0.3l0.1,1.1C545.4,235.6,544.7,235.7,544,235.8z
	"/>
<path class="st0" d="M548.3,220.5v-1.9h1.4v1.9H548.3z M548.3,235.5v-12.5h1.4v12.4L548.3,235.5L548.3,235.5z"/>
<path class="st0" d="M556.3,235.5l-4.7-12.4h1.5l2.9,7.8c0.2,0.5,0.3,1,0.5,1.6c0.2,0.6,0.4,1,0.5,1.3l0.2,0.5
	c0.2-0.5,0.3-1.1,0.6-1.6c0.2-0.6,0.4-1.1,0.6-1.7s0.6-1.6,1.1-2.9c0.5-1.3,1.1-3,1.8-4.9h1.5l-4.8,12.4L556.3,235.5L556.3,235.5z"
	/>
<path class="st0" d="M569.5,235.8c-1.6,0.1-3.1-0.6-4.1-1.7c-1.1-1.3-1.6-3-1.5-4.7c-0.1-1.7,0.5-3.3,1.5-4.7
	c0.9-1.2,2.3-1.9,3.8-1.9c1.4,0,2.7,0.5,3.5,1.6c0.9,1.2,1.4,2.7,1.3,4.2c0,0.1,0,0.2,0,0.4s0,0.4,0,0.4h-8.7
	c-0.1,1.4,0.4,2.7,1.2,3.8c0.7,0.9,1.8,1.4,3,1.4c0.7,0,1.4-0.1,2.1-0.3c0.6-0.2,1.3-0.5,1.9-0.8l0.2,1.1
	C572.5,235.4,571,235.8,569.5,235.8z M565.4,228.3h7.1c0.1-1.1-0.2-2.3-0.9-3.2c-0.6-0.7-1.5-1.2-2.5-1.1c-1,0-1.9,0.4-2.6,1.2
	C565.9,226.1,565.5,227.2,565.4,228.3L565.4,228.3z"/>
<path class="st0" d="M586.8,235.8c-1.5,0.1-2.9-0.6-3.9-1.7c-1-1.4-1.5-3.1-1.4-4.8c-0.1-1.7,0.4-3.3,1.4-4.6
	c0.9-1.2,2.3-1.8,3.8-1.8c0.8,0,1.6,0.2,2.3,0.5c0.7,0.3,1.4,0.9,1.8,1.6v-6.6l1.4-0.1v17.4H591l-0.2-1.9c-0.4,0.7-1,1.2-1.8,1.6
	C588.3,235.6,587.6,235.8,586.8,235.8z M586.8,234.7c0.6,0,1.3-0.1,1.8-0.4c0.5-0.2,1-0.6,1.3-1.1c0.3-0.5,0.6-1,0.7-1.6
	c0.2-0.7,0.2-1.3,0.2-2c0-3.7-1.4-5.6-4.1-5.6c-0.6,0-1.2,0.1-1.7,0.5c-0.5,0.3-0.9,0.7-1.2,1.2c-0.3,0.5-0.5,1.1-0.6,1.7
	c-0.1,0.6-0.2,1.3-0.2,1.9c0,0.5,0,1.1,0.1,1.6c0.1,0.5,0.2,1,0.4,1.5c0.2,0.4,0.4,0.8,0.7,1.2c0.3,0.3,0.7,0.6,1.1,0.8
	C585.8,234.6,586.3,234.7,586.8,234.7L586.8,234.7z"/>
<path class="st0" d="M595.7,220.5v-1.9h1.4v1.9H595.7z M595.7,235.5v-12.5h1.4v12.4L595.7,235.5L595.7,235.5z"/>
<path class="st0" d="M604.2,235.8c-0.8,0-1.5-0.1-2.3-0.3c-0.6-0.1-1.2-0.4-1.7-0.7l0.2-1.2c1.1,0.6,2.3,1,3.6,1
	c2,0,3.1-0.8,3.2-2.3c0-0.6-0.2-1.1-0.6-1.5c-0.8-0.5-1.6-0.9-2.5-1.1l-1.1-0.4c-1.9-0.6-2.9-1.6-2.9-3.1c0-0.9,0.4-1.8,1.2-2.3
	c0.9-0.7,2-1.1,3.1-1c1.3,0,2.5,0.3,3.7,0.8l-0.5,1c-1-0.4-2.1-0.6-3.2-0.7c-0.7,0-1.5,0.2-2.1,0.6c-0.5,0.4-0.8,1-0.8,1.6
	c0,0.5,0.1,1,0.5,1.3c0.6,0.4,1.3,0.7,2,0.9l0.6,0.2l0.5,0.2c1,0.2,2,0.7,2.7,1.4c0.5,0.6,0.8,1.4,0.8,2.2c0,1-0.4,1.9-1.2,2.5
	C606.4,235.5,605.3,235.9,604.2,235.8z"/>
<path class="st0" d="M614.8,235.8c-0.8,0.1-1.6-0.2-2.3-0.7c-0.5-0.6-0.8-1.5-0.7-2.3v-8.6H610l0.1-0.9l1.7-0.2l0.4-2.9l1-0.1v2.9
	h3.6v1h-3.6v8.4c-0.1,0.6,0.1,1.2,0.4,1.8c0.4,0.3,1,0.5,1.5,0.4c0.6,0,1.2-0.1,1.8-0.3l0.1,1.1
	C616.2,235.6,615.5,235.7,614.8,235.8z"/>
<path class="st0" d="M622.3,235.8c-1,0.1-2-0.3-2.8-0.9c-0.7-0.6-1.1-1.6-1.1-2.5c0-0.6,0.1-1.2,0.4-1.7c0.3-0.5,0.7-0.9,1.2-1.2
	c0.6-0.3,1.2-0.6,1.8-0.7c0.8-0.2,1.6-0.3,2.4-0.4l2.2-0.1v-1.4c0.1-0.8-0.2-1.5-0.7-2.1c-0.6-0.5-1.3-0.8-2.1-0.7
	c-1.3,0-2.6,0.3-3.7,0.9l-0.2-0.5c-0.1-0.2-0.2-0.4-0.2-0.6c0.6-0.3,1.2-0.6,1.8-0.8c0.7-0.2,1.5-0.3,2.2-0.3c1.2-0.1,2.3,0.3,3.2,1
	c0.8,1,1.1,2.2,1,3.4v8.3h-1.1c0-0.2-0.1-0.5-0.2-1c-0.1-0.5-0.1-0.8-0.1-0.8C625.5,235.1,623.9,235.9,622.3,235.8z M622.3,234.7
	c0.9,0,1.8-0.3,2.6-0.9c0.8-0.6,1.3-1.4,1.5-2.4v-2.1l-1.7,0.1c-1.3,0-2.6,0.3-3.8,0.9c-0.7,0.4-1.1,1.2-1.1,2
	c0,0.6,0.2,1.3,0.7,1.7C621,234.5,621.6,234.7,622.3,234.7L622.3,234.7z"/>
<path class="st0" d="M631.2,235.5v-12.4h1.2l0.2,1.9c0.5-0.7,1.1-1.2,1.8-1.6c0.8-0.4,1.6-0.6,2.4-0.6c1.2-0.1,2.4,0.3,3.2,1.1
	c0.8,1.1,1.1,2.4,1,3.8v7.7h-1.4v-8.4c0-0.8-0.2-1.7-0.7-2.4c-0.6-0.5-1.3-0.8-2.1-0.7c-1,0-2,0.3-2.8,0.9c-0.7,0.5-1.2,1.3-1.3,2.2
	c0,0.4,0,0.7,0,1.1v7.3L631.2,235.5L631.2,235.5z"/>
<path class="st0" d="M649.4,235.8c-1.1,0-2.2-0.3-3.1-0.9c-0.9-0.6-1.6-1.4-2-2.3c-0.4-1-0.7-2.1-0.7-3.2c0-0.9,0.1-1.7,0.4-2.5
	c0.2-0.8,0.6-1.5,1.1-2.1c0.5-0.6,1.1-1.1,1.8-1.4c0.8-0.4,1.6-0.5,2.5-0.5c0.6,0,1.2,0.1,1.8,0.2c0.5,0.1,0.9,0.3,1.3,0.6l-0.4,1.1
	c-0.9-0.5-1.8-0.7-2.8-0.7c-1.2,0-2.4,0.5-3.1,1.5c-0.8,1.1-1.2,2.5-1.1,3.9c-0.1,1.3,0.3,2.7,1.1,3.8c0.7,0.9,1.9,1.5,3.1,1.4
	c1,0,2-0.3,2.9-0.7l0.2,1c-0.4,0.3-0.9,0.5-1.4,0.6C650.6,235.7,650,235.8,649.4,235.8z"/>
<path class="st0" d="M660.2,235.8c-1.6,0.1-3.1-0.6-4.1-1.7c-1.1-1.3-1.6-3-1.5-4.7c-0.1-1.7,0.5-3.3,1.5-4.7
	c0.9-1.2,2.3-1.9,3.8-1.9c1.4,0,2.7,0.5,3.5,1.6c0.9,1.2,1.4,2.7,1.3,4.2c0,0.1,0,0.2,0,0.4s0,0.4,0,0.4h-8.7
	c-0.1,1.4,0.4,2.7,1.2,3.8c0.7,0.9,1.8,1.4,3,1.4c0.7,0,1.4-0.1,2.1-0.3c0.6-0.2,1.3-0.5,1.9-0.8l0.2,1.1
	C663.2,235.4,661.7,235.8,660.2,235.8z M656.1,228.3h7.1c0.1-1.1-0.2-2.3-0.9-3.2c-0.6-0.7-1.5-1.2-2.5-1.1c-1,0-1.9,0.4-2.6,1.2
	C656.6,226.1,656.2,227.2,656.1,228.3L656.1,228.3z"/>
<path class="st0" d="M672.6,235.5l-0.3-1.4l5.9-6.9c0.6-0.7,1.2-1.5,1.7-2.4c0.4-0.6,0.6-1.3,0.6-2c0.1-0.9-0.2-1.8-0.8-2.5
	c-0.6-0.6-1.4-0.9-2.3-0.9c-0.7,0-1.4,0.1-2.1,0.3c-0.6,0.2-1.2,0.5-1.7,0.9l-0.5-1.1c1.2-1,2.8-1.5,4.4-1.4
	c1.3-0.1,2.5,0.4,3.4,1.2c0.8,0.8,1.3,2,1.2,3.1c0,0.9-0.2,1.8-0.7,2.6c-0.6,1.1-1.3,2.1-2.2,3l-5.1,5.9h8.1l-0.1,1.4L672.6,235.5
	L672.6,235.5z"/>
<path class="st0" d="M693.5,235.1c-0.8,0.4-1.6,0.7-2.5,0.6c-1.8,0.1-3.4-0.9-4.3-2.5c-0.5-0.9-0.8-1.8-1-2.8
	c-0.2-1.2-0.3-2.4-0.3-3.6c-0.1-2.3,0.4-4.6,1.5-6.6c0.9-1.5,2.4-2.3,4.1-2.3c1.7-0.1,3.3,0.8,4.2,2.3c1.1,2,1.6,4.3,1.4,6.6
	c0,1.2-0.1,2.4-0.3,3.6c-0.2,1-0.5,1.9-1,2.8C694.8,234.1,694.2,234.7,693.5,235.1z M691,234.5c1.3-0.1,2.4-0.9,2.8-2.1
	c0.8-1.8,1.2-3.7,1.1-5.6c0.1-1.9-0.3-3.8-1.1-5.5c-0.5-1.5-2.1-2.4-3.7-1.9c-0.9,0.3-1.6,1-1.9,1.9c-0.8,1.7-1.1,3.6-1,5.5
	c-0.1,1.9,0.3,3.8,1.1,5.6C688.7,233.6,689.7,234.4,691,234.5L691,234.5z"/>
<path class="st0" d="M699.6,241.1v-18h1.3l0.1,1.8c0.5-0.6,1.1-1.1,1.8-1.5c0.6-0.3,1.4-0.5,2.1-0.5c1.5-0.1,3,0.5,4,1.8
	c1,1.4,1.4,3.1,1.3,4.8c0.1,1.6-0.4,3.3-1.4,4.6c-0.9,1.2-2.3,1.8-3.8,1.8c-0.8,0-1.6-0.2-2.3-0.6c-0.7-0.4-1.3-0.9-1.7-1.5
	c0,0.9,0.1,1.9,0.1,2.8v4.6L699.6,241.1z M704.9,234.6c0.6,0,1.2-0.2,1.7-0.5c0.5-0.3,0.9-0.7,1.2-1.2c0.3-0.5,0.5-1.1,0.7-1.7
	c0.1-0.6,0.2-1.3,0.2-1.9c0-0.6-0.1-1.3-0.2-1.9c-0.1-0.6-0.4-1.2-0.7-1.7c-0.3-0.5-0.7-0.9-1.2-1.2c-0.5-0.3-1.1-0.5-1.7-0.5
	c-0.6,0-1.3,0.1-1.8,0.4c-0.5,0.2-0.9,0.6-1.2,1.1c-0.3,0.5-0.5,1-0.7,1.6c-0.1,0.7-0.2,1.3-0.2,2c0,0.8,0.1,1.5,0.2,2.3
	c0.1,0.6,0.3,1.2,0.6,1.7c0.3,0.5,0.7,0.9,1.2,1.1C703.6,234.5,704.2,234.6,704.9,234.6L704.9,234.6z"/>
<path class="st0" d="M711.3,235.5l4.6-6.3l-4.5-6.1h1.6l3.6,5.1l3.6-5.1h1.6l-4.5,6.2l4.6,6.2h-1.5l-3.8-5.3l-3.8,5.3L711.3,235.5
	L711.3,235.5z"/>
<polygon class="st1" points="606.4,271.6 606.4,248.9 605.4,248.9 605.4,271.6 582.2,271.6 582.2,295.4 583.2,295.4 583.2,272.6 
	628.6,272.6 628.6,295.4 629.6,295.4 629.6,271.6 "/>
<path class="st0" d="M51.6,518.4v-16.9H61l-0.1,1.2H53v6.4h7.5v1.2H53v6.9h8.2l-0.1,1.2L51.6,518.4L51.6,518.4z"/>
<path class="st0" d="M71,518.4V507h-4.7v11.4h-1.4V507h-2l0.1-0.9l2-0.2v-0.5c-0.1-1.2,0.2-2.4,0.8-3.5c0.6-0.8,1.6-1.2,2.6-1.1
	c0.6,0,1.2,0.1,1.7,0.2l-0.1,0.9c-0.7-0.1-1.2-0.1-1.5-0.1c-0.7-0.1-1.4,0.2-1.8,0.8c-0.4,0.9-0.5,1.9-0.5,2.9v0.4H71v-0.5
	c-0.1-1.2,0.2-2.5,0.9-3.6c0.6-0.8,1.6-1.2,2.6-1.1c0.6,0,1.2,0.1,1.7,0.2l-0.1,0.9c-0.7-0.1-1.2-0.1-1.5-0.1
	c-0.7-0.1-1.4,0.2-1.8,0.8c-0.4,0.9-0.5,1.9-0.5,2.9v0.4h3v1h-3v11.4L71,518.4L71,518.4z"/>
<path class="st0" d="M82.3,518.7c-1.5,0.1-3.1-0.5-4.1-1.7c-1.1-1.3-1.6-3-1.5-4.7c-0.1-1.7,0.5-3.3,1.5-4.7
	c0.9-1.2,2.3-1.9,3.8-1.9c1.4,0,2.7,0.5,3.5,1.6c0.9,1.2,1.4,2.7,1.3,4.2c0,0.1,0,0.2,0,0.4c0,0.2,0,0.4,0,0.4h-8.7
	c-0.1,1.4,0.4,2.7,1.2,3.8c0.7,0.9,1.8,1.4,3,1.4c0.7,0,1.4-0.1,2.1-0.3c0.6-0.2,1.3-0.5,1.9-0.8l0.2,1.1
	C85.3,518.3,83.8,518.7,82.3,518.7z M78.2,511.2h7.1c0.1-1.1-0.2-2.3-0.9-3.2c-0.6-0.7-1.5-1.1-2.4-1.1c-1,0-1.9,0.4-2.6,1.2
	C78.7,509.1,78.3,510.1,78.2,511.2L78.2,511.2z"/>
<path class="st0" d="M94.9,518.7c-1.1,0-2.2-0.3-3.1-0.9c-0.9-0.6-1.6-1.4-2-2.3c-0.4-1-0.7-2.1-0.7-3.2c0-0.9,0.1-1.7,0.4-2.5
	c0.2-0.8,0.6-1.5,1.1-2.1c0.5-0.6,1.1-1.1,1.8-1.4c0.8-0.4,1.6-0.5,2.5-0.5c0.6,0,1.2,0.1,1.8,0.2c0.5,0.1,0.9,0.3,1.3,0.6l-0.4,1
	c-0.9-0.5-1.8-0.7-2.8-0.7c-1.2,0-2.4,0.5-3.1,1.5c-0.8,1.1-1.2,2.5-1.1,3.9c-0.1,1.3,0.3,2.7,1.1,3.8c0.7,0.9,1.9,1.5,3.1,1.4
	c1,0,2-0.3,2.9-0.7l0.2,1c-0.4,0.3-0.9,0.5-1.4,0.6C96,518.6,95.4,518.7,94.9,518.7z"/>
<path class="st0" d="M104.1,518.7c-0.8,0.1-1.6-0.2-2.3-0.7c-0.5-0.6-0.8-1.5-0.7-2.3V507h-1.7l0.1-0.9l1.7-0.2l0.4-2.9l1-0.1v2.9
	h3.6v1h-3.6v8.3c-0.1,0.6,0.1,1.2,0.4,1.8c0.4,0.3,1,0.5,1.5,0.5c0.6,0,1.2-0.1,1.8-0.3l0.1,1.1
	C105.6,518.6,104.8,518.7,104.1,518.7z"/>
<path class="st0" d="M108.4,503.5v-1.9h1.4v1.9H108.4z M108.4,518.5V506h1.4v12.4L108.4,518.5L108.4,518.5z"/>
<path class="st0" d="M116.4,518.4l-4.7-12.4h1.5l2.9,7.8c0.2,0.5,0.3,1,0.5,1.6s0.4,1,0.5,1.3l0.2,0.5c0.2-0.5,0.3-1.1,0.6-1.6
	c0.2-0.6,0.4-1.1,0.6-1.7c0.2-0.6,0.6-1.6,1.1-2.9c0.5-1.3,1.1-3,1.8-4.9h1.5l-4.8,12.4L116.4,518.4L116.4,518.4z"/>
<path class="st0" d="M129.6,518.7c-1.6,0.1-3.1-0.6-4.1-1.7c-1.1-1.3-1.6-3-1.5-4.7c-0.1-1.7,0.5-3.3,1.5-4.7
	c0.9-1.2,2.3-1.9,3.8-1.9c1.4,0,2.7,0.5,3.5,1.6c0.9,1.2,1.4,2.7,1.3,4.2c0,0.1,0,0.2,0,0.4s0,0.3,0,0.4h-8.7
	c-0.1,1.4,0.4,2.7,1.2,3.8c0.7,0.9,1.8,1.4,3,1.4c0.7,0,1.4-0.1,2.1-0.3c0.6-0.2,1.3-0.5,1.9-0.8l0.2,1.1
	C132.6,518.3,131.1,518.7,129.6,518.7z M125.6,511.2h7.1c0.1-1.1-0.2-2.3-0.9-3.2c-0.6-0.7-1.5-1.2-2.5-1.1c-1,0-1.9,0.4-2.6,1.2
	C126,509,125.6,510.1,125.6,511.2L125.6,511.2z"/>
<path class="st0" d="M56.2,546.6c-1.5,0.1-2.9-0.6-3.9-1.7c-1-1.4-1.5-3.1-1.4-4.8c-0.1-1.7,0.4-3.3,1.4-4.7
	c0.9-1.2,2.3-1.8,3.8-1.8c0.8,0,1.6,0.2,2.3,0.5c0.7,0.3,1.4,0.9,1.8,1.5V529l1.4-0.1v17.4h-1.2l-0.2-1.9c-0.4,0.7-1,1.2-1.8,1.6
	C57.8,546.4,57,546.6,56.2,546.6z M56.2,545.5c0.6,0,1.3-0.1,1.8-0.4c0.5-0.2,0.9-0.6,1.2-1.1c0.3-0.5,0.6-1,0.7-1.6
	c0.2-0.7,0.2-1.3,0.2-2c0-3.7-1.4-5.5-4.1-5.5c-0.6,0-1.2,0.1-1.7,0.5c-0.5,0.3-0.9,0.7-1.2,1.2c-0.3,0.5-0.5,1.1-0.6,1.7
	c-0.1,0.6-0.2,1.3-0.2,1.9c0,0.5,0,1.1,0.1,1.6c0.1,0.5,0.2,1,0.4,1.4c0.2,0.4,0.4,0.8,0.7,1.2c0.3,0.3,0.7,0.6,1.1,0.8
	C55.2,545.4,55.7,545.5,56.2,545.5L56.2,545.5z"/>
<path class="st0" d="M65.1,531.3v-1.9h1.4v1.9H65.1z M65.1,546.3v-12.5h1.4v12.4L65.1,546.3L65.1,546.3z"/>
<path class="st0" d="M73.6,546.6c-0.8,0-1.5-0.1-2.3-0.3c-0.6-0.1-1.2-0.4-1.7-0.7l0.2-1.2c1.1,0.6,2.3,1,3.6,1c2,0,3.1-0.8,3.2-2.3
	c0-0.6-0.2-1.1-0.6-1.5c-0.8-0.5-1.6-0.9-2.5-1.1l-1.1-0.4c-1.9-0.6-2.9-1.6-2.9-3.1c0-0.9,0.4-1.8,1.2-2.3c0.9-0.7,2-1.1,3.1-1
	c1.3,0,2.5,0.3,3.7,0.8l-0.5,1c-1-0.4-2.1-0.6-3.2-0.7c-0.7,0-1.5,0.2-2.1,0.6c-0.5,0.4-0.7,1-0.7,1.6c0,0.5,0.1,1,0.5,1.3
	c0.6,0.4,1.3,0.7,2,0.9l0.6,0.2l0.5,0.2c1,0.2,2,0.7,2.7,1.4c0.5,0.6,0.8,1.4,0.8,2.2c0,1-0.4,1.9-1.2,2.5
	C75.9,546.4,74.8,546.7,73.6,546.6z"/>
<path class="st0" d="M84.2,546.6c-0.8,0.1-1.6-0.2-2.3-0.7c-0.5-0.6-0.8-1.5-0.7-2.3v-8.7h-1.8l0.1-0.8l1.7-0.2l0.4-2.8l1-0.1v2.9
	h3.6v1h-3.6v8.3c-0.1,0.6,0.1,1.3,0.4,1.8c0.4,0.3,1,0.5,1.5,0.5c0.6,0,1.2-0.1,1.8-0.3l0.1,1.1C85.6,546.4,84.9,546.5,84.2,546.6z"
	/>
<path class="st0" d="M91.7,546.6c-1,0.1-2-0.3-2.8-0.9c-0.7-0.6-1.1-1.6-1.1-2.5c0-0.6,0.1-1.2,0.4-1.7c0.3-0.5,0.7-0.9,1.2-1.2
	c0.6-0.3,1.2-0.6,1.8-0.7c0.8-0.2,1.6-0.3,2.4-0.3l2.2-0.2v-1.4c0.1-0.8-0.2-1.5-0.7-2.2c-0.6-0.5-1.3-0.8-2.1-0.7
	c-1.3,0-2.6,0.3-3.7,0.9l-0.2-0.5c-0.1-0.3-0.2-0.5-0.2-0.6c0.6-0.3,1.2-0.6,1.8-0.7c0.7-0.2,1.5-0.3,2.2-0.3c1.2-0.1,2.3,0.3,3.2,1
	c0.8,1,1.1,2.2,1,3.4v8.3h-1.1c0-0.2-0.1-0.5-0.2-1c-0.1-0.5-0.1-0.8-0.1-0.8C94.9,545.9,93.3,546.7,91.7,546.6z M91.7,545.5
	c0.9,0,1.8-0.3,2.6-0.9c0.8-0.6,1.3-1.4,1.5-2.4v-2.1l-1.7,0.1c-1.3,0-2.6,0.3-3.8,0.9c-0.7,0.4-1.1,1.2-1.1,2
	c0,0.6,0.2,1.3,0.7,1.7C90.4,545.3,91.1,545.5,91.7,545.5L91.7,545.5z"/>
<path class="st0" d="M100.6,546.3v-12.4h1.2l0.2,1.9c0.5-0.7,1.1-1.2,1.8-1.6c0.8-0.4,1.6-0.6,2.4-0.6c1.2-0.1,2.3,0.3,3.2,1.2
	c0.8,1.1,1.1,2.4,1,3.8v7.7H109V538c0-0.8-0.2-1.7-0.7-2.4c-0.6-0.5-1.3-0.8-2.1-0.7c-1,0-2,0.3-2.8,0.8c-0.7,0.5-1.2,1.3-1.3,2.2
	c0,0.4,0,0.7,0,1.1v7.3L100.6,546.3L100.6,546.3z"/>
<path class="st0" d="M118.8,546.6c-1.1,0-2.2-0.3-3.1-0.9c-0.9-0.6-1.6-1.4-2-2.3c-0.4-1-0.7-2.1-0.7-3.2c0-0.9,0.1-1.7,0.4-2.5
	c0.2-0.8,0.6-1.5,1.1-2.1c0.5-0.6,1.1-1.1,1.8-1.4c0.8-0.4,1.6-0.5,2.5-0.5c0.6,0,1.2,0.1,1.8,0.2c0.5,0.1,0.9,0.3,1.3,0.6l-0.4,1
	c-0.9-0.5-1.8-0.7-2.8-0.7c-1.2,0-2.4,0.5-3.1,1.5c-0.8,1.1-1.2,2.5-1.1,3.9c-0.1,1.3,0.3,2.7,1.1,3.8c0.7,0.9,1.9,1.5,3.1,1.4
	c1,0,2-0.3,2.9-0.7l0.2,1c-0.4,0.3-0.9,0.5-1.4,0.6C120,546.5,119.4,546.6,118.8,546.6z"/>
<path class="st0" d="M129.6,546.6c-1.6,0.1-3.1-0.6-4.1-1.7c-1.1-1.3-1.6-3-1.5-4.7c-0.1-1.7,0.5-3.3,1.5-4.7
	c0.9-1.2,2.3-1.9,3.8-1.9c1.4,0,2.7,0.5,3.5,1.6c0.9,1.2,1.4,2.7,1.3,4.2c0,0.1,0,0.2,0,0.4s0,0.3,0,0.4h-8.7
	c-0.1,1.4,0.4,2.7,1.2,3.8c0.7,0.9,1.8,1.4,3,1.4c0.7,0,1.4-0.1,2.1-0.3c0.6-0.2,1.3-0.5,1.9-0.8l0.2,1.1
	C132.6,546.2,131.1,546.6,129.6,546.6z M125.6,539.1h7.1c0.1-1.1-0.2-2.3-0.9-3.2c-0.6-0.7-1.5-1.2-2.5-1.1c-1,0-1.9,0.4-2.6,1.2
	C126,536.9,125.6,538,125.6,539.1z"/>
<path class="st0" d="M95.6,574.5c-0.9,0-1.8-0.1-2.7-0.4c-0.6-0.2-1.1-0.5-1.6-0.8l0.5-1.2c1,0.8,2.3,1.2,3.6,1.2
	c1,0.1,2.1-0.3,2.9-1c0.7-0.7,1.1-1.7,1.1-2.7c0-0.5-0.1-1.1-0.3-1.6c-0.1-0.4-0.4-0.8-0.7-1.1c-0.3-0.3-0.7-0.5-1.1-0.7
	c-0.4-0.2-0.9-0.3-1.4-0.4c-0.5-0.1-1.1-0.1-1.6-0.1h-0.7v-1.3h0.5c0.4,0,0.8,0,1.2-0.1c0.4,0,0.7-0.1,1.1-0.2
	c0.3-0.1,0.7-0.2,1-0.4c0.3-0.2,0.5-0.4,0.8-0.6c0.2-0.2,0.4-0.5,0.5-0.9c0.1-0.4,0.2-0.8,0.2-1.2c0-2-1.1-3-3.3-3
	c-0.7,0-1.4,0.1-2.1,0.3c-0.6,0.2-1.1,0.5-1.6,0.9l-0.5-1.2c1-0.8,2.5-1.2,4.7-1.2c0.5,0,1.1,0.1,1.6,0.2c0.5,0.2,1,0.4,1.4,0.8
	c0.4,0.3,0.8,0.8,1,1.2c0.3,0.6,0.4,1.2,0.4,1.8c0.2,1.9-1.1,3.7-3,4.1c2.1,0.4,3.6,2.3,3.5,4.5c0.1,1.3-0.4,2.6-1.4,3.5
	C98.4,574.1,97,574.5,95.6,574.5z"/>
<path class="st0" d="M111.7,573.8c-0.8,0.4-1.6,0.7-2.5,0.7c-1.8,0.1-3.4-0.9-4.3-2.5c-0.5-0.9-0.8-1.8-1-2.8
	c-0.2-1.2-0.3-2.4-0.3-3.6c-0.1-2.3,0.4-4.5,1.5-6.6c0.9-1.5,2.5-2.4,4.2-2.3c1.7-0.1,3.3,0.8,4.2,2.3c1.1,2,1.6,4.3,1.4,6.6
	c0,1.2-0.1,2.4-0.3,3.6c-0.2,1-0.5,1.9-1,2.8C113,572.8,112.4,573.4,111.7,573.8z M109.2,573.2c1.3-0.1,2.4-0.9,2.8-2.1
	c0.8-1.8,1.2-3.7,1.1-5.6c0.1-1.9-0.3-3.8-1-5.5c-0.5-1.5-2.1-2.4-3.7-1.9c-0.9,0.3-1.6,1-1.9,1.9c-0.8,1.7-1.1,3.6-1.1,5.5
	c-0.1,1.9,0.3,3.8,1.1,5.6C106.8,572.3,107.9,573.1,109.2,573.2L109.2,573.2z"/>
<path class="st0" d="M117.7,579.7v-18h1.3l0.1,1.8c0.5-0.6,1.1-1.1,1.8-1.5c0.6-0.3,1.4-0.5,2.1-0.5c1.5-0.1,3,0.5,4,1.8
	c1,1.4,1.4,3.1,1.3,4.8c0.1,1.6-0.4,3.3-1.4,4.6c-0.9,1.2-2.3,1.8-3.8,1.8c-0.8,0-1.6-0.2-2.3-0.6c-0.7-0.4-1.3-0.9-1.7-1.5
	c0,0.9,0.1,1.8,0.1,2.8v4.5L117.7,579.7z M123,573.3c0.6,0,1.2-0.2,1.7-0.5c0.5-0.3,0.9-0.7,1.2-1.2c0.3-0.5,0.5-1.1,0.7-1.7
	c0.1-0.6,0.2-1.3,0.2-1.9c0-0.6-0.1-1.3-0.2-1.9c-0.1-0.6-0.4-1.2-0.7-1.7c-0.3-0.5-0.7-0.9-1.2-1.2c-0.5-0.3-1.1-0.5-1.7-0.5
	c-0.6,0-1.3,0.1-1.8,0.4c-0.5,0.2-0.9,0.6-1.2,1.1c-0.3,0.5-0.5,1-0.7,1.6c-0.1,0.7-0.2,1.3-0.2,2c0,0.8,0.1,1.5,0.2,2.3
	c0.1,0.6,0.3,1.2,0.6,1.7c0.3,0.5,0.7,0.9,1.2,1.1C121.7,573.2,122.4,573.3,123,573.3L123,573.3z"/>
<path class="st0" d="M129.5,574.2l4.6-6.3l-4.5-6.1h1.6l3.6,5.1l3.6-5.1h1.5l-4.5,6.2l4.6,6.2h-1.5l-3.8-5.3l-3.8,5.3L129.5,574.2
	L129.5,574.2z"/>
<polygon class="st1" points="199.7,505.7 199.7,504.7 175.9,504.7 175.9,539.6 153.2,539.6 153.2,540.6 175.9,540.6 175.9,575.5 
	199.7,575.5 199.7,574.5 176.9,574.5 176.9,505.7 "/>
<path class="st2" d="M457.1,68.3L449.8,48h1.9l4.6,13.1c0.2,0.6,0.4,1.2,0.6,1.8c0.2,0.6,0.4,1.2,0.6,1.7c0.2,0.5,0.3,1.1,0.5,1.8
	c0.1-0.4,0.2-0.7,0.3-1.1c0.1-0.4,0.3-1,0.6-1.8c0.3-0.8,0.6-1.7,0.8-2.5c0.7-2.1,1.5-4.3,2.4-6.7s1.7-4.4,2.3-6.3h2L459,68.3H457.1
	L457.1,68.3z"/>
<path class="st2" d="M474,68.6c-1.9,0.1-3.7-0.7-4.9-2.1c-1.3-1.6-1.9-3.6-1.8-5.6c-0.1-2,0.5-4,1.8-5.6c1.1-1.4,2.8-2.2,4.6-2.2
	c1.6-0.1,3.2,0.7,4.2,1.9c1.1,1.4,1.7,3.2,1.6,5c0,0.1,0,0.2,0,0.5s0,0.4,0,0.5h-10.4c-0.1,1.6,0.4,3.2,1.4,4.5
	c0.9,1.1,2.2,1.7,3.6,1.7c0.9,0,1.7-0.1,2.5-0.3c0.8-0.3,1.5-0.6,2.2-1l0.3,1.3C477.6,68.1,475.8,68.6,474,68.6z M469.1,59.7h8.5
	c0.1-1.4-0.3-2.7-1.1-3.8c-0.7-0.9-1.8-1.4-3-1.3c-1.2,0-2.3,0.5-3.1,1.4C469.7,57,469.2,58.3,469.1,59.7L469.1,59.7z"/>
<path class="st2" d="M482.9,68.3c0-8.8,0-13.7,0-14.9h1.4l0.1,2.9c0.5-0.9,1.2-1.6,2-2.2c0.8-0.5,1.7-0.8,2.6-0.8
	c0.4,0,0.8,0,1.2,0.1l-0.1,1.4c-0.3-0.1-0.7-0.1-1-0.1c-1.2,0-2.4,0.5-3.2,1.5c-0.9,1-1.3,2.2-1.3,3.5v8.6H482.9L482.9,68.3z"/>
<path class="st2" d="M496.8,68.6c-1,0.1-2-0.2-2.8-0.8c-0.7-0.8-1-1.8-0.9-2.8V54.6h-2.1l0.1-1l2-0.2l0.5-3.4l1.2-0.1v3.5h4.4v1.2
	h-4.4v10c-0.1,0.7,0.1,1.5,0.5,2.1c0.5,0.4,1.2,0.6,1.8,0.5c0.7,0,1.4-0.1,2.1-0.3l0.1,1.3C498.5,68.5,497.7,68.6,496.8,68.6z"/>
<path class="st2" d="M502,50.3V48h1.7v2.3L502,50.3L502,50.3z M502,68.3v-15h1.7v14.9L502,68.3L502,68.3z"/>
<path class="st2" d="M514.1,68.6c-1.3,0-2.6-0.3-3.8-1.1c-1-0.7-1.9-1.6-2.4-2.8c-0.5-1.2-0.8-2.5-0.8-3.8c0-1,0.1-2,0.5-3
	c0.3-0.9,0.7-1.8,1.3-2.5c0.6-0.7,1.3-1.3,2.2-1.7c0.9-0.4,2-0.6,3-0.6c0.7,0,1.4,0.1,2.1,0.3c0.6,0.1,1.1,0.4,1.6,0.7l-0.5,1.3
	c-1-0.5-2.2-0.8-3.3-0.8c-1.4-0.1-2.8,0.6-3.7,1.8c-0.9,1.4-1.4,3-1.3,4.7c-0.1,1.6,0.4,3.2,1.4,4.5c0.9,1.1,2.3,1.8,3.7,1.7
	c1.2,0,2.4-0.3,3.5-0.8l0.3,1.2c-0.5,0.4-1.1,0.6-1.7,0.7C515.5,68.5,514.8,68.6,514.1,68.6z"/>
<path class="st2" d="M525,68.6c-1.2,0.1-2.4-0.3-3.4-1.1c-0.9-0.8-1.3-1.9-1.3-3c0-0.7,0.2-1.4,0.5-2c0.4-0.6,0.9-1.1,1.5-1.4
	c0.7-0.4,1.4-0.7,2.2-0.8c0.9-0.2,1.9-0.4,2.9-0.4l2.6-0.2V58c0.1-0.9-0.2-1.8-0.8-2.6c-0.7-0.6-1.6-1-2.5-0.9
	c-1.5,0-3.1,0.4-4.4,1.1l-0.2-0.6c-0.1-0.3-0.2-0.5-0.3-0.7c0.7-0.4,1.4-0.7,2.2-0.9c0.9-0.2,1.8-0.4,2.7-0.4
	c1.4-0.1,2.8,0.3,3.8,1.2c0.8,0.8,1.2,2.1,1.2,4.1v10h-1.3c0-0.2-0.1-0.6-0.2-1.2c-0.1-0.6-0.1-1-0.1-1
	C528.9,67.7,527,68.7,525,68.6z M525,67.3c1.1,0,2.2-0.3,3.1-1c0.9-0.7,1.5-1.7,1.8-2.8v-2.6l-2,0.2c-1.6,0-3.2,0.4-4.6,1.1
	c-0.8,0.5-1.3,1.5-1.3,2.5c0,0.8,0.3,1.5,0.8,2C523.4,67,524.2,67.3,525,67.3z"/>
<path class="st2" d="M539.4,68.6c-1,0.1-2-0.2-2.8-0.8c-0.7-0.8-1-1.8-0.9-2.8V47.6l1.7-0.1v17.5c-0.1,0.7,0.1,1.3,0.5,1.9
	c0.4,0.4,0.9,0.6,1.5,0.5c0.7,0,1.3-0.1,2-0.3l0.1,1.3C540.8,68.5,540.1,68.6,539.4,68.6z"/>
<path class="st2" d="M550.3,68.3V48h2.5l7.5,17.1l7.3-17.1h2.4v20.3h-1.7V54.7l0.1-4.6l-0.5,1.6l-6.7,15.4h-1.9l-6.7-15.5L552,50
	l0.1,4.7v13.6H550.3L550.3,68.3z"/>
<path class="st2" d="M578.4,68.6c-1.2,0.1-2.5-0.3-3.4-1.1c-0.9-0.8-1.3-1.9-1.3-3c0-0.7,0.2-1.4,0.5-2c0.4-0.6,0.9-1.1,1.5-1.4
	c0.7-0.4,1.4-0.7,2.2-0.8c0.9-0.2,1.9-0.4,2.9-0.4l2.6-0.2V58c0.1-0.9-0.2-1.8-0.8-2.6c-0.7-0.6-1.6-1-2.5-0.9
	c-1.5,0-3.1,0.4-4.4,1.1l-0.2-0.6c-0.1-0.3-0.2-0.5-0.3-0.7c0.7-0.4,1.4-0.7,2.2-0.9c0.9-0.2,1.8-0.4,2.7-0.4
	c1.4-0.1,2.8,0.3,3.8,1.2c0.8,0.8,1.2,2.1,1.2,4.1v10h-1.3c0-0.2-0.1-0.6-0.2-1.2c-0.1-0.6-0.1-1-0.1-1
	C582.3,67.7,580.4,68.7,578.4,68.6z M578.5,67.3c1.1,0,2.2-0.3,3.1-1c0.9-0.7,1.5-1.7,1.8-2.8v-2.6l-2,0.2c-1.6,0-3.2,0.4-4.6,1.1
	c-0.9,0.5-1.4,1.5-1.3,2.4c0,0.8,0.3,1.5,0.8,2C576.9,67,577.7,67.3,578.5,67.3z"/>
<path class="st2" d="M589.1,68.3c0-8.8,0-13.7,0-14.9h1.4l0.1,2.9c0.5-0.9,1.2-1.6,2-2.2c0.8-0.5,1.7-0.8,2.6-0.8
	c0.4,0,0.8,0,1.2,0.1l-0.1,1.4c-0.3-0.1-0.7-0.1-1-0.1c-1.2,0-2.4,0.5-3.2,1.5c-0.9,1-1.3,2.2-1.3,3.5v8.6H589.1L589.1,68.3z"/>
<path class="st2" d="M601,75.2l-0.2-1.5h3.2c0.6,0,1.2-0.1,1.8-0.2c0.5-0.1,0.9-0.3,1.3-0.5c0.4-0.2,0.7-0.5,0.9-0.8
	c0.2-0.3,0.4-0.6,0.6-1c0.2-0.4,0.3-0.9,0.3-1.3c0.1-0.5,0.1-1.1,0.1-1.5c0-0.5,0-1,0-1.7c0,0.1,0,0.1,0-0.1l-0.1-0.9
	c-0.5,0.8-1.2,1.5-2,2c-0.9,0.5-1.9,0.7-2.9,0.7c-0.8,0-1.7-0.2-2.4-0.5c-0.7-0.3-1.3-0.7-1.8-1.2c-0.5-0.5-0.9-1.1-1.2-1.7
	c-0.3-0.6-0.5-1.3-0.7-2c-0.1-0.6-0.2-1.3-0.2-1.9c0-0.8,0.1-1.5,0.2-2.3c0.1-0.7,0.4-1.4,0.7-2.1c0.3-0.7,0.7-1.3,1.2-1.8
	c0.5-0.5,1.2-0.9,1.9-1.2c0.8-0.3,1.7-0.5,2.6-0.5c0.9,0,1.7,0.2,2.5,0.6c0.8,0.4,1.5,1.1,2,1.8l0.2-2.1h1.5v13.8c0,0.6,0,1.1,0,1.4
	c0,0.5-0.1,1-0.2,1.5c-0.1,0.5-0.2,1.1-0.4,1.6c-0.2,0.5-0.5,0.9-0.8,1.3c-0.3,0.5-0.8,0.9-1.2,1.2c-0.6,0.3-1.2,0.6-1.9,0.7
	c-0.8,0.2-1.7,0.3-2.6,0.3H601L601,75.2z M604.4,66.9c0.6,0,1.2-0.1,1.8-0.3c0.5-0.2,0.9-0.5,1.3-0.8c0.4-0.4,0.7-0.8,0.9-1.2
	c0.2-0.5,0.4-1,0.5-1.5c0.1-0.5,0.2-1,0.2-1.6V60c0-0.7-0.1-1.3-0.3-2c-0.2-0.6-0.4-1.2-0.8-1.7c-0.4-0.5-0.9-1-1.5-1.3
	c-0.7-0.3-1.4-0.5-2.2-0.5c-0.6,0-1.3,0.1-1.8,0.4c-0.5,0.2-1,0.6-1.3,1c-0.4,0.5-0.7,1-0.9,1.5c-0.2,0.6-0.4,1.1-0.5,1.8
	c-0.1,0.6-0.1,1.2-0.1,1.9c0,0.5,0,1.1,0.1,1.6c0.1,0.5,0.2,1.1,0.5,1.6c0.2,0.5,0.5,1,0.8,1.4c0.4,0.4,0.8,0.8,1.4,1
	C603.1,66.8,603.7,66.9,604.4,66.9L604.4,66.9z"/>
<path class="st2" d="M614.8,50.3V48h1.7v2.3L614.8,50.3L614.8,50.3z M614.8,68.3v-15h1.7v14.9L614.8,68.3L614.8,68.3z"/>
<path class="st2" d="M620.7,68.3V53.4h1.5l0.2,2.3c0.5-0.8,1.3-1.5,2.2-1.9c0.9-0.5,1.9-0.7,2.9-0.7c1.4-0.1,2.8,0.4,3.8,1.4
	c0.9,1.3,1.3,2.9,1.2,4.5v9.3h-1.7v-10c0.1-1-0.2-2-0.8-2.9c-0.7-0.6-1.6-1-2.5-0.9c-1.2-0.1-2.4,0.3-3.3,1
	c-0.8,0.7-1.4,1.6-1.6,2.6c0,0.4,0,0.9,0,1.3v8.8L620.7,68.3L620.7,68.3z"/>
<path class="st2" d="M640.7,68.6c-0.9,0-1.8-0.1-2.7-0.3c-0.7-0.2-1.4-0.5-2-0.8l0.3-1.4c1.3,0.7,2.8,1.1,4.3,1.2
	c2.5,0,3.7-0.9,3.8-2.7c0-0.7-0.2-1.3-0.7-1.8c-0.9-0.6-1.9-1.1-3-1.4l-1.3-0.5c-2.3-0.7-3.5-2-3.5-3.8c0-1.1,0.5-2.1,1.4-2.8
	c1.1-0.9,2.4-1.3,3.8-1.2c1.5,0,3,0.3,4.4,0.9l-0.6,1.2c-1.2-0.5-2.6-0.8-3.9-0.8c-0.9-0.1-1.8,0.2-2.5,0.7
	c-0.6,0.4-0.9,1.2-0.9,1.9c0,0.6,0.2,1.1,0.6,1.5c0.7,0.5,1.5,0.8,2.3,1l0.7,0.2l0.6,0.2c1.2,0.3,2.3,0.9,3.2,1.7
	c0.7,0.7,1,1.7,0.9,2.7c0,1.2-0.5,2.3-1.5,3C643.4,68.3,642.1,68.7,640.7,68.6z"/>
<path class="st2" d="M664.6,68.6c-1.4,0-2.8-0.2-4.2-0.8c-1.2-0.5-2.2-1.2-3-2.2c-0.8-1-1.4-2.1-1.7-3.3c-0.4-1.4-0.6-2.8-0.6-4.2
	c0-1.8,0.3-3.7,1.1-5.4c0.7-1.5,1.9-2.8,3.3-3.7c1.6-0.9,3.4-1.4,5.2-1.4c2-0.1,3.9,0.4,5.6,1.4l-0.8,1.3c-1.4-0.9-3.1-1.3-4.8-1.3
	c-1.2,0-2.3,0.2-3.3,0.7c-1,0.4-1.8,1.1-2.4,1.9c-0.6,0.9-1.1,1.8-1.4,2.9c-0.3,1.1-0.5,2.3-0.5,3.5c0,1.2,0.1,2.3,0.5,3.5
	c0.3,1,0.8,2,1.4,2.8c0.6,0.9,1.5,1.6,2.4,2c1.1,0.5,2.3,0.7,3.5,0.7c1.7-0.1,3.3-0.5,4.8-1.2l0.3,1.4
	C668.3,68.3,666.5,68.7,664.6,68.6z"/>
<path class="st2" d="M679.1,68.6c-1.3,0-2.5-0.3-3.6-1c-1-0.7-1.9-1.6-2.4-2.8c-0.6-1.3-0.8-2.6-0.8-4c0-1,0.1-2.1,0.5-3.1
	c0.3-0.9,0.7-1.7,1.3-2.5c0.6-0.7,1.3-1.3,2.2-1.6c0.9-0.4,1.9-0.6,2.9-0.6c2.6-0.1,4.9,1.4,5.9,3.8c0.5,1.3,0.8,2.6,0.8,4
	c0,1.4-0.2,2.7-0.8,4c-0.5,1.1-1.3,2.1-2.4,2.8C681.7,68.3,680.4,68.7,679.1,68.6z M679.2,67.3c1,0,2-0.3,2.8-0.9
	c0.8-0.6,1.3-1.4,1.6-2.3c0.4-1,0.5-2.1,0.5-3.2c0.1-1.6-0.3-3.3-1.2-4.6c-0.9-1.2-2.3-1.9-3.7-1.8c-1,0-2,0.3-2.8,0.9
	c-0.8,0.6-1.4,1.4-1.7,2.3c-0.4,1-0.5,2.2-0.5,3.3c-0.1,1.6,0.4,3.2,1.3,4.6C676.3,66.7,677.8,67.4,679.2,67.3L679.2,67.3z"/>
<path class="st2" d="M693,68.6c-1,0.1-2-0.2-2.8-0.8c-0.7-0.8-1-1.8-0.9-2.8V47.6l1.7-0.1v17.5c-0.1,0.7,0.1,1.3,0.5,1.9
	c0.4,0.4,0.9,0.6,1.5,0.5c0.7,0,1.3-0.1,2-0.3l0.1,1.3C694.4,68.5,693.7,68.6,693,68.6z"/>
<path class="st2" d="M700.9,68.6c-1,0.1-2-0.2-2.8-0.8c-0.7-0.8-1-1.8-0.9-2.8V47.6l1.7-0.1v17.5c-0.1,0.7,0.1,1.3,0.5,1.9
	c0.4,0.4,0.9,0.6,1.5,0.5c0.7,0,1.3-0.1,2-0.3l0.1,1.3C702.3,68.5,701.6,68.6,700.9,68.6z"/>
<path class="st2" d="M709,68.6c-1.2,0.1-2.4-0.3-3.4-1.1c-0.9-0.8-1.3-1.9-1.3-3c0-0.7,0.2-1.4,0.5-2c0.4-0.6,0.9-1.1,1.5-1.4
	c0.7-0.4,1.4-0.7,2.2-0.8c0.9-0.2,1.9-0.4,2.9-0.4l2.6-0.2V58c0.1-0.9-0.2-1.8-0.8-2.6c-0.7-0.6-1.6-1-2.5-0.9
	c-1.5,0-3.1,0.4-4.4,1.1l-0.2-0.6c-0.1-0.3-0.2-0.5-0.3-0.7c0.7-0.4,1.4-0.7,2.2-0.9c0.9-0.2,1.8-0.4,2.7-0.4
	c1.4-0.1,2.8,0.3,3.8,1.2c0.8,0.8,1.2,2.1,1.2,4.1v10h-1.3c0-0.2-0.1-0.6-0.2-1.2c-0.1-0.6-0.1-1-0.1-1
	C712.9,67.7,711,68.7,709,68.6z M709,67.3c1.1,0,2.2-0.3,3.1-1c0.9-0.7,1.6-1.7,1.9-2.9v-2.5l-2,0.2c-1.6,0-3.2,0.4-4.6,1.1
	c-0.9,0.5-1.4,1.5-1.3,2.5c0,0.8,0.3,1.5,0.8,2C707.5,67,708.3,67.3,709,67.3L709,67.3z"/>
<path class="st2" d="M719.7,74.9V53.4h1.5l0.2,2.1c0.6-0.7,1.3-1.3,2.1-1.8c0.8-0.4,1.6-0.6,2.5-0.6c1.8-0.1,3.6,0.7,4.8,2.1
	c1.1,1.7,1.7,3.7,1.6,5.8c0.1,2-0.5,3.9-1.7,5.5c-1.1,1.4-2.8,2.2-4.5,2.1c-1,0-1.9-0.2-2.8-0.7c-0.8-0.4-1.5-1.1-2.1-1.8
	c0,1.1,0.1,2.2,0.1,3.3v5.4L719.7,74.9z M726.1,67.2c0.7,0,1.4-0.2,2.1-0.6c0.6-0.4,1.1-0.9,1.4-1.5c0.4-0.6,0.6-1.3,0.8-2
	c0.2-0.7,0.3-1.5,0.3-2.3c0-0.8-0.1-1.5-0.3-2.3c-0.2-0.7-0.4-1.4-0.8-2c-0.3-0.6-0.8-1.1-1.4-1.5c-0.6-0.4-1.3-0.6-2.1-0.6
	c-0.8,0-1.5,0.1-2.2,0.5c-0.6,0.3-1.1,0.7-1.5,1.3c-0.4,0.6-0.6,1.2-0.8,1.9c-0.2,0.8-0.3,1.6-0.2,2.4c0,0.9,0.1,1.8,0.2,2.7
	c0.1,0.7,0.4,1.4,0.8,2.1c0.3,0.6,0.8,1.1,1.5,1.4C724.6,67.1,725.3,67.3,726.1,67.2L726.1,67.2z"/>
<path class="st2" d="M740.1,68.6c-0.9,0-1.8-0.1-2.7-0.3c-0.7-0.2-1.4-0.5-2-0.8l0.2-1.4c1.3,0.7,2.8,1.1,4.3,1.2
	c2.5,0,3.7-0.9,3.8-2.7c0-0.7-0.2-1.3-0.7-1.8c-0.9-0.6-1.9-1.1-3-1.4l-1.3-0.5c-2.3-0.7-3.5-2-3.5-3.8c0-1.1,0.5-2.1,1.4-2.8
	c1.1-0.9,2.4-1.3,3.7-1.2c1.5,0,3,0.3,4.4,0.9l-0.6,1.2c-1.2-0.5-2.6-0.8-3.9-0.8c-0.9-0.1-1.8,0.2-2.5,0.7
	c-0.6,0.4-0.9,1.2-0.9,1.9c0,0.6,0.2,1.1,0.6,1.5c0.7,0.5,1.5,0.8,2.3,1l0.7,0.2l0.6,0.2c1.2,0.3,2.4,0.9,3.3,1.7
	c0.7,0.7,1,1.7,0.9,2.7c0,1.2-0.5,2.3-1.5,3C742.7,68.3,741.4,68.7,740.1,68.6z"/>
<path class="st2" d="M754.6,68.6c-1.9,0.1-3.7-0.7-4.9-2.1c-1.3-1.6-1.9-3.6-1.8-5.6c-0.1-2,0.5-4,1.8-5.6c1.1-1.4,2.8-2.2,4.6-2.2
	c1.6-0.1,3.2,0.7,4.2,1.9c1.1,1.4,1.7,3.2,1.6,5c0,0.1,0,0.2,0,0.5s0,0.4,0,0.5h-10.4c-0.1,1.6,0.4,3.2,1.4,4.5
	c0.9,1.1,2.2,1.7,3.6,1.7c0.9,0,1.7-0.1,2.5-0.3c0.8-0.3,1.5-0.6,2.2-1l0.3,1.3C758.2,68.1,756.4,68.6,754.6,68.6z M749.8,59.7h8.5
	c0.1-1.4-0.3-2.7-1.1-3.8c-0.7-0.9-1.8-1.4-3-1.3c-1.2,0-2.3,0.5-3.1,1.4C750.3,57,749.8,58.3,749.8,59.7z"/>
<path class="st1" d="M606.2,306.1h-6v1h6V306.1L606.2,306.1z M594.2,306.1h-6v1h6V306.1L594.2,306.1z M582.2,306.1h-6v1h6V306.1
	L582.2,306.1z M570.2,306.1h-6v1h6V306.1L570.2,306.1z M558.2,306.1h-6v1h6V306.1L558.2,306.1z M546.2,306.1h-6v1h6V306.1
	L546.2,306.1z M534.2,306.1h-6v1h6V306.1L534.2,306.1z M522.2,306.1h-6v1h6V306.1L522.2,306.1z M510.2,306.1h-6v1h6V306.1
	L510.2,306.1z M498.2,306.1h-6v1h6V306.1L498.2,306.1z M486.2,306.1h-6v1h6V306.1L486.2,306.1z M474.2,306.1h-6v1h6V306.1
	L474.2,306.1z M462.2,306.1h-6v1h6V306.1L462.2,306.1z M450.2,306.1h-6v1h6V306.1L450.2,306.1z M438.2,306.1h-6v1h6V306.1
	L438.2,306.1z M426.2,306.1h-6v1h6V306.1L426.2,306.1z M414.2,306.1h-6v1h6V306.1L414.2,306.1z M402.2,306.1h-6v1h6V306.1
	L402.2,306.1z M390.2,306.1h-6v1h6V306.1L390.2,306.1z M378.2,306.1h-6v1h6V306.1L378.2,306.1z M366.2,306.1h-6v1h6V306.1
	L366.2,306.1z M354.2,306.1h-6v1h6V306.1L354.2,306.1z M342.2,306.1h-6v1h6V306.1L342.2,306.1z M330.2,306.1h-6v1h6V306.1
	L330.2,306.1z M318.2,306.1h-6v1h6V306.1L318.2,306.1z M306.2,306.1h-6v1h6V306.1L306.2,306.1z M294.2,306.1h-6v1h6V306.1
	L294.2,306.1z M282.2,306.1h-6v1h6V306.1L282.2,306.1z M270.2,306.1h-6v1h6V306.1L270.2,306.1z M258.2,306.1h-6v1h6V306.1
	L258.2,306.1z M246.2,306.1h-6v1h6V306.1L246.2,306.1z M234.2,306.1h-6v1h6V306.1L234.2,306.1z M222.2,306.1h-6v1h6V306.1
	L222.2,306.1z M212.2,307.1h-1v6h1V307.1L212.2,307.1z M212.2,319.1h-1v6h1V319.1L212.2,319.1z M212.2,331.1h-1v6h1V331.1
	L212.2,331.1z M212.2,343.1h-1v6h1V343.1L212.2,343.1z M212.2,355.1h-1v6h1V355.1L212.2,355.1z M212.2,367.1h-1v6h1V367.1
	L212.2,367.1z M212.2,379.1h-1v6h1V379.1L212.2,379.1z M212.2,391.1h-1v6h1V391.1L212.2,391.1z M212.2,403.1h-1v6h1V403.1
	L212.2,403.1z M212.2,415.1h-1v6h1V415.1L212.2,415.1z M212.2,427.1h-1v6h1V427.1L212.2,427.1z M212.2,439.1h-1v6h1V439.1
	L212.2,439.1z M212.2,451.1h-1v6h1V451.1L212.2,451.1z M212.2,463.1h-1v6h1V463.1L212.2,463.1z M212.2,475.1h-1v6h1V475.1
	L212.2,475.1z M212.2,487.1h-1v6h1V487.1L212.2,487.1z M212.2,499.1h-1v6h1V499.1L212.2,499.1z M212.2,511.1h-1v6h1V511.1
	L212.2,511.1z M212.2,523.1h-1v3.8h2.2v-1h-1.2V523.1L212.2,523.1z M225.4,525.9h-6v1h6V525.9L225.4,525.9z M237.4,525.9h-6v1h6
	V525.9L237.4,525.9z M249.4,525.9h-6v1h6V525.9L249.4,525.9z M261.4,525.9h-6v1h6V525.9L261.4,525.9z M273.4,525.9h-6v1h6V525.9
	L273.4,525.9z M285.4,525.9h-6v1h6V525.9L285.4,525.9z M297.4,525.9h-6v1h6V525.9L297.4,525.9z M309.4,525.9h-6v1h6V525.9
	L309.4,525.9z M321.4,525.9h-6v1h6V525.9L321.4,525.9z M333.4,525.9h-6v1h6V525.9L333.4,525.9z M345.4,525.9h-6v1h6V525.9
	L345.4,525.9z M357.4,525.9h-6v1h6V525.9L357.4,525.9z M369.4,525.9h-6v1h6V525.9L369.4,525.9z M381.4,525.9h-6v1h6V525.9
	L381.4,525.9z M393.4,525.9h-6v1h6V525.9L393.4,525.9z M405.4,525.9h-6v1h6V525.9L405.4,525.9z M417.4,525.9h-6v1h6V525.9
	L417.4,525.9z M429.4,525.9h-6v1h6V525.9L429.4,525.9z M441.4,525.9h-6v1h6V525.9L441.4,525.9z M453.4,525.9h-6v1h6V525.9
	L453.4,525.9z M465.4,525.9h-6v1h6V525.9L465.4,525.9z M477.4,525.9h-6v1h6V525.9L477.4,525.9z M489.4,525.9h-6v1h6V525.9
	L489.4,525.9z M501.4,525.9h-6v1h6V525.9L501.4,525.9z M513.4,525.9h-6v1h6V525.9L513.4,525.9z M525.4,525.9h-6v1h6V525.9
	L525.4,525.9z M537.4,525.9h-6v1h6V525.9L537.4,525.9z M549.4,525.9h-6v1h6V525.9L549.4,525.9z M561.4,525.9h-6v1h6V525.9
	L561.4,525.9z M573.4,525.9h-6v1h6V525.9L573.4,525.9z M585.4,525.9h-6v1h6V525.9L585.4,525.9z M597.4,525.9h-6v1h6V525.9
	L597.4,525.9z M606.2,523.8h-1v2.1h-1.9v1h2.9V523.8L606.2,523.8z M606.2,511.8h-1v6h1V511.8L606.2,511.8z M606.2,499.8h-1v6h1
	V499.8L606.2,499.8z M606.2,487.8h-1v6h1V487.8L606.2,487.8z M606.2,475.8h-1v6h1V475.8L606.2,475.8z M606.2,463.8h-1v6h1V463.8
	L606.2,463.8z M606.2,451.8h-1v6h1V451.8L606.2,451.8z M606.2,439.8h-1v6h1V439.8L606.2,439.8z M606.2,427.8h-1v6h1V427.8
	L606.2,427.8z M606.2,415.8h-1v6h1V415.8L606.2,415.8z M606.2,403.8h-1v6h1V403.8L606.2,403.8z M606.2,391.8h-1v6h1V391.8
	L606.2,391.8z M606.2,379.8h-1v6h1V379.8L606.2,379.8z M606.2,367.8h-1v6h1V367.8L606.2,367.8z M606.2,355.8h-1v6h1V355.8
	L606.2,355.8z M606.2,343.8h-1v6h1V343.8L606.2,343.8z M606.2,331.8h-1v6h1V331.8L606.2,331.8z M606.2,319.8h-1v6h1V319.8
	L606.2,319.8z M606.2,307.8h-1v6h1V307.8L606.2,307.8z"/>
<rect x="234.4" y="329.4" class="st3" width="348.6" height="174.3"/>
<path class="st2" d="M348.1,403.8v-18.3h11.1l-0.2,2.7h-7.6v4.7h7.2v2.7h-7.2v5.5h7.8l-0.1,2.7H348.1z"/>
<path class="st2" d="M367,404c-0.8,0-1.6-0.1-2.3-0.3c-0.6-0.2-1.1-0.6-1.5-1c-0.4-0.5-0.6-1.1-0.8-1.7c-0.2-0.8-0.2-1.6-0.2-2.5
	V385l3.3-0.2v13.5c-0.1,0.9,0.1,1.7,0.4,2.5c0.4,0.5,1.1,0.7,1.7,0.7c0.5,0,1.1-0.1,1.6-0.1l0.1,2.3l-0.3,0.1l-0.6,0.1l-0.7,0.1
	C367.5,404,367.3,404,367,404z"/>
<path class="st2" d="M377.2,404c-1.9,0.1-3.8-0.6-5.1-1.9c-1.3-1.4-2-3.3-1.8-5.3c-0.1-1.9,0.5-3.8,1.7-5.2c1.2-1.3,2.9-2,4.7-2
	c1.7-0.1,3.3,0.6,4.4,1.8c1.1,1.3,1.7,3,1.6,4.7c0,0.1,0,0.4,0,0.7s0,0.5,0,0.7h-9.1c0,1.1,0.3,2.2,1,3c0.7,0.7,1.7,1.1,2.8,1
	c1.5,0,3-0.4,4.3-1.2l0.5,2.3C380.6,403.6,378.9,404.1,377.2,404z M373.5,395.5h6c0.1-0.9-0.2-1.8-0.8-2.6c-0.5-0.6-1.3-0.9-2.1-0.9
	c-0.8,0-1.6,0.3-2.1,0.9C373.9,393.6,373.5,394.6,373.5,395.5L373.5,395.5z"/>
<path class="st2" d="M385.3,403.8v-13.7h2.6l0.4,1.8c0.2-0.2,0.3-0.4,0.5-0.6c0.2-0.2,0.4-0.4,0.6-0.5c0.3-0.2,0.6-0.4,0.9-0.5
	c0.4-0.2,0.7-0.3,1.1-0.3c0.5-0.1,0.9-0.1,1.4-0.1c0.9,0,1.8,0.2,2.6,0.7c0.6,0.4,1.1,0.9,1.4,1.5c0.5-0.7,1.1-1.3,1.9-1.6
	c0.8-0.4,1.7-0.6,2.6-0.6c1.3-0.1,2.6,0.4,3.5,1.3c0.8,1.2,1.2,2.6,1.1,4v8.8h-3.3V396c0.1-1-0.1-2-0.4-2.9c-0.3-0.6-1-1-1.7-0.9
	c-1.2-0.1-2.3,0.6-2.8,1.7c-0.3,0.6-0.4,1.2-0.5,1.8v8H394v-7.9c0.1-0.9-0.1-1.9-0.5-2.7c-0.4-0.6-1-1-1.8-0.9
	c-0.6,0-1.3,0.2-1.8,0.5c-0.5,0.3-0.9,0.8-1.1,1.4c-0.2,1-0.3,2-0.3,3v6.6L385.3,403.8L385.3,403.8z"/>
<path class="st2" d="M415.5,404c-1.9,0.1-3.8-0.6-5.1-1.9c-1.3-1.4-2-3.3-1.8-5.3c-0.1-1.9,0.5-3.8,1.7-5.2c1.2-1.3,2.9-2,4.7-2
	c1.7-0.1,3.3,0.6,4.4,1.8c1.1,1.3,1.7,3,1.6,4.7c0,0.1,0,0.4,0,0.7s0,0.5,0,0.7h-9.1c0,1.1,0.3,2.2,1,3c0.7,0.7,1.7,1.1,2.8,1
	c1.5,0,3-0.4,4.3-1.2l0.5,2.3C418.9,403.6,417.2,404.1,415.5,404z M411.8,395.5h6c0.1-0.9-0.2-1.8-0.8-2.6c-0.5-0.6-1.3-0.9-2.1-0.9
	c-0.8,0-1.6,0.3-2.1,0.9C412.2,393.6,411.8,394.6,411.8,395.5L411.8,395.5z"/>
<path class="st2" d="M423.6,403.8v-13.7h2.6l0.4,1.7c1.2-1.3,2.9-2,4.7-2.1c1.3-0.1,2.7,0.4,3.6,1.4c0.9,1.1,1.3,2.6,1.2,4v8.7h-3.3
	v-8.3c0-0.9-0.1-1.7-0.5-2.5c-0.4-0.6-1.2-0.9-1.9-0.8c-0.7,0-1.4,0.2-1.9,0.5c-0.6,0.3-1,0.8-1.3,1.4c-0.2,1-0.3,2-0.2,3v6.7
	L423.6,403.8L423.6,403.8z"/>
<path class="st2" d="M444.7,404c-0.8,0-1.6-0.1-2.3-0.3c-0.6-0.2-1.1-0.5-1.5-1c-0.4-0.5-0.6-1.1-0.7-1.7c-0.2-0.8-0.2-1.6-0.2-2.4
	v-6.5h-2.2l0.1-1.8l2.4-0.2l1-3.7h2v3.7h3.4v2h-3.4v6.5c-0.1,0.8,0.1,1.5,0.5,2.2c0.4,0.5,1,0.7,1.7,0.7c0.5,0,1,0,1.5-0.1l0.1,2.4
	l-0.3,0.1l-0.5,0.1l-0.7,0.1C445.1,404,444.9,404,444.7,404z"/>
<path class="st2" d="M454.3,403.8l6.7-18.3h3.7l6.6,18.3h-3.5l-1.9-5.2h-6.4l-1.8,5.2L454.3,403.8L454.3,403.8z M460.5,396.1h4.7
	c-1.5-4.8-2.3-7.3-2.3-7.4L460.5,396.1z"/>
<path class="st2" d="M317.4,430.7c0.4-1.3,1.6-2.1,2.9-2.1c1.7,0,2.7,1.3,3,3.8c0,0.5,0.1,1,0.1,1.6v8.8h-2.1v-8.5
	c0.1-1,0-2.1-0.3-3c-0.1-0.3-0.3-0.5-0.6-0.7c-0.2-0.1-0.4-0.1-0.6-0.1c-0.7,0-1.4,0.5-1.6,1.2c-0.2,0.9-0.3,1.8-0.3,2.6v8.5h-1.9
	v-8.4c0-1.8-0.2-3-0.6-3.6c-0.2-0.3-0.6-0.5-1-0.4c-0.4,0-0.8,0.2-1.1,0.5c-0.6,0.8-0.9,1.8-0.8,2.8v9h-2.1V429h1.8l0.1,1.8
	c0.2-0.6,0.6-1.1,1-1.6c0.4-0.4,1-0.7,1.6-0.6c0.6,0,1.2,0.2,1.6,0.6C316.9,429.6,317.2,430.1,317.4,430.7z"/>
<path class="st2" d="M335,433.3c0-2-0.8-2.9-2.5-2.9c-0.9,0-1.7,0.1-2.6,0.3c-0.7,0.1-1.4,0.3-2,0.5l-0.5-1.7
	c1.6-0.5,3.2-0.8,4.9-0.9c1.3-0.1,2.6,0.3,3.6,1c1,0.8,1.5,2,1.4,3.2v9.9h-1.9l-0.3-1.6c-0.6,0.6-1.3,1-2,1.4
	c-0.8,0.3-1.6,0.5-2.5,0.5c-1.1,0-2.1-0.3-2.9-1c-0.8-0.8-1.2-1.9-1.1-3c-0.1-1.1,0.5-2.2,1.5-2.8c0.7-0.4,1.4-0.7,2.1-0.9
	c0.8-0.2,1.8-0.3,3-0.5l1.8-0.2L335,433.3L335,433.3z M335,439.6v-3.5l-1.9,0.3c-0.9,0.1-1.8,0.3-2.7,0.5c-1,0.2-1.7,1.1-1.7,2.1
	c0,0.6,0.2,1.2,0.6,1.6c0.4,0.4,1,0.6,1.6,0.6C332.5,441.4,333.9,440.7,335,439.6z"/>
<path class="st2" d="M346.5,442.7h-2.3V429h1.9l0.2,2.5c0.5-0.9,1.3-1.7,2.2-2.2c0.9-0.5,2-0.8,3.1-0.8h1.1v2.1h-1.4
	c-1.2-0.1-2.5,0.3-3.5,1.1c-0.9,0.8-1.4,2.1-1.3,3.3L346.5,442.7L346.5,442.7z"/>
<path class="st2" d="M366.1,440.1c-0.3,0.7-0.8,1.4-1.5,1.9c-0.7,0.5-1.5,0.8-2.4,0.8c-1.6,0.1-3.2-0.7-4.1-2
	c-1-1.4-1.6-3.2-1.5-4.9c0-2.6,0.6-4.5,2-5.8c1-0.9,2.4-1.4,3.8-1.4c1.6,0,3,0.9,3.8,2.3l0.1-1.9h2.3c-0.1,2-0.1,4.8-0.1,8.1v3.7
	c0,2.9-0.6,4.9-1.9,6c-1.2,0.9-2.7,1.4-4.2,1.5c-1.1,0.1-2.2,0.2-3.2,0.2l-0.2-1.8c1.3,0,2.6-0.1,3.9-0.3c0.6-0.1,1.2-0.4,1.7-0.7
	c0.4-0.3,0.7-0.6,0.9-1c0.5-1.1,0.8-2.4,0.7-3.6L366.1,440.1L366.1,440.1z M365,431.4c-0.3-0.3-0.6-0.6-1-0.8
	c-0.5-0.2-1-0.3-1.5-0.3c-0.5,0-1,0.1-1.5,0.3c-0.8,0.4-1.4,1-1.6,1.9c-0.3,0.9-0.5,1.8-0.5,2.7c0,0.7,0,1.3,0.1,2
	c0.1,0.9,0.4,1.7,1,2.4c0.6,0.7,1.4,1,2.3,1c1.4,0.1,2.8-0.8,3.3-2.1c0.3-0.8,0.5-1.6,0.5-2.4c0-0.7,0-1.3-0.1-2
	c-0.1-0.5-0.2-1-0.3-1.5C365.5,432.2,365.3,431.8,365,431.4z"/>
<path class="st2" d="M373.6,430.8V429h6.2v12h3.9v1.8h-10.5V441h4.3v-10.2H373.6L373.6,430.8z M377.1,425.4v-1.2
	c0-0.3,0.2-0.6,0.5-0.8c0.6-0.5,1.4-0.5,2,0c0.3,0.2,0.5,0.5,0.5,0.8v1.2c0,0.3-0.2,0.6-0.5,0.8c-0.6,0.5-1.4,0.5-2,0
	C377.3,426,377.1,425.7,377.1,425.4L377.1,425.4z"/>
<path class="st2" d="M394.6,428.6c2.8,0,4.3,1.8,4.3,5.4v8.7h-2.3v-8.4c0-0.7,0-1.4-0.1-2.1c-0.1-0.4-0.2-0.7-0.5-1
	c-0.5-0.6-1.3-0.9-2.1-0.8c-0.9,0-1.8,0.3-2.5,0.9c-0.7,0.6-1,1.4-1,2.2v9.3h-2.3V429h2.1l0.1,1.5
	C391.4,429.2,393,428.5,394.6,428.6z"/>
<path class="st2" d="M410.9,432.3h-3.8v-3.7h3.8V432.3z M410.9,440.9h-3.8v-3.8h3.8V440.9z"/>
<path class="st2" d="M434.7,426.6c1.5-0.7,2.9-1.5,4.2-2.6h2.4v16.8h3.9v1.8h-10.5v-1.8h4.2v-14.3l-1.8,1c-0.8,0.5-1.6,0.9-2.5,1.2
	L434.7,426.6L434.7,426.6z"/>
<path class="st2" d="M457.5,442.2c-1.7,1-3.8,1-5.5,0c-0.8-0.5-1.5-1.3-1.9-2.1c-1-2.1-1.5-4.4-1.5-6.7c0-3.3,0.7-5.9,2-7.6
	c0.5-0.6,1.1-1.1,1.8-1.5c1.5-0.7,3.3-0.7,4.8,0c1.4,0.7,2.4,2,2.8,3.5c0.6,1.8,0.9,3.7,0.9,5.6c0.1,2.3-0.4,4.6-1.5,6.7
	C459,441,458.3,441.7,457.5,442.2z M456.5,426.4c-0.5-0.4-1.1-0.7-1.8-0.7c-0.8,0-1.5,0.4-1.9,1c-1.1,1.3-1.6,3.6-1.6,6.7
	c-0.1,1.8,0.2,3.7,0.9,5.4L456.5,426.4z M457.6,428.1l-4.4,12.4c0.5,0.4,1.1,0.6,1.7,0.6c0.8,0,1.4-0.4,1.9-1
	c1.1-1.3,1.6-3.5,1.6-6.6C458.5,431.6,458.2,429.8,457.6,428.1L457.6,428.1z"/>
<path class="st2" d="M470.6,443c-0.8,0-1.6-0.2-2.4-0.6c-0.7-0.4-1.2-0.9-1.6-1.6v7.1l-2.3,0.2V429h2.3v1.9c0.4-0.7,0.9-1.2,1.6-1.7
	c0.7-0.4,1.5-0.7,2.3-0.6c2-0.1,3.9,1,4.8,2.8c0.6,1.3,0.9,2.8,0.9,4.2c0.2,2.1-0.5,4.3-1.9,5.9C473.4,442.6,472,443.1,470.6,443z
	 M466.6,435.8c0,3.7,1.3,5.5,3.8,5.5c2.3,0,3.5-1.8,3.5-5.5c0-2-0.3-3.4-0.9-4.2c-0.6-0.8-1.6-1.2-2.6-1.2c-2.1,0-3.4,1.2-3.7,3.7
	C466.7,434.6,466.6,435.2,466.6,435.8L466.6,435.8z"/>
<path class="st2" d="M479.7,429h2.6l3.3,5.3l3.3-5.3h2.4l-4.2,6.6l4.4,7h-2.5l-3.3-5.5l-3.5,5.5h-2.5l4.5-7L479.7,429z"/>
<path class="st2" d="M498.2,446.6l1-7.5h3.4l-2.1,7.5H498.2L498.2,446.6z M502.8,432.2h-3.7v-3.8h3.7V432.2z"/>
<path class="st1" d="M594.2,503.6h-6v1h6V503.6L594.2,503.6z M582.2,503.6h-6v1h6V503.6L582.2,503.6z M570.2,503.6h-6v1h6V503.6
	L570.2,503.6z M558.2,503.6h-6v1h6V503.6L558.2,503.6z M546.2,503.6h-6v1h6V503.6L546.2,503.6z M534.2,503.6h-6v1h6V503.6
	L534.2,503.6z M522.2,503.6h-6v1h6V503.6L522.2,503.6z M510.2,503.6h-6v1h6V503.6L510.2,503.6z M498.2,503.6h-6v1h6V503.6
	L498.2,503.6z M486.2,503.6h-6v1h6V503.6L486.2,503.6z M474.2,503.6h-6v1h6V503.6L474.2,503.6z M462.2,503.6h-6v1h6V503.6
	L462.2,503.6z M450.2,503.6h-6v1h6V503.6L450.2,503.6z M438.2,503.6h-6v1h6V503.6L438.2,503.6z M426.2,503.6h-6v1h6V503.6
	L426.2,503.6z M414.2,503.6h-6v1h6V503.6L414.2,503.6z M402.2,503.6h-6v1h6V503.6L402.2,503.6z M390.2,503.6h-6v1h6V503.6
	L390.2,503.6z M378.2,503.6h-6v1h6V503.6L378.2,503.6z M366.2,503.6h-6v1h6V503.6L366.2,503.6z M354.2,503.6h-6v1h6V503.6
	L354.2,503.6z M342.2,503.6h-6v1h6V503.6L342.2,503.6z M330.2,503.6h-6v1h6V503.6L330.2,503.6z M318.2,503.6h-6v1h6V503.6
	L318.2,503.6z M306.2,503.6h-6v1h6V503.6L306.2,503.6z M294.2,503.6h-6v1h6V503.6L294.2,503.6z M282.2,503.6h-6v1h6V503.6
	L282.2,503.6z M270.2,503.6h-6v1h6V503.6L270.2,503.6z M258.2,503.6h-6v1h6V503.6L258.2,503.6z M246.2,503.6h-6v1h6V503.6
	L246.2,503.6z M234.2,503.6h-6v1h6V503.6L234.2,503.6z M222.2,503.6h-6v1h6V503.6L222.2,503.6z M212.2,504.6h-1v6h1V504.6
	L212.2,504.6z M212.2,516.6h-1v6h1V516.6L212.2,516.6z M212.2,528.6h-1v6h1V528.6L212.2,528.6z M212.2,540.6h-1v6h1V540.6
	L212.2,540.6z M212.2,552.6h-1v6h1V552.6L212.2,552.6z M212.2,564.6h-1v6h1V564.6L212.2,564.6z M212.2,576.6h-1v6h1V576.6
	L212.2,576.6z M212.2,588.6h-1v6h1V588.6L212.2,588.6z M212.2,600.6h-1v6h1V600.6L212.2,600.6z M212.2,612.6h-1v6h1V612.6
	L212.2,612.6z M212.2,624.6h-1v6h1V624.6L212.2,624.6z M212.2,636.6h-1v6h1V636.6L212.2,636.6z M212.2,648.6h-1v6h1V648.6
	L212.2,648.6z M212.2,660.6h-1v6h1V660.6L212.2,660.6z M212.2,672.6h-1v6h1V672.6L212.2,672.6z M212.2,684.6h-1v6h1V684.6
	L212.2,684.6z M212.2,696.6h-1v6h1V696.6L212.2,696.6z M212.2,708.6h-1v6h1V708.6L212.2,708.6z M212.2,720.6h-1v6h1V720.6
	L212.2,720.6z M212.2,732.6h-1v6h1V732.6L212.2,732.6z M212.2,744.6h-1v6h1V744.6L212.2,744.6z M212.2,756.6h-1v6h1V756.6
	L212.2,756.6z M212.2,768.6h-1v6h1V768.6L212.2,768.6z M212.2,780.6h-1v6h1V780.6L212.2,780.6z M212.2,792.6h-1v6h1V792.6
	L212.2,792.6z M212.2,804.6h-1v6h1V804.6L212.2,804.6z M216.4,816.4h-5.2v0.2l0,0l0,0l0,0v0.8h5.2V816.4L216.4,816.4z M228.4,816.4
	h-6v1h6V816.4L228.4,816.4z M240.4,816.4h-6v1h6V816.4L240.4,816.4z M252.4,816.4h-6v1h6V816.4L252.4,816.4z M264.4,816.4h-6v1h6
	V816.4L264.4,816.4z M276.4,816.4h-6v1h6V816.4L276.4,816.4z M288.4,816.4h-6v1h6V816.4L288.4,816.4z M300.4,816.4h-6v1h6V816.4
	L300.4,816.4z M312.4,816.4h-6v1h6V816.4L312.4,816.4z M324.4,816.4h-6v1h6V816.4L324.4,816.4z M336.4,816.4h-6v1h6V816.4
	L336.4,816.4z M348.4,816.4h-6v1h6V816.4L348.4,816.4z M360.4,816.4h-6v1h6V816.4L360.4,816.4z M372.4,816.4h-6v1h6V816.4
	L372.4,816.4z M384.4,816.4h-6v1h6V816.4L384.4,816.4z M396.4,816.4h-6v1h6V816.4L396.4,816.4z M408.4,816.4h-6v1h6V816.4
	L408.4,816.4z M420.4,816.4h-6v1h6V816.4L420.4,816.4z M432.4,816.4h-6v1h6V816.4L432.4,816.4z M444.4,816.4h-6v1h6V816.4
	L444.4,816.4z M456.4,816.4h-6v1h6V816.4L456.4,816.4z M468.4,816.4h-6v1h6V816.4L468.4,816.4z M480.4,816.4h-6v1h6V816.4
	L480.4,816.4z M492.4,816.4h-6v1h6V816.4L492.4,816.4z M504.4,816.4h-6v1h6V816.4L504.4,816.4z M516.4,816.4h-6v1h6V816.4
	L516.4,816.4z M528.4,816.4h-6v1h6V816.4L528.4,816.4z M540.4,816.4h-6v1h6V816.4L540.4,816.4z M552.4,816.4h-6v1h6V816.4
	L552.4,816.4z M564.4,816.4h-6v1h6V816.4L564.4,816.4z M576.4,816.4h-6v1h6V816.4L576.4,816.4z M588.4,816.4h-6v1h6V816.4
	L588.4,816.4z M600.4,816.4h-6v1h6V816.4L600.4,816.4z M606.3,811.2h-1v6h1V811.2L606.3,811.2z M606.3,799.2h-1v6h1V799.2
	L606.3,799.2z M606.3,787.2h-1v6h1V787.2L606.3,787.2z M606.3,775.2h-1v6h1V775.2L606.3,775.2z M606.3,763.2h-1v6h1V763.2
	L606.3,763.2z M606.3,751.2h-1v6h1V751.2L606.3,751.2z M606.3,739.2h-1v6h1V739.2L606.3,739.2z M606.3,727.2h-1v6h1V727.2
	L606.3,727.2z M606.3,715.2h-1v6h1V715.2L606.3,715.2z M606.3,703.2h-1v6h1V703.2L606.3,703.2z M606.3,691.2h-1v6h1V691.2
	L606.3,691.2z M606.3,679.2h-1v6h1V679.2L606.3,679.2z M606.3,667.2h-1v6h1V667.2L606.3,667.2z M606.3,655.2h-1v6h1V655.2
	L606.3,655.2z M606.3,643.2h-1v6h1V643.2L606.3,643.2z M606.3,631.2h-1v6h1V631.2L606.3,631.2z M606.3,619.2h-1v6h1V619.2
	L606.3,619.2z M606.3,607.2h-1v6h1V607.2L606.3,607.2z M606.3,595.2h-1v6h1V595.2L606.3,595.2z M606.3,583.2h-1v6h1V583.2
	L606.3,583.2z M606.3,571.2h-1v6h1V571.2L606.3,571.2z M606.3,559.2h-1v6h1V559.2L606.3,559.2z M606.3,547.2h-1v6h1V547.2
	L606.3,547.2z M606.3,535.2h-1v6h1V535.2L606.3,535.2z M606.3,523.2h-1v6h1V523.2L606.3,523.2z M606.3,511.2h-1v6h1V511.2
	L606.3,511.2z M606.3,503.6h-6v1h5v0.6h1V503.6L606.3,503.6z"/>
<rect x="234.4" y="573.4" class="st3" width="348.6" height="174.3"/>
<path class="st2" d="M348.5,647.8v-18.3h11.1l-0.1,2.7h-7.6v4.7h7.2v2.7h-7.2v5.5h7.8l-0.1,2.7L348.5,647.8L348.5,647.8z"/>
<path class="st2" d="M367.3,648c-0.8,0-1.6-0.1-2.3-0.3c-0.6-0.2-1.1-0.6-1.5-1c-0.4-0.5-0.6-1.1-0.8-1.7c-0.2-0.8-0.2-1.6-0.2-2.5
	V629l3.3-0.2v13.5c-0.1,0.9,0.1,1.7,0.4,2.5c0.4,0.5,1.1,0.7,1.7,0.7c0.5,0,1.1-0.1,1.6-0.1l0.1,2.3l-0.3,0.1l-0.6,0.1l-0.7,0.1
	C367.8,648,367.6,648,367.3,648z"/>
<path class="st2" d="M377.5,648c-1.9,0.1-3.8-0.6-5.1-1.9c-1.3-1.4-2-3.3-1.8-5.3c-0.1-1.9,0.5-3.8,1.7-5.2c1.2-1.3,2.9-2,4.7-2
	c1.7-0.1,3.3,0.6,4.4,1.8c1.1,1.3,1.7,3,1.6,4.7c0,0.1,0,0.4,0,0.7s0,0.5,0,0.7h-9.1c0,1.1,0.3,2.2,1,3c0.7,0.7,1.7,1.1,2.8,1
	c1.5,0,3-0.4,4.3-1.2l0.5,2.3C381,647.7,379.3,648.1,377.5,648z M373.9,639.5h6c0.1-0.9-0.2-1.8-0.8-2.6c-0.5-0.6-1.3-0.9-2.1-0.9
	c-0.8,0-1.6,0.3-2.1,0.9C374.3,637.7,373.9,638.6,373.9,639.5L373.9,639.5z"/>
<path class="st2" d="M385.6,647.8v-13.7h2.6l0.4,1.8c0.2-0.2,0.3-0.4,0.5-0.6c0.2-0.2,0.4-0.4,0.6-0.5c0.3-0.2,0.6-0.4,0.9-0.5
	c0.4-0.2,0.7-0.3,1.1-0.3c0.5-0.1,0.9-0.1,1.4-0.1c0.9,0,1.8,0.2,2.6,0.7c0.6,0.4,1.1,0.9,1.4,1.5c0.5-0.7,1.1-1.3,1.9-1.6
	c0.8-0.4,1.7-0.6,2.6-0.6c1.3-0.1,2.6,0.4,3.5,1.3c0.8,1.2,1.2,2.6,1.1,4v8.8H403V640c0.1-1-0.1-2-0.4-2.9c-0.3-0.6-1-1-1.7-0.9
	c-1.2-0.1-2.3,0.6-2.8,1.7c-0.3,0.6-0.4,1.2-0.5,1.8v8h-3.3v-7.9c0.1-0.9-0.1-1.9-0.5-2.7c-0.4-0.6-1-1-1.8-0.9
	c-0.6,0-1.3,0.2-1.8,0.5c-0.5,0.3-0.9,0.8-1.1,1.4c-0.2,1-0.3,2-0.3,3v6.7L385.6,647.8L385.6,647.8z"/>
<path class="st2" d="M415.8,648c-1.9,0.1-3.8-0.6-5.1-1.9c-1.3-1.4-2-3.3-1.8-5.3c-0.1-1.9,0.5-3.8,1.7-5.2c1.2-1.3,2.9-2,4.7-2
	c1.7-0.1,3.3,0.6,4.4,1.8c1.1,1.3,1.7,3,1.6,4.7c0,0.1,0,0.4,0,0.7s0,0.5,0,0.7h-9.1c0,1.1,0.3,2.2,1,3c0.7,0.7,1.7,1.1,2.8,1
	c1.5,0,3-0.4,4.3-1.2l0.5,2.3C419.3,647.7,417.5,648.1,415.8,648z M412.2,639.5h6c0.1-0.9-0.2-1.8-0.8-2.6c-0.5-0.6-1.3-0.9-2.1-0.9
	c-0.8,0-1.6,0.3-2.1,0.9C412.6,637.7,412.2,638.6,412.2,639.5z"/>
<path class="st2" d="M423.9,647.8v-13.7h2.6l0.4,1.7c1.2-1.3,2.9-2,4.7-2.1c1.3-0.1,2.7,0.4,3.6,1.4c0.9,1.1,1.3,2.6,1.2,4v8.7h-3.3
	v-8.3c0-0.9-0.1-1.7-0.5-2.5c-0.4-0.6-1.2-0.9-1.9-0.8c-0.7,0-1.4,0.2-1.9,0.5c-0.6,0.3-1,0.8-1.3,1.4c-0.2,1-0.3,2-0.2,3v6.7
	L423.9,647.8L423.9,647.8z"/>
<path class="st2" d="M445,648c-0.8,0-1.6-0.1-2.3-0.3c-0.6-0.2-1.1-0.5-1.5-1c-0.4-0.5-0.6-1.1-0.7-1.7c-0.2-0.8-0.2-1.6-0.2-2.4
	v-6.5h-2.2l0.1-1.8l2.4-0.2l1-3.7h2v3.7h3.5v2h-3.4v6.5c-0.1,0.8,0.1,1.5,0.5,2.2c0.4,0.5,1,0.7,1.7,0.7c0.5,0,1,0,1.5-0.1l0.1,2.3
	l-0.3,0.1l-0.5,0.1l-0.7,0.1C445.5,648,445.3,648,445,648z"/>
<path class="st2" d="M464.6,648c-2.4,0.1-4.7-0.8-6.4-2.5c-1.7-1.9-2.5-4.4-2.4-7c-0.1-2.5,0.8-4.9,2.5-6.8c1.7-1.7,4-2.6,6.4-2.5
	c1.9-0.1,3.8,0.5,5.4,1.5l-1.1,2.6c-1.3-0.8-2.8-1.3-4.3-1.3c-1.5-0.1-3,0.6-4,1.8c-1.9,3-1.9,6.8,0,9.8c1,1.2,2.5,1.8,4,1.7
	c1.6,0,3.2-0.4,4.6-1.2l0.5,2.7C468.3,647.7,466.5,648.1,464.6,648z"/>
<path class="st2" d="M279,674.7c0.4-1.3,1.6-2.1,2.9-2.1c1.7,0,2.7,1.3,3,3.8c0,0.5,0.1,1,0.1,1.6v8.8h-2.1v-8.5c0.1-1,0-2.1-0.3-3
	c-0.1-0.3-0.3-0.5-0.6-0.7c-0.2-0.1-0.4-0.1-0.6-0.1c-0.7,0-1.4,0.5-1.6,1.2c-0.2,0.9-0.3,1.8-0.3,2.7v8.5h-1.9v-8.3
	c0-1.8-0.2-3-0.6-3.6c-0.2-0.3-0.6-0.5-1-0.4c-0.4,0-0.8,0.2-1.1,0.5c-0.6,0.8-0.9,1.8-0.8,2.8v9h-2.1V673h1.8l0.1,1.8
	c0.2-0.6,0.6-1.1,1-1.6c0.4-0.4,1-0.7,1.6-0.6c0.6,0,1.2,0.2,1.6,0.6C278.5,673.6,278.9,674.1,279,674.7z"/>
<path class="st2" d="M296.6,677.3c0-2-0.8-2.9-2.5-2.9c-0.9,0-1.7,0.1-2.6,0.3c-0.7,0.1-1.4,0.3-2,0.5l-0.5-1.7
	c1.6-0.5,3.2-0.8,4.9-0.9c1.3-0.1,2.6,0.3,3.6,1c1,0.8,1.5,2,1.4,3.2v9.9H297l-0.3-1.6c-0.6,0.6-1.3,1-2,1.3
	c-0.8,0.3-1.6,0.5-2.5,0.5c-1.1,0-2.1-0.3-2.9-1c-0.8-0.8-1.2-1.8-1.1-3c-0.1-1.1,0.5-2.2,1.5-2.8c0.7-0.4,1.4-0.7,2.1-0.8
	c0.8-0.2,1.8-0.3,3-0.5l1.8-0.2L296.6,677.3L296.6,677.3z M296.6,683.6v-3.5l-1.9,0.3c-0.9,0.1-1.8,0.3-2.7,0.5
	c-1,0.2-1.7,1.1-1.7,2.1c0,0.6,0.2,1.2,0.6,1.7c0.4,0.4,1,0.6,1.6,0.6C294.1,685.4,295.6,684.7,296.6,683.6z"/>
<path class="st2" d="M308.1,686.7h-2.3V673h1.9l0.2,2.5c0.5-0.9,1.3-1.7,2.2-2.2c0.9-0.5,2-0.8,3.1-0.8h1.1v2.1h-1.4
	c-1.2-0.1-2.5,0.3-3.5,1.1c-0.9,0.8-1.4,2.1-1.3,3.3L308.1,686.7L308.1,686.7z"/>
<path class="st2" d="M327.8,684.1c-0.3,0.7-0.8,1.4-1.5,1.8c-0.7,0.5-1.5,0.8-2.4,0.8c-1.6,0.1-3.2-0.7-4.1-2
	c-1-1.4-1.6-3.2-1.5-4.9c0-2.6,0.6-4.5,2-5.8c1-0.9,2.4-1.4,3.8-1.4c1.6,0,3,0.9,3.8,2.3l0.1-1.9h2.3c-0.1,2-0.1,4.8-0.1,8.1v3.7
	c0,2.9-0.6,4.9-1.9,6c-1.2,0.9-2.7,1.4-4.2,1.5c-1.1,0.1-2.2,0.2-3.2,0.2l-0.2-1.8c1.3,0,2.6-0.1,3.9-0.3c0.6-0.1,1.2-0.4,1.7-0.7
	c0.4-0.3,0.7-0.6,0.9-1c0.5-1.1,0.8-2.4,0.7-3.6L327.8,684.1L327.8,684.1z M326.7,675.4c-0.3-0.3-0.6-0.6-1-0.8
	c-0.5-0.2-1-0.3-1.5-0.3c-0.5,0-1,0.1-1.5,0.3c-0.8,0.4-1.4,1-1.6,1.9c-0.3,0.9-0.5,1.8-0.5,2.7c0,0.7,0,1.3,0.1,2
	c0.1,0.9,0.4,1.7,1,2.4c0.6,0.7,1.4,1,2.3,1c1.4,0.1,2.8-0.8,3.3-2.2c0.3-0.8,0.5-1.6,0.5-2.4c0-0.7,0-1.3-0.1-2
	c-0.1-0.5-0.2-1-0.3-1.5C327.2,676.2,327,675.8,326.7,675.4L326.7,675.4z"/>
<path class="st2" d="M335.2,674.8V673h6.2v12h3.9v1.8h-10.5V685h4.3v-10.2L335.2,674.8L335.2,674.8z M338.7,669.4v-1.2
	c0-0.3,0.2-0.6,0.5-0.8c0.6-0.5,1.4-0.5,2,0c0.3,0.2,0.5,0.5,0.5,0.8v1.2c0,0.3-0.2,0.6-0.5,0.8c-0.6,0.5-1.4,0.5-2,0
	C339,670,338.8,669.7,338.7,669.4L338.7,669.4z"/>
<path class="st2" d="M356.3,672.6c2.8,0,4.3,1.8,4.3,5.4v8.7h-2.3v-8.4c0-0.7,0-1.4-0.1-2.1c-0.1-0.4-0.2-0.7-0.5-1
	c-0.5-0.6-1.3-0.9-2.1-0.8c-0.9,0-1.8,0.3-2.5,0.8c-0.7,0.6-1,1.4-1,2.2v9.3h-2.3V673h2.1l0.1,1.5
	C353,673.2,354.6,672.5,356.3,672.6z"/>
<path class="st2" d="M372.5,676.3h-3.8v-3.7h3.8V676.3L372.5,676.3z M372.5,684.9h-3.8v-3.8h3.8V684.9z"/>
<path class="st2" d="M398.1,684.3c0.9,0.3,1.8,0.5,2.8,0.4c0.9,0,1.9-0.3,2.6-0.9c0.7-0.6,1.1-1.6,1.1-2.5c0-1.7-1.1-2.8-3.2-3.2
	c-0.6-0.1-1.3-0.2-1.9-0.2H398v-2.2h1.4c2.2,0,3.6-0.5,4.2-1.5c0.2-0.5,0.4-1,0.4-1.5c0-0.8-0.3-1.5-0.9-2c-0.7-0.5-1.6-0.8-2.5-0.7
	c-1.6,0-3.1,0.5-4.3,1.6l-0.9-2c1.5-1.2,3.5-1.8,5.4-1.7c1.5-0.1,3,0.3,4.2,1.1c1,0.8,1.7,2,1.6,3.3c0.1,1.1-0.4,2.2-1.2,3
	c-0.8,0.7-1.8,1.2-2.9,1.4c1.2,0.2,2.4,0.7,3.3,1.5c1,0.8,1.5,2.1,1.4,3.3c0.1,2-1,3.8-2.8,4.5c-1.3,0.6-2.7,0.8-4.1,0.8
	c-1.8,0.1-3.6-0.5-5.1-1.6l0.9-2C396.8,683.7,397.4,684.1,398.1,684.3z"/>
<path class="st2" d="M419.1,686.2c-1.7,1-3.8,1-5.5,0c-0.8-0.5-1.5-1.3-1.9-2.1c-1-2.1-1.5-4.4-1.5-6.7c0-3.3,0.7-5.9,2-7.6
	c0.5-0.6,1.1-1.1,1.8-1.5c1.5-0.7,3.3-0.7,4.8,0c1.4,0.7,2.4,2,2.8,3.5c0.6,1.8,0.9,3.7,0.9,5.6c0.1,2.3-0.4,4.6-1.5,6.7
	C420.6,685,419.9,685.7,419.1,686.2z M418.1,670.3c-0.5-0.4-1.1-0.7-1.8-0.7c-0.8,0-1.5,0.4-1.9,1c-1.1,1.3-1.6,3.6-1.6,6.7
	c-0.1,1.8,0.2,3.7,0.9,5.4L418.1,670.3z M419.3,672.1l-4.5,12.4c0.5,0.4,1.1,0.6,1.7,0.6c0.8,0,1.4-0.4,1.9-1
	c1.1-1.3,1.6-3.5,1.6-6.7C420.1,675.6,419.8,673.8,419.3,672.1L419.3,672.1z"/>
<path class="st2" d="M432.2,687c-0.8,0-1.6-0.2-2.4-0.6c-0.7-0.4-1.2-0.9-1.6-1.6v7.2l-2.3,0.2V673h2.3v1.9c0.4-0.7,0.9-1.2,1.6-1.7
	c0.7-0.4,1.5-0.7,2.3-0.6c2-0.1,3.9,1,4.8,2.8c0.6,1.3,0.9,2.8,0.9,4.2c0.2,2.1-0.5,4.3-1.9,5.9C435,686.6,433.6,687.1,432.2,687z
	 M428.3,679.8c0,3.7,1.3,5.5,3.8,5.5c2.3,0,3.5-1.8,3.5-5.5c0-2-0.3-3.4-0.9-4.2c-0.6-0.8-1.6-1.2-2.6-1.2c-2.1,0-3.4,1.2-3.7,3.7
	C428.3,678.6,428.3,679.2,428.3,679.8L428.3,679.8z"/>
<path class="st2" d="M441.4,673h2.6l3.3,5.3l3.3-5.3h2.4l-4.2,6.6l4.3,7.1h-2.5l-3.3-5.5l-3.5,5.5h-2.5l4.5-7L441.4,673z"/>
<path class="st2" d="M473,670.6c1.5-0.7,2.9-1.5,4.2-2.6h2.4v16.8h3.9v1.8h-10.4v-1.8h4.2v-14.3l-1.8,1c-0.8,0.5-1.6,0.9-2.5,1.3
	V670.6z"/>
<path class="st2" d="M495.8,686.2c-1.7,1-3.8,1-5.5,0c-0.8-0.5-1.5-1.3-1.9-2.1c-1-2.1-1.5-4.4-1.5-6.7c0-3.3,0.7-5.9,2-7.6
	c0.5-0.6,1.1-1.1,1.8-1.5c1.5-0.7,3.3-0.7,4.8,0c1.4,0.7,2.4,2,2.8,3.5c0.6,1.8,0.9,3.7,0.9,5.6c0.1,2.3-0.4,4.6-1.5,6.7
	C497.3,685,496.6,685.7,495.8,686.2z M494.8,670.3c-0.5-0.4-1.1-0.7-1.8-0.7c-0.8,0-1.5,0.4-1.9,1c-1.1,1.3-1.6,3.6-1.6,6.7
	c-0.1,1.8,0.2,3.7,0.9,5.4L494.8,670.3z M496,672.1l-4.5,12.4c0.5,0.4,1.1,0.6,1.7,0.6c0.8,0,1.4-0.4,1.9-1c1.1-1.3,1.6-3.5,1.6-6.7
	C496.8,675.6,496.5,673.8,496,672.1L496,672.1z"/>
<path class="st2" d="M508.9,687c-0.8,0-1.6-0.2-2.4-0.6c-0.7-0.4-1.2-0.9-1.6-1.6v7.2l-2.3,0.2V673h2.2v1.9c0.4-0.7,0.9-1.2,1.6-1.7
	c0.7-0.4,1.5-0.7,2.3-0.6c2-0.1,3.9,1,4.8,2.8c0.6,1.3,0.9,2.8,0.9,4.2c0.2,2.1-0.5,4.3-1.9,5.9C511.7,686.5,510.3,687.1,508.9,687z
	 M505,679.8c0,3.7,1.3,5.5,3.8,5.5c2.3,0,3.5-1.8,3.5-5.5c0-2-0.3-3.4-0.9-4.2c-0.6-0.8-1.6-1.2-2.6-1.2c-2.1,0-3.4,1.2-3.7,3.7
	C505,678.6,505,679.2,505,679.8z"/>
<path class="st2" d="M518.1,673h2.6l3.3,5.3l3.3-5.3h2.4l-4.2,6.6l4.4,7h-2.5l-3.3-5.5l-3.5,5.5h-2.5l4.5-7L518.1,673z"/>
<path class="st2" d="M536.6,690.6l1-7.5h3.4l-2.1,7.5H536.6L536.6,690.6z M541.2,676.2h-3.7v-3.8h3.7V676.2z"/>
<path class="st1" d="M1000.2,306.1h-6v1h6V306.1L1000.2,306.1z M988.2,306.1h-6v1h6V306.1L988.2,306.1z M976.2,306.1h-6v1h6V306.1
	L976.2,306.1z M964.2,306.1h-6v1h6V306.1L964.2,306.1z M952.2,306.1h-6v1h6V306.1L952.2,306.1z M940.2,306.1h-6v1h6V306.1
	L940.2,306.1z M928.2,306.1h-6v1h6V306.1L928.2,306.1z M916.2,306.1h-6v1h6V306.1L916.2,306.1z M904.2,306.1h-6v1h6V306.1
	L904.2,306.1z M892.2,306.1h-6v1h6V306.1L892.2,306.1z M880.2,306.1h-6v1h6V306.1L880.2,306.1z M868.2,306.1h-6v1h6V306.1
	L868.2,306.1z M856.2,306.1h-6v1h6V306.1L856.2,306.1z M844.2,306.1h-6v1h6V306.1L844.2,306.1z M832.2,306.1h-6v1h6V306.1
	L832.2,306.1z M820.2,306.1h-6v1h6V306.1L820.2,306.1z M808.2,306.1h-6v1h6V306.1L808.2,306.1z M796.2,306.1h-6v1h6V306.1
	L796.2,306.1z M784.2,306.1h-6v1h6V306.1L784.2,306.1z M772.2,306.1h-6v1h6V306.1L772.2,306.1z M760.2,306.1h-6v1h6V306.1
	L760.2,306.1z M748.2,306.1h-6v1h6V306.1L748.2,306.1z M736.2,306.1h-6v1h6V306.1L736.2,306.1z M724.2,306.1h-6v1h6V306.1
	L724.2,306.1z M712.2,306.1h-6v1h6V306.1L712.2,306.1z M700.2,306.1h-6v1h6V306.1L700.2,306.1z M688.2,306.1h-6v1h6V306.1
	L688.2,306.1z M676.2,306.1h-6v1h6V306.1L676.2,306.1z M664.2,306.1h-6v1h6V306.1L664.2,306.1z M652.2,306.1h-6v1h6V306.1
	L652.2,306.1z M640.2,306.1h-6v1h6V306.1L640.2,306.1z M628.2,306.1h-6v1h6V306.1L628.2,306.1z M616.2,306.1h-6v1h6V306.1
	L616.2,306.1z M606.1,307.1h-1v6h1V307.1L606.1,307.1z M606.1,319.1h-1v6h1V319.1L606.1,319.1z M606.1,331.1h-1v6h1V331.1
	L606.1,331.1z M606.1,343.1h-1v6h1V343.1L606.1,343.1z M606.1,355.1h-1v6h1V355.1L606.1,355.1z M606.1,367.1h-1v6h1V367.1
	L606.1,367.1z M606.1,379.1h-1v6h1V379.1L606.1,379.1z M606.1,391.1h-1v6h1V391.1L606.1,391.1z M606.1,403.1h-1v6h1V403.1
	L606.1,403.1z M606.1,415.1h-1v6h1V415.1L606.1,415.1z M606.1,427.1h-1v6h1V427.1L606.1,427.1z M606.1,439.1h-1v6h1V439.1
	L606.1,439.1z M606.1,451.1h-1v6h1V451.1L606.1,451.1z M606.1,463.1h-1v6h1V463.1L606.1,463.1z M606.1,475.1h-1v6h1V475.1
	L606.1,475.1z M606.1,487.1h-1v6h1V487.1L606.1,487.1z M606.1,499.1h-1v6h1V499.1L606.1,499.1z M606.1,511.1h-1v6h1V511.1
	L606.1,511.1z M606.1,523.1h-1v3.8h2.2v-1h-1.2V523.1L606.1,523.1z M619.3,525.9h-6v1h6V525.9L619.3,525.9z M631.3,525.9h-6v1h6
	V525.9L631.3,525.9z M643.3,525.9h-6v1h6V525.9L643.3,525.9z M655.3,525.9h-6v1h6V525.9L655.3,525.9z M667.3,525.9h-6v1h6V525.9
	L667.3,525.9z M679.3,525.9h-6v1h6V525.9L679.3,525.9z M691.3,525.9h-6v1h6V525.9L691.3,525.9z M703.3,525.9h-6v1h6V525.9
	L703.3,525.9z M715.3,525.9h-6v1h6V525.9L715.3,525.9z M727.3,525.9h-6v1h6V525.9L727.3,525.9z M739.3,525.9h-6v1h6V525.9
	L739.3,525.9z M751.3,525.9h-6v1h6V525.9L751.3,525.9z M763.3,525.9h-6v1h6V525.9L763.3,525.9z M775.3,525.9h-6v1h6V525.9
	L775.3,525.9z M787.3,525.9h-6v1h6V525.9L787.3,525.9z M799.3,525.9h-6v1h6V525.9L799.3,525.9z M811.3,525.9h-6v1h6V525.9
	L811.3,525.9z M823.3,525.9h-6v1h6V525.9L823.3,525.9z M835.3,525.9h-6v1h6V525.9L835.3,525.9z M847.3,525.9h-6v1h6V525.9
	L847.3,525.9z M859.3,525.9h-6v1h6V525.9L859.3,525.9z M871.3,525.9h-6v1h6V525.9L871.3,525.9z M883.3,525.9h-6v1h6V525.9
	L883.3,525.9z M895.3,525.9h-6v1h6V525.9L895.3,525.9z M907.3,525.9h-6v1h6V525.9L907.3,525.9z M919.3,525.9h-6v1h6V525.9
	L919.3,525.9z M931.3,525.9h-6v1h6V525.9L931.3,525.9z M943.3,525.9h-6v1h6V525.9L943.3,525.9z M955.3,525.9h-6v1h6V525.9
	L955.3,525.9z M967.3,525.9h-6v1h6V525.9L967.3,525.9z M979.3,525.9h-6v1h6V525.9L979.3,525.9z M991.3,525.9h-6v1h6V525.9
	L991.3,525.9z M1000.2,523.8h-1v2.1h-1.9v1h2.9V523.8L1000.2,523.8z M1000.2,511.8h-1v6h1V511.8L1000.2,511.8z M1000.2,499.8h-1v6h1
	V499.8L1000.2,499.8z M1000.2,487.8h-1v6h1V487.8L1000.2,487.8z M1000.2,475.8h-1v6h1V475.8L1000.2,475.8z M1000.2,463.8h-1v6h1
	V463.8L1000.2,463.8z M1000.2,451.8h-1v6h1V451.8L1000.2,451.8z M1000.2,439.8h-1v6h1V439.8L1000.2,439.8z M1000.2,427.8h-1v6h1
	V427.8L1000.2,427.8z M1000.2,415.8h-1v6h1V415.8L1000.2,415.8z M1000.2,403.8h-1v6h1V403.8L1000.2,403.8z M1000.2,391.8h-1v6h1
	V391.8L1000.2,391.8z M1000.2,379.8h-1v6h1V379.8L1000.2,379.8z M1000.2,367.8h-1v6h1V367.8L1000.2,367.8z M1000.2,355.8h-1v6h1
	V355.8L1000.2,355.8z M1000.2,343.8h-1v6h1V343.8L1000.2,343.8z M1000.2,331.8h-1v6h1V331.8L1000.2,331.8z M1000.2,319.8h-1v6h1
	V319.8L1000.2,319.8z M1000.2,307.8h-1v6h1V307.8L1000.2,307.8z"/>
<rect x="628.3" y="329.4" class="st3" width="348.6" height="174.3"/>
<path class="st2" d="M742.2,403.8v-18.3h11.1l-0.1,2.7h-7.6v4.7h7.2v2.7h-7.2v5.5h7.8l-0.1,2.7H742.2z"/>
<path class="st2" d="M761,404c-0.8,0-1.6-0.1-2.3-0.3c-0.6-0.2-1.1-0.6-1.5-1c-0.4-0.5-0.6-1.1-0.8-1.7c-0.2-0.8-0.2-1.6-0.2-2.5
	V385l3.3-0.2v13.5c-0.1,0.9,0.1,1.7,0.4,2.5c0.4,0.5,1.1,0.7,1.7,0.7c0.5,0,1.1-0.1,1.6-0.1l0.1,2.3l-0.3,0.1l-0.6,0.1l-0.7,0.1
	C761.5,404,761.3,404,761,404z"/>
<path class="st2" d="M771.2,404c-1.9,0.1-3.8-0.6-5.2-1.9c-1.3-1.4-2-3.3-1.8-5.3c-0.1-1.9,0.5-3.8,1.7-5.2c1.2-1.3,2.9-2,4.7-2
	c1.7-0.1,3.3,0.6,4.4,1.8c1.1,1.3,1.7,3,1.6,4.7c0,0.1,0,0.4,0,0.7s0,0.5,0,0.7h-9.1c0,1.1,0.3,2.2,1,3c0.7,0.7,1.7,1.1,2.8,1
	c1.5,0,3-0.4,4.3-1.2l0.5,2.3C774.7,403.6,772.9,404.1,771.2,404z M767.6,395.5h6c0.1-0.9-0.2-1.8-0.8-2.6c-0.5-0.6-1.3-0.9-2.1-0.9
	c-0.8,0-1.6,0.3-2.1,0.9C767.9,393.6,767.6,394.6,767.6,395.5L767.6,395.5z"/>
<path class="st2" d="M779.3,403.8v-13.7h2.7l0.4,1.8c0.2-0.2,0.3-0.4,0.5-0.6c0.2-0.2,0.4-0.4,0.6-0.5c0.3-0.2,0.6-0.4,0.9-0.5
	c0.4-0.2,0.7-0.3,1.1-0.3c0.5-0.1,0.9-0.1,1.4-0.1c0.9,0,1.8,0.2,2.6,0.7c0.6,0.4,1.1,0.9,1.4,1.5c0.5-0.7,1.1-1.3,1.9-1.6
	c0.8-0.4,1.7-0.6,2.6-0.6c1.3-0.1,2.6,0.4,3.5,1.3c0.8,1.2,1.2,2.6,1.1,4v8.8h-3.3V396c0.1-1-0.1-2-0.4-2.9c-0.3-0.6-1-1-1.7-0.9
	c-1.2-0.1-2.3,0.6-2.8,1.7c-0.3,0.6-0.4,1.2-0.5,1.8v8H788v-7.9c0.1-0.9-0.1-1.9-0.5-2.7c-0.4-0.6-1-1-1.8-0.9
	c-0.6,0-1.3,0.2-1.8,0.5c-0.5,0.3-0.9,0.8-1.1,1.4c-0.2,1-0.3,2-0.3,3v6.6L779.3,403.8L779.3,403.8z"/>
<path class="st2" d="M809.5,404c-1.9,0.1-3.8-0.6-5.2-1.9c-1.3-1.4-2-3.3-1.8-5.3c-0.1-1.9,0.5-3.8,1.7-5.2c1.2-1.3,2.9-2,4.7-2
	c1.7-0.1,3.3,0.6,4.4,1.8c1.1,1.3,1.7,3,1.6,4.7c0,0.1,0,0.4,0,0.7s0,0.5,0,0.7h-9.1c0,1.1,0.3,2.2,1,3c0.7,0.7,1.7,1.1,2.8,1
	c1.5,0,3-0.4,4.3-1.2l0.5,2.3C813,403.6,811.2,404.1,809.5,404z M805.9,395.5h6c0.1-0.9-0.2-1.8-0.8-2.6c-0.5-0.6-1.3-0.9-2.1-0.9
	c-0.8,0-1.6,0.3-2.1,0.9C806.2,393.6,805.9,394.6,805.9,395.5L805.9,395.5z"/>
<path class="st2" d="M817.6,403.8v-13.7h2.6l0.4,1.7c1.2-1.3,2.9-2,4.7-2.1c1.3-0.1,2.7,0.4,3.6,1.4c0.9,1.1,1.3,2.6,1.2,4v8.7h-3.3
	v-8.3c0-0.9-0.1-1.7-0.5-2.5c-0.4-0.6-1.2-0.9-1.9-0.8c-0.7,0-1.4,0.2-1.9,0.5c-0.6,0.3-1,0.8-1.3,1.4c-0.2,1-0.3,2-0.2,3v6.7
	L817.6,403.8L817.6,403.8z"/>
<path class="st2" d="M838.8,404c-0.8,0-1.6-0.1-2.3-0.3c-0.6-0.2-1.1-0.5-1.5-1c-0.4-0.5-0.6-1.1-0.7-1.7c-0.2-0.8-0.2-1.6-0.2-2.4
	v-6.5h-2.2l0.1-1.8l2.3-0.2l1-3.7h2v3.7h3.4v2h-3.4v6.5c-0.1,0.8,0.1,1.5,0.5,2.2c0.4,0.5,1,0.7,1.7,0.7c0.5,0,1,0,1.5-0.1l0.1,2.2
	l-0.3,0.1l-0.5,0.1l-0.7,0.1C839.2,404,839,404,838.8,404z"/>
<path class="st2" d="M850.4,403.8v-18.3h5.7c1.9-0.1,3.7,0.2,5.4,1.1c1.2,0.7,1.9,2.1,1.8,3.5c0,0.3,0,0.5,0,0.8
	c0,0.3-0.1,0.6-0.2,0.9c-0.1,0.3-0.3,0.6-0.5,0.9c-0.2,0.3-0.5,0.6-0.8,0.8c-0.4,0.3-0.8,0.5-1.2,0.6c1,0.2,1.9,0.8,2.6,1.6
	c1.5,2.2,1.1,5.1-0.9,6.8c-1.5,1-3.3,1.5-5.1,1.4H850.4L850.4,403.8z M853.7,393h2.9c2.2,0,3.4-0.9,3.4-2.6c0.1-0.8-0.3-1.6-1-2
	c-1-0.4-2-0.6-3.1-0.5h-2.2L853.7,393L853.7,393z M853.7,401.3h2.9c2.6,0,3.9-1,3.9-3c0.1-0.9-0.3-1.7-1-2.2c-0.9-0.5-2-0.7-3-0.7
	h-2.8L853.7,401.3L853.7,401.3z"/>
<path class="st2" d="M711.2,430.7c0.4-1.3,1.6-2.1,2.9-2.1c1.7,0,2.7,1.3,3,3.8c0,0.5,0.1,1,0.1,1.6v8.8h-2.1v-8.5
	c0.1-1,0-2.1-0.3-3c-0.1-0.3-0.3-0.5-0.6-0.7c-0.2-0.1-0.4-0.1-0.6-0.1c-0.7,0-1.4,0.5-1.6,1.2c-0.2,0.9-0.3,1.8-0.3,2.6v8.5h-1.9
	v-8.4c0-1.8-0.2-3-0.7-3.6c-0.2-0.3-0.6-0.5-1-0.4c-0.4,0-0.8,0.2-1.1,0.5c-0.6,0.8-0.9,1.8-0.8,2.8v9h-2.1V429h1.9l0.1,1.8
	c0.2-0.6,0.6-1.1,1-1.6c0.4-0.4,1-0.7,1.6-0.6c0.6,0,1.2,0.2,1.6,0.6C710.8,429.6,711.1,430.1,711.2,430.7z"/>
<path class="st2" d="M728.8,433.3c0-2-0.8-2.9-2.5-2.9c-0.9,0-1.7,0.1-2.6,0.3c-0.7,0.1-1.4,0.3-2,0.5l-0.5-1.7
	c1.6-0.5,3.2-0.8,4.8-0.9c1.3-0.1,2.6,0.3,3.7,1c1,0.8,1.5,2,1.4,3.2v9.9h-1.9l-0.3-1.6c-0.6,0.6-1.3,1-2,1.4
	c-0.8,0.3-1.6,0.5-2.5,0.5c-1.1,0-2.1-0.3-2.9-1c-0.8-0.8-1.2-1.9-1.1-3c-0.1-1.1,0.5-2.2,1.5-2.8c0.7-0.4,1.4-0.7,2.2-0.9
	c0.8-0.2,1.8-0.3,3-0.5l1.8-0.2L728.8,433.3L728.8,433.3z M728.8,439.6v-3.5l-1.9,0.3c-0.9,0.1-1.8,0.3-2.7,0.5
	c-1,0.2-1.7,1.1-1.7,2.1c0,0.6,0.2,1.2,0.6,1.6c0.4,0.4,1,0.6,1.7,0.6C726.4,441.4,727.8,440.7,728.8,439.6z"/>
<path class="st2" d="M740.4,442.7h-2.3V429h1.9l0.2,2.5c0.5-0.9,1.3-1.7,2.2-2.2c0.9-0.5,2-0.8,3.1-0.8h1.1v2.1h-1.5
	c-1.2-0.1-2.5,0.3-3.5,1.1c-0.9,0.8-1.4,2.1-1.3,3.3L740.4,442.7L740.4,442.7z"/>
<path class="st2" d="M760,440.1c-0.3,0.7-0.8,1.4-1.5,1.9c-0.7,0.5-1.5,0.8-2.4,0.8c-1.6,0.1-3.2-0.7-4.1-2c-1-1.4-1.6-3.2-1.5-4.9
	c0-2.6,0.6-4.5,2-5.8c1-0.9,2.4-1.4,3.8-1.4c1.6,0,3,0.9,3.8,2.3l0.1-1.9h2.3c-0.1,2-0.1,4.8-0.1,8.1v3.7c0,2.9-0.6,4.9-1.9,6
	c-1.2,0.9-2.7,1.4-4.2,1.5c-1.1,0.1-2.2,0.2-3.2,0.2l-0.2-1.8c1.3,0,2.6-0.1,3.9-0.3c0.6-0.1,1.2-0.4,1.7-0.7c0.4-0.3,0.7-0.6,0.9-1
	c0.6-1.1,0.8-2.4,0.7-3.6V440.1L760,440.1z M758.9,431.4c-0.3-0.3-0.6-0.6-1-0.8c-0.5-0.2-1-0.3-1.5-0.3c-0.5,0-1,0.1-1.5,0.3
	c-0.8,0.4-1.4,1-1.6,1.9c-0.3,0.9-0.5,1.8-0.5,2.7c0,0.7,0,1.3,0.1,2c0.1,0.9,0.4,1.7,1,2.4c0.6,0.7,1.4,1,2.3,1
	c1.4,0.1,2.8-0.8,3.3-2.1c0.3-0.8,0.5-1.6,0.5-2.4c0-0.7,0-1.3-0.1-2c-0.1-0.5-0.2-1-0.3-1.5C759.4,432.2,759.2,431.8,758.9,431.4
	L758.9,431.4z"/>
<path class="st2" d="M767.5,430.8V429h6.2v12h3.9v1.8H767V441h4.3v-10.2H767.5L767.5,430.8z M771,425.4v-1.2c0-0.3,0.2-0.6,0.5-0.8
	c0.6-0.5,1.4-0.5,2,0c0.3,0.2,0.5,0.5,0.5,0.8v1.2c0,0.3-0.2,0.6-0.5,0.8c-0.6,0.5-1.4,0.5-2,0C771.2,426,771,425.7,771,425.4
	L771,425.4z"/>
<path class="st2" d="M788.5,428.6c2.8,0,4.3,1.8,4.3,5.4v8.7h-2.3v-8.4c0-0.7,0-1.4-0.2-2.1c-0.1-0.4-0.2-0.7-0.5-1
	c-0.5-0.6-1.3-0.9-2.1-0.8c-0.9,0-1.8,0.3-2.5,0.9c-0.7,0.6-1,1.4-1,2.2v9.3h-2.3V429h2.1l0.1,1.5
	C785.3,429.2,786.9,428.5,788.5,428.6z"/>
<path class="st2" d="M804.8,432.3H801v-3.7h3.8L804.8,432.3L804.8,432.3z M804.8,440.9H801v-3.8h3.8L804.8,440.9L804.8,440.9z"/>
<path class="st2" d="M828.6,426.6c1.5-0.7,2.9-1.5,4.2-2.6h2.3v16.8h3.9v1.8h-10.4v-1.8h4.2v-14.3l-1.8,1c-0.8,0.5-1.6,0.9-2.5,1.2
	L828.6,426.6L828.6,426.6z"/>
<path class="st2" d="M851.4,442.2c-1.7,1-3.8,1-5.5,0c-0.8-0.5-1.5-1.3-1.9-2.1c-1-2.1-1.5-4.4-1.5-6.7c0-3.3,0.7-5.9,2-7.6
	c0.5-0.6,1.1-1.1,1.8-1.5c1.5-0.7,3.3-0.7,4.8,0c1.4,0.7,2.4,2,2.8,3.5c0.6,1.8,0.9,3.7,0.9,5.6c0.1,2.3-0.4,4.6-1.5,6.7
	C852.9,441,852.2,441.7,851.4,442.2z M850.4,426.4c-0.5-0.4-1.1-0.7-1.8-0.7c-0.8,0-1.5,0.4-1.9,1c-1.1,1.3-1.7,3.6-1.7,6.7
	c-0.1,1.8,0.2,3.7,0.9,5.4L850.4,426.4z M851.5,428.1l-4.4,12.4c0.5,0.4,1.1,0.6,1.7,0.6c0.8,0,1.4-0.4,1.9-1
	c1.1-1.3,1.7-3.5,1.7-6.6C852.4,431.6,852.1,429.8,851.5,428.1L851.5,428.1z"/>
<path class="st2" d="M864.5,443c-0.8,0-1.6-0.2-2.3-0.6c-0.7-0.4-1.2-0.9-1.6-1.6v7.1l-2.3,0.2V429h2.3v1.9c0.4-0.7,0.9-1.2,1.6-1.7
	c0.7-0.4,1.5-0.7,2.3-0.6c2-0.1,3.9,1,4.8,2.8c0.6,1.3,0.9,2.8,0.9,4.2c0.2,2.1-0.5,4.3-1.9,5.9C867.3,442.6,865.9,443.1,864.5,443z
	 M860.5,435.8c0,3.7,1.3,5.5,3.8,5.5c2.3,0,3.5-1.8,3.5-5.5c0-2-0.3-3.4-0.9-4.2c-0.6-0.8-1.6-1.2-2.6-1.2c-2.1,0-3.4,1.2-3.7,3.7
	C860.6,434.6,860.5,435.2,860.5,435.8L860.5,435.8z"/>
<path class="st2" d="M873.6,429h2.6l3.3,5.3l3.3-5.3h2.4l-4.2,6.6l4.4,7h-2.5l-3.3-5.5l-3.5,5.5h-2.5l4.5-7L873.6,429z"/>
<path class="st2" d="M892.1,446.6l1-7.5h3.4l-2.1,7.5H892.1L892.1,446.6z M896.7,432.2H893v-3.8h3.7L896.7,432.2L896.7,432.2z"/>
</svg>
